<?xml version="1.0" standalone="no"?>
<!DOCTYPE svg PUBLIC "-//W3C//DTD SVG 1.1//EN" "http://www.w3.org/Graphics/SVG/1.1/DTD/svg11.dtd" >
<svg xmlns="http://www.w3.org/2000/svg" xmlns:xlink="http://www.w3.org/1999/xlink" version="1.1">
<metadata>
Created by FontForge 20170731 at Fri Apr 29 07:38:02 2016
 By Aleksey,,,
Copyright (c) 2015, Impallari Type (www.impallari.com)
</metadata>
<defs>
<font id="LibreFranklin-SemiBoldItalic" horiz-adv-x="0" >
  <font-face 
    font-family="Libre Franklin SemiBold"
    font-weight="600"
    font-style="italic"
    font-stretch="normal"
    units-per-em="1000"
    panose-1="0 0 7 0 0 0 0 0 0 0"
    ascent="800"
    descent="-200"
    x-height="530"
    cap-height="742"
    bbox="-350.579 -242 1408.8 965"
    underline-thickness="50"
    underline-position="-150"
    slope="-8"
    unicode-range="U+000D-2212"
  />
<missing-glyph horiz-adv-x="666" 
d="M661.5 839.5q5.5 -7.5 4.5 -17.5l-135 -962q-2 -15 -9 -20t-25 -5h-448q-29 0 -26 29l135 964q2 11 6.5 15t12.5 4h471q8 0 13.5 -7.5zM609 789q0 8 -11 8h-357l249 -856l118 842zM79 -105q0 -6 4 -8t15 -2h348l-248 850l-118 -833z" />
    <glyph glyph-name="fi" unicode="fi" horiz-adv-x="650" 
d="M408 517l-9 -66q-1 -7 -4 -9.5t-10 -2.5h-97q-9 0 -10 -14l-58 -412q-1 -9 -4 -11t-10 -2h-102q-6 0 -10.5 6t-3.5 13l58 413q2 7 -6 7h-84q-12 0 -10 17l9 63q2 6 4.5 8.5t10.5 2.5h76q7 0 11.5 5t5.5 12l9 65q9 64 48 97t106 33h95q9 0 14.5 -4.5t4.5 -12.5l-8 -61
q-1 -6 -4 -8t-10 -2h-58q-26 0 -43 -17t-21 -45l-8 -52v-2q0 -8 10 -8h96q15 0 12 -13zM640 624q-2 -11 -7 -15t-18 -4h-96q-17 0 -13 24l14 95q2 18 17 18h106q6 0 9 -6t1 -15zM552 18q-1 -12 -5.5 -15t-17.5 -3h-87q-11 0 -16 6t-3 16l69 495q1 8 4 10.5t10 2.5h105
q6 0 9 -5.5t2 -13.5z" />
    <glyph glyph-name="fl" unicode="fl" horiz-adv-x="651" 
d="M408 517l-9 -66q-1 -7 -4 -9.5t-10 -2.5h-97q-9 0 -10 -14l-58 -412q-1 -9 -4 -11t-10 -2h-102q-6 0 -10.5 6t-3.5 13l58 413q2 7 -6 7h-84q-12 0 -10 17l9 63q2 6 4.5 8.5t10.5 2.5h76q7 0 11.5 5t5.5 12l9 65q9 64 48 97t106 33h95q9 0 14.5 -4.5t4.5 -12.5l-8 -61
q-1 -6 -4 -8t-10 -2h-58q-26 0 -43 -17t-21 -45l-8 -52v-2q0 -8 10 -8h96q15 0 12 -13zM553 18q-2 -12 -6 -15t-18 -3h-87q-11 0 -16.5 6t-3.5 16l103 707q1 8 3.5 10.5t9.5 2.5h104q13 0 10 -17z" />
    <glyph glyph-name=".notdef" horiz-adv-x="666" 
d="M661.5 839.5q5.5 -7.5 4.5 -17.5l-135 -962q-2 -15 -9 -20t-25 -5h-448q-29 0 -26 29l135 964q2 11 6.5 15t12.5 4h471q8 0 13.5 -7.5zM609 789q0 8 -11 8h-357l249 -856l118 842zM79 -105q0 -6 4 -8t15 -2h348l-248 850l-118 -833z" />
    <glyph glyph-name="uni0000" 
 />
    <glyph glyph-name="uni0000" 
 />
    <glyph glyph-name="nonmarkingreturn" unicode="&#xd;" horiz-adv-x="209" 
 />
    <glyph glyph-name="space" unicode=" " horiz-adv-x="209" 
 />
    <glyph glyph-name="exclam" unicode="!" horiz-adv-x="257" 
d="M167 230q-3 -10 -7 -13t-16 -3h-45q-19 0 -17 21l37 495q0 7 2.5 9.5t8.5 2.5h125q6 0 10 -6t3 -12zM165 17q-1 -11 -5.5 -14t-18.5 -3h-101q-11 0 -16 6t-4 16l16 111q1 8 4 10t9 2h118q7 0 11 -5t3 -13z" />
    <glyph glyph-name="quotedbl" unicode="&#x22;" horiz-adv-x="449" 
d="M360 488q-3 -11 -6.5 -13.5t-16.5 -2.5h-32q-9 0 -14 6t-4 15l3 238q0 7 2.5 9t9.5 2h109q6 0 10 -5.5t3 -12.5zM156 488q-3 -11 -6.5 -13.5t-16.5 -2.5h-32q-9 0 -14 6t-4 15l3 238q0 7 2.5 9t9.5 2h109q6 0 10 -5.5t3 -12.5z" />
    <glyph glyph-name="numbersign" unicode="#" horiz-adv-x="603" 
d="M611.5 509.5q2.5 -5.5 1.5 -12.5l-5 -37q-1 -10 -6 -13t-17 -3h-100l-40 -139h95q6 0 9 -5.5t2 -12.5l-6 -37q-1 -10 -5.5 -13t-16.5 -3h-99l-63 -217q-2 -10 -4.5 -13.5t-8.5 -3.5q-5 0 -8 1l-31 4q-23 3 -20 20l61 209h-141l-63 -217q-2 -10 -4.5 -13.5t-8.5 -3.5
q-5 0 -8 1l-31 4q-23 3 -20 20l61 209h-96q-10 0 -15 6t-3 15l5 38q1 7 4.5 9.5t10.5 2.5h115l40 139h-95q-10 0 -14.5 6t-2.5 15l5 38q1 7 4.5 9.5t10.5 2.5h113l62 214q2 8 5 10.5t8 1.5l44 -5q7 -1 11 -6.5t3 -12.5l-59 -202h140l62 214q3 8 6 10.5t8 1.5l44 -5
q7 -1 11 -6.5t3 -12.5l-59 -202h97q6 0 8.5 -5.5zM410 444h-140l-40 -139h140z" />
    <glyph glyph-name="dollar" unicode="$" horiz-adv-x="638" 
d="M564 113.5q-31 -50.5 -87 -82t-127 -37.5q-12 -1 -16.5 -4.5t-6.5 -12.5l-5 -43q-1 -10 -5 -13t-16 -3h-48q-9 0 -14 6t-4 15l7 47q1 7 0 8t-6 1q-76 3 -127 28.5t-88 74.5q-15 8 -15 18q0 4 5 9l58 53q7 5 10 5q9 0 15 -13q29 -35 63 -54.5t82 -24.5h2q8 0 13 4t6 10
l28 197v5q0 10 -9 15q-101 26 -146.5 71.5t-45.5 112.5q0 17 3 35q11 78 73.5 132t163.5 70q8 1 16 6.5t9 11.5l6 42q1 5 2.5 6.5t6.5 1.5h58q8 0 13 -5.5t4 -15.5l-7 -43q0 -3 1.5 -4.5t4.5 -2.5q103 -17 166 -81q10 -3 10 -13q0 -5 -4 -9l-55 -56q-4 -4 -8 -4q-6 0 -14 13
q-16 18 -42 32.5t-57 22.5h-2q-6 0 -11 -4.5t-6 -9.5l-27 -197v-5q0 -2 2 -3t6 -2l48 -14q69 -25 108.5 -72t39.5 -112q0 -62 -31 -112.5zM335 640q1 6 -0.5 7t-6.5 -2q-57 -7 -92 -40t-35 -78q0 -26 18.5 -44.5t63.5 -36.5q11 -1 18.5 5t9.5 17zM345.5 91.5
q2.5 1.5 4.5 2.5q58 3 93.5 35.5t35.5 79.5q0 30 -20.5 50.5t-67.5 36.5h-3q-16 0 -19 -15l-26 -187q0 -4 2.5 -2.5z" />
    <glyph glyph-name="percent" unicode="%" horiz-adv-x="935" 
d="M408 702.5q44 -50.5 44 -130.5q0 -18 -3 -38q-8 -59 -37.5 -105t-73.5 -72t-94 -26q-72 0 -117 49.5t-45 128.5q0 20 3 39q8 59 38 105.5t75 73t95 26.5q71 0 115 -50.5zM191 3q-4 -5 -7.5 -6t-8.5 -1h-7l-36 1q-7 0 -11 4.5t-4 10.5q0 8 4 13l580 719q4 5 7.5 6t7 0.5
t6.5 -0.5h45q8 0 12 -5t-1 -13zM315 439q29 40 38 108q4 23 4 47q0 43 -16.5 67t-48.5 24q-44 0 -73.5 -41.5t-38.5 -110.5q-3 -24 -3 -44q0 -90 64 -90q45 0 74 40zM838 361.5q44 -50.5 44 -129.5q0 -19 -3 -39q-8 -59 -37.5 -105t-73.5 -72t-94 -26q-72 0 -116.5 49
t-44.5 129q0 18 3 39q8 59 38 105.5t74.5 73t94.5 26.5q71 0 115 -50.5zM745 98.5q30 40.5 39 107.5q3 24 3 44q0 45 -16 69.5t-48 24.5q-43 0 -73 -41.5t-39 -110.5q-3 -22 -3 -42q0 -44 16 -68t48 -24q43 0 73 40.5z" />
    <glyph glyph-name="ampersand" unicode="&#x26;" horiz-adv-x="818" 
d="M567.5 714q54.5 -39 54.5 -103q0 -7 -2 -21q-7 -50 -55 -101t-127 -87q-20 -3 -13 -16l105 -139q4 -4 5 -4q3 0 7 4.5t9 11.5q33 27 67.5 70t50.5 76q3 4 8 4t12 -3l61 -21q8 -3 12 -11.5t1 -17.5q-37 -67 -145 -183q-9 -6 -11 -9t2 -9q24 -18 60 -30.5t73 -13.5
q11 0 16.5 -5.5t3.5 -14.5l-9 -72q-2 -11 -6 -15t-12 -4q-66 0 -126.5 21.5t-99.5 56.5l-8 2q-7 0 -17 -12q-110 -73 -240 -73q-103 0 -160 45t-57 125q0 16 3 34q8 57 52 105.5t134 98.5q8 3 13 6.5t5 8.5q0 3 -5 13q-47 55 -47 122q0 56 32.5 102t88.5 72t123 26
q87 0 141.5 -39zM351.5 641.5q-32.5 -29.5 -38.5 -69.5q-4 -35 20 -67l27 -36q2 -2 4 -2q7 0 15 8q59 25 90 55.5t37 68.5l1 11q0 30 -21.5 45.5t-55.5 15.5q-46 0 -78.5 -29.5zM295 333q-7 0 -16 -9q-49 -21 -79.5 -59.5t-30.5 -81.5q0 -39 29 -64.5t75 -25.5q35 0 72.5 15
t64.5 39q19 9 12 21l-117 159q-4 6 -10 6z" />
    <glyph glyph-name="quotesingle" unicode="'" horiz-adv-x="245" 
d="M193 488q-3 -11 -6.5 -13.5t-16.5 -2.5h-32q-9 0 -14 6t-4 15l3 238q0 7 2.5 9t9.5 2h109q6 0 10 -5.5t3 -12.5z" />
    <glyph glyph-name="parenleft" unicode="(" horiz-adv-x="304" 
d="M140 -160.5q-4 4.5 -5 11.5q-41 88 -62.5 168.5t-21.5 168.5q0 54 7 104q17 118 69.5 232t130.5 213q9 5 22 5h62q6 0 9 -5.5t1 -12.5q-67 -102 -114.5 -216.5t-63.5 -230.5q-8 -55 -8 -120q0 -148 53 -316q3 -2 2.5 -4t-6.5 -2h-66q-5 0 -9 4.5z" />
    <glyph glyph-name="parenright" unicode=")" horiz-adv-x="304" 
d="M-40 -159.5q-3 5.5 -1 12.5q67 102 114.5 216.5t63.5 230.5q8 55 8 120q0 148 -53 316q-3 2 -2.5 4t6.5 2h66q5 0 9 -4.5t5 -11.5q41 -89 62 -168.5t21 -167.5q0 -53 -7 -105q-17 -118 -69 -232t-130 -213q-9 -5 -22 -5h-62q-6 0 -9 5.5z" />
    <glyph glyph-name="asterisk" unicode="*" horiz-adv-x="436" 
d="M258 490q0 1 -2 1t-6 -7l-93 -123q-1 -2 -5 -2t-12 6l-44 34q-7 5 -7 11q0 3 3 7l105 107q2 3 3 5t-3 3l-117 35q-5 2 -7.5 7.5t-0.5 12.5l27 51q3 5 5 5q3 0 8 -3l110 -49l3 -1q4 0 7 3.5t4 8.5l9 133q0 4 1.5 5.5t7.5 1.5h64q5 0 9 -5.5t2 -9.5l-29 -134q-1 -4 0.5 -3
t4.5 2l126 52q2 1 5 1q4 0 7.5 -4t3.5 -9l10 -50v-6q0 -8 -7 -9l-125 -37q-5 -1 -8 -5t-1 -7l71 -102q3 -4 3 -9q0 -7 -8 -12l-47 -29q-4 -3 -8 -3q-5 0 -8.5 3t-4.5 6z" />
    <glyph glyph-name="plus" unicode="+" horiz-adv-x="574" 
d="M538.5 415.5q4.5 -5.5 3.5 -11.5l-10 -63q-1 -10 -5 -13t-17 -3h-166l-24 -177q-1 -6 -3.5 -7.5t-9.5 -1.5h-62q-10 0 -15.5 7.5t-3.5 19.5l22 159h-166q-20 0 -18 21l10 63q1 7 3 9.5t8 2.5h177l24 173q1 9 4 11.5t12 2.5h63q8 0 13 -5.5t3 -11.5l-23 -170h170
q6 0 10.5 -5.5z" />
    <glyph glyph-name="comma" unicode="," horiz-adv-x="239" 
d="M-16 -146q0 4 3 10l64 110q6 10 6 16q0 10 -14 10h-18q-10 0 -12.5 3t-1.5 11l16 113q1 8 5.5 13.5t10.5 5.5h120q13 0 11 -15l-16 -102q-1 -10 -7 -18l-110 -144q-9 -10 -16 -14t-15 -4h-19q-7 0 -7 5z" />
    <glyph glyph-name="hyphen" unicode="-" horiz-adv-x="380" 
d="M322 232q-1 -10 -5.5 -13t-16.5 -3h-232q-10 0 -15 6t-4 15l10 63q1 7 3.5 9.5t8.5 2.5h247q6 0 10 -5.5t3 -11.5z" />
    <glyph glyph-name="period" unicode="." horiz-adv-x="237" 
d="M155 17q-1 -11 -5.5 -14t-18.5 -3h-101q-11 0 -16.5 6.5t-3.5 15.5l16 113q1 9 4 11t9 2h118q7 0 11 -5.5t2 -13.5z" />
    <glyph glyph-name="slash" unicode="/" horiz-adv-x="357" 
d="M-30.5 -21q-3.5 5 -1.5 11l355 743q5 9 17 9h60q15 0 15 -13q0 -5 -3 -13l-347 -727q-5 -10 -10 -12.5t-15 -2.5h-59q-8 0 -11.5 5z" />
    <glyph glyph-name="zero" unicode="0" horiz-adv-x="701" 
d="M548.5 716q57.5 -37 89 -106t31.5 -162q0 -39 -6 -86q-16 -114 -65.5 -198t-122 -128.5t-157.5 -44.5q-77 0 -135 36t-90 103.5t-32 159.5q0 34 7 85q16 115 66 200.5t123 131.5t158 46q76 0 133.5 -37zM447 163.5q48 66.5 68 212.5q9 76 9 109q0 163 -114 163
q-74 0 -124 -70t-70 -217q-9 -60 -9 -104q0 -160 116 -160q76 0 124 66.5z" />
    <glyph glyph-name="one" unicode="1" horiz-adv-x="494" 
d="M434 97l-12 -85q-2 -7 -5 -9.5t-11 -2.5h-384q-9 0 -11.5 3t-1.5 11l12 87q1 6 3.5 8t10.5 2h114q10 0 11 11l65 464v3q0 5 -8 2l-114 -35q-2 -1 -7 -1q-13 0 -10 15l9 63q2 10 4 13.5t10 7.5l171 79q12 6 20 7.5t19 1.5h63q14 0 11 -16l-86 -608v-2q0 -5 7 -5h107
q14 0 13 -14z" />
    <glyph glyph-name="two" unicode="2" horiz-adv-x="628" 
d="M282 320q103 81 145.5 131.5t42.5 100.5q0 43 -29 67t-76 24q-45 0 -91 -27.5t-82 -79.5q-4 -9 -13 -3l-90 54q-4 1 -4 6q0 6 9 18q52 68 127 104.5t157 36.5q106 0 170.5 -50.5t64.5 -140.5q0 -54 -21.5 -98.5t-60 -83t-100.5 -86.5l-206 -158q-7 -5 -6.5 -9t6.5 -4h318
q18 0 15 -14l-12 -95q-2 -7 -5 -10t-12 -3h-502q-23 0 -20 23l9 65q2 11 9 19.5t35 29.5z" />
    <glyph glyph-name="three" unicode="3" horiz-adv-x="658" 
d="M116 644q0 6 6 12q51 45 119 70.5t140 25.5q78 0 134 -22t85.5 -61t29.5 -90q0 -62 -43 -112.5t-108 -71.5q-6 -2 -6 -5t6 -5q56 -15 90.5 -56.5t34.5 -98.5q0 -75 -40.5 -129t-114 -82.5t-171.5 -28.5q-94 0 -158 33.5t-101 90.5q-4 7 -4.5 10.5t3.5 6.5l77 51q9 7 14 0
q36 -45 79 -65.5t98 -20.5q74 0 124 37t50 97q0 47 -39 74t-99 28l-93 1q-11 0 -10 11l11 85q1 8 14 8l70 1q46 0 85 17.5t62.5 47t23.5 64.5q0 36 -30 58.5t-80 22.5q-52 0 -90.5 -18.5t-89.5 -57.5q-8 -4 -9 -4q-6 0 -10 6l-57 62q-3 5 -3 8z" />
    <glyph glyph-name="four" unicode="4" horiz-adv-x="675" 
d="M449 739.5q6 2.5 20 2.5h109q16 0 13 -16l-61 -433v-2q0 -5 7 -5h89q15 0 14 -13l-11 -77q-2 -8 -5 -10.5t-12 -2.5h-87q-5 0 -8.5 -3t-4.5 -9l-20 -155q-2 -10 -6.5 -13t-16.5 -3h-109q-10 0 -14.5 4t-3.5 13l22 159v2q0 5 -7 5h-313q-9 0 -12.5 3.5t-2.5 12.5l11 77
q1 9 6.5 17.5t19.5 25.5l369 409q8 9 14 11.5zM369 286q6 0 8.5 2.5t3.5 8.5l40 278v3q0 5 -2 5q-4 0 -11 -10l-242 -275q-11 -12 1 -12h202z" />
    <glyph glyph-name="five" unicode="5" horiz-adv-x="669" 
d="M626 742q9 0 12.5 -2.5t3.5 -8.5q0 -5 -1 -8l-17 -88q-2 -8 -6 -10.5t-13 -2.5h-327q-8 0 -11.5 -3t-5.5 -10l-36 -162v-3q0 -7 8 -4q46 18 81 26.5t76 8.5q104 0 168 -51.5t64 -147.5q0 -87 -42.5 -151.5t-117 -99.5t-168.5 -35q-90 0 -159 32t-110 89q-5 8 -5 13t7 10
l75 50q4 2 6 2q7 0 16 -11q34 -38 69 -59t88 -21q57 0 101.5 22.5t69 61.5t24.5 87q0 49 -33 76t-91 27q-39 0 -72.5 -12.5t-78.5 -37.5q-8 -2 -10 -2q-7 0 -13 5l-75 45q-8 5 -8 16q0 4 2 16l75 326q2 12 7 14.5t24 2.5h423z" />
    <glyph glyph-name="six" unicode="6" horiz-adv-x="677" 
d="M530.5 732.5q45.5 -18.5 76 -49t37.5 -65.5v-3q0 -6 -7 -8l-92 -31q-1 -1 -3 -1q-6 0 -17 18q-18 27 -38.5 40t-55.5 13q-86 0 -141 -62t-69 -163l-2 -12q0 -4 4 -4q3 0 9 3q90 42 171 42q70 0 121.5 -24t78.5 -67.5t27 -100.5q0 -76 -42.5 -137t-113 -95.5t-152.5 -34.5
q-124 0 -193 77t-69 212q0 39 6 84q17 120 67.5 207.5t127.5 133.5t172 46q52 0 97.5 -18.5zM295 338.5q-43 -12.5 -69 -27.5q-17 -11 -22 -27t-5 -48q0 -61 31.5 -103t91.5 -42q43 0 80.5 22.5t60 59.5t22.5 78q0 46 -31 73t-82 27q-34 0 -77 -12.5z" />
    <glyph glyph-name="seven" unicode="7" horiz-adv-x="612" 
d="M621 742q22 0 18 -22l-8 -48q-6 -28 -27 -52q-72 -88 -141.5 -202.5t-119 -222t-66.5 -177.5q-2 -11 -6 -14.5t-13 -3.5h-132q-7 0 -11.5 4.5t-4.5 12.5t2 12q114 274 348 581q4 6 4 8q0 4 -10 4h-352q-17 0 -14 19l22 89q2 7 6 9.5t14 2.5h491z" />
    <glyph glyph-name="eight" unicode="8" horiz-adv-x="678" 
d="M525 728.5q55 -23.5 85.5 -66t30.5 -97.5q0 -44 -20 -78t-45.5 -54t-59.5 -41q-6 -4 -6 -7q0 -2 6 -7q5 -3 36.5 -21t52 -53.5t20.5 -83.5q0 -73 -44 -125t-118.5 -78.5t-165.5 -26.5q-121 0 -191.5 46.5t-70.5 131.5q0 64 37.5 111t106.5 84q8 3 8 7q0 5 -7 9
q-38 26 -57 52.5t-19 76.5q0 66 37.5 122t105 89t152.5 33q71 0 126 -23.5zM319 635q-35 -17 -55 -46t-20 -62q0 -27 16 -45t51 -28l81 -24q8 -2 13 -2q24 0 50 20.5t43 52t17 61.5q0 41 -31 65.5t-85 24.5q-45 0 -80 -17zM431.5 123.5q47.5 33.5 47.5 87.5q0 31 -18 51
t-58 33l-105 31q-3 1 -10 1q-22 0 -52 -21t-51 -55t-21 -70q0 -42 36.5 -66.5t102.5 -24.5q81 0 128.5 33.5z" />
    <glyph glyph-name="nine" unicode="9" horiz-adv-x="675" 
d="M169.5 10.5q-45.5 19.5 -73 49.5t-37.5 61l-1 4q0 7 8 10l90 30q2 1 5 1q9 0 17 -14q15 -28 38 -42t61 -14q84 0 138 62t69 163v5q0 8 -4 8q-3 0 -11 -3q-46 -19 -83 -29t-82 -10q-70 0 -121 24.5t-78.5 68t-27.5 100.5q0 76 42.5 137t113.5 95t152 34q123 0 191.5 -76.5
t68.5 -211.5q0 -126 -45 -234t-129 -173t-197 -65q-59 0 -104.5 19.5zM408.5 403.5q38.5 12.5 69.5 31.5q18 10 23.5 26.5t5.5 46.5q0 60 -31 102t-90 42q-43 0 -80.5 -22.5t-60 -59.5t-22.5 -78q0 -46 30.5 -73.5t80.5 -27.5q36 0 74.5 12.5z" />
    <glyph glyph-name="colon" unicode=":" horiz-adv-x="237" 
d="M206 386q-1 -11 -5 -14t-18 -3h-102q-11 0 -16 6.5t-3 16.5l15 110q1 8 4 10t10 2h118q7 0 11 -5.5t2 -12.5zM155 20q-2 -11 -6.5 -14t-17.5 -3h-101q-11 0 -16 6.5t-3 16.5l15 110q1 8 4 10t9 2h118q7 0 10.5 -5.5t2.5 -12.5z" />
    <glyph glyph-name="semicolon" unicode=";" horiz-adv-x="249" 
d="M61 387l16 113q1 8 4 10t9 2h118q7 0 11 -5t3 -13l-16 -112q-1 -11 -5.5 -14t-18.5 -3h-101q-22 0 -20 22zM-14 -146.5q-4 7.5 -1 14.5l64 113q7 12 7 15q0 4 -9 4h-16q-10 0 -15 6t-4 15l16 114q1 7 3.5 9t9.5 2h119q6 0 10 -5.5t3 -12.5l-16 -107q-2 -10 -3 -13
l-110 -149q-11 -13 -31 -13h-16q-7 0 -11 7.5z" />
    <glyph glyph-name="less" unicode="&#x3c;" horiz-adv-x="566" 
d="M487 146q-3 -18 -14 -18q-3 0 -13 4l-389 159q-8 3 -13.5 10.5t-3.5 15.5l10 78q1 10 5.5 14.5t14.5 7.5l433 161q6 2 9 2q9 0 15 -8t4 -17l-9 -65q-1 -11 -8 -17t-24 -13l-300 -108l263 -108q16 -7 23 -15t6 -20z" />
    <glyph glyph-name="equal" unicode="=" horiz-adv-x="574" 
d="M547 439q-1 -10 -6 -13t-17 -3h-428q-20 0 -18 21l9 62q1 8 3.5 10.5t8.5 2.5h443q6 0 10 -5.5t3 -12.5zM514 207q-1 -10 -5.5 -13t-16.5 -3h-428q-10 0 -15 6t-3 15l8 63q1 7 4 9.5t9 2.5h443q6 0 10 -5.5t3 -11.5z" />
    <glyph glyph-name="greater" unicode="&#x3e;" horiz-adv-x="566" 
d="M62.5 233.5q6.5 5.5 25.5 12.5l299 106l-264 111q-32 13 -29 34l10 66q1 16 15 16q4 0 12 -3l388 -161q9 -3 14 -10.5t4 -16.5l-11 -78q-1 -9 -5.5 -13.5t-13.5 -7.5l-433 -160q-6 -2 -9 -2q-9 0 -14.5 7.5t-4.5 18.5l9 63q1 12 7.5 17.5z" />
    <glyph glyph-name="question" unicode="?" horiz-adv-x="531" 
d="M62 604q0 6 1 9q42 67 110.5 103t153.5 36q67 0 116.5 -21t76 -57.5t26.5 -82.5q0 -15 -1 -22q-8 -53 -38 -89t-86 -82q-57 -47 -87 -83t-37 -88q-2 -10 -16 -10h-71q-8 0 -13 7.5t-4 19.5q9 64 42 108.5t89 95.5q44 41 65.5 68t26.5 61q1 4 1 12q0 33 -25.5 52.5
t-67.5 19.5q-45 0 -88.5 -26.5t-65.5 -67.5q-3 -3 -7 -3l-10 2l-82 22q-9 2 -9 16zM286 17q-1 -11 -5.5 -14t-17.5 -3h-102q-11 0 -16 6.5t-3 15.5l15 111q1 8 3.5 10t9.5 2h118q7 0 11 -5t3 -13z" />
    <glyph glyph-name="at" unicode="@" horiz-adv-x="834" 
d="M513.5 -96q-61.5 -17 -129.5 -17q-108 0 -186.5 42t-119 115.5t-40.5 165.5q0 32 4 59q15 106 78 196t162 143t218 53q87 0 160 -30t117.5 -92t44.5 -153q0 -29 -4 -54q-10 -73 -42.5 -130.5t-80.5 -89t-103 -31.5q-42 0 -64 15t-27 40l-2 2q-3 0 -10 -14
q-62 -57 -142 -57q-57 0 -93.5 40.5t-36.5 107.5q0 18 3 36q9 60 40.5 111.5t80 82t105.5 30.5q74 0 103 -60h1q7 0 13 12l7 19q1 4 3.5 3.5t4.5 -0.5h61q4 0 7 -3.5t2 -7.5l-66 -215q-8 -29 -8 -41q0 -24 26 -24q29 0 57 21.5t49.5 63t29.5 97.5q3 24 3 45q0 104 -68.5 152
t-171.5 48q-106 0 -185.5 -44.5t-127.5 -119t-61 -166.5q-4 -24 -4 -53q0 -114 72 -179t205 -65q61 0 98.5 14t85.5 44q6 2 7 2q9 0 13 -10l24 -37q2 -6 2 -7q0 -5 -3.5 -9.5t-4.5 -5.5q-45 -28 -106.5 -45zM327.5 168q14.5 -19 43.5 -19q46 0 86.5 40t52.5 94q5 18 5 38
q0 34 -17.5 53t-46.5 19q-35 0 -67 -24t-51.5 -64t-19.5 -85q0 -33 14.5 -52z" />
    <glyph glyph-name="A" unicode="A" horiz-adv-x="756" 
d="M-2 9q0 7 6 19l352 700q4 9 10.5 11.5t17.5 2.5h126q17 0 21 -23l152 -699l1 -6q0 -14 -13 -14h-121q-13 0 -16 16l-35 161q-1 5 -3 6.5t-8 1.5h-259q-6 0 -9 -2.5t-6 -8.5l-84 -166q-2 -5 -6 -6.5t-11 -1.5h-105q-10 0 -10 9zM468 298q14 0 11 16l-60 265q-1 9 -6 9
t-9 -10l-133 -265q-3 -7 -3 -10q0 -5 8 -5h192z" />
    <glyph glyph-name="B" unicode="B" horiz-adv-x="715" 
d="M46 4.5q-3 4.5 -1 15.5l99 706q1 9 5.5 12.5t12.5 3.5h257q131 0 200.5 -44t69.5 -127q0 -71 -41 -118t-114 -71q-7 -1 -7 -4.5t5 -5.5q63 -18 94.5 -54t31.5 -93q0 -123 -91 -174t-232 -51h-279q-7 0 -10 4.5zM389 427q64 0 108 34.5t44 93.5q0 42 -34 63.5t-94 21.5
h-117q-18 0 -19 -16l-25 -184l-1 -5q0 -8 10 -8h128zM334 102q71 0 122 32.5t51 101.5q0 44 -34 65.5t-93 21.5h-130q-8 0 -12 -3.5t-5 -12.5l-27 -192l-1 -5q0 -5 2.5 -6.5t8.5 -1.5h118z" />
    <glyph glyph-name="C" unicode="C" horiz-adv-x="719" 
d="M578 722.5q59 -29.5 93 -80t35 -112.5v-3q0 -14 -13 -14l-110 -7h-1q-10 0 -12 21q-5 55 -37.5 87.5t-89.5 32.5q-82 0 -133.5 -58t-74 -143t-22.5 -170q0 -89 36 -132t109 -43q66 0 115.5 32.5t84.5 100.5q4 8 13 8q5 0 8 -1l89 -23q5 -2 5 -8q0 -7 -4 -18
q-19 -44 -61.5 -90.5t-109 -79t-149.5 -32.5q-90 0 -154.5 38t-98.5 107.5t-34 163.5q0 118 43 221.5t129.5 167.5t210.5 64q74 0 133 -29.5z" />
    <glyph glyph-name="D" unicode="D" horiz-adv-x="741" 
d="M49.5 7q-5.5 7 -4.5 18l99 703q2 8 5.5 11t13.5 3h190q177 0 267 -78t90 -219q0 -138 -52.5 -238t-153.5 -153.5t-243 -53.5h-196q-10 0 -15.5 7zM275 106q144 0 213 91t69 255q0 96 -50.5 140t-152.5 44h-61q-14 0 -17 -16l-68 -498q0 -1 -0.5 -2.5t0.5 -2.5
q0 -11 12 -11h55z" />
    <glyph glyph-name="E" unicode="E" horiz-adv-x="645" 
d="M148.5 739.5q2.5 2.5 9.5 2.5h489q13 0 10 -19l-11 -75q-2 -9 -5.5 -12.5t-13.5 -3.5h-335q-8 0 -11 -2.5t-4 -10.5l-25 -180l-1 -6q0 -5 9 -5h234q8 0 10 -3t1 -10l-12 -85q-1 -6 -3.5 -8t-9.5 -2h-235q-6 0 -8.5 -3t-4.5 -11l-25 -185v-4q0 -7 6 -7h355q7 0 10 -3
t1 -11l-11 -84q-1 -7 -3.5 -9.5t-11.5 -2.5h-491q-11 0 -15 5t-2 17l100 707q1 8 3.5 10.5z" />
    <glyph glyph-name="F" unicode="F" horiz-adv-x="621" 
d="M148.5 739.5q2.5 2.5 10.5 2.5h481q6 0 8 -3t1 -11l-12 -80q-1 -9 -4 -12.5t-13 -3.5h-330q-7 0 -10 -3t-4 -13l-26 -187l-1 -5q0 -7 10 -7h240q7 0 9 -2t1 -8l-11 -85q-1 -7 -4.5 -9t-11.5 -2h-238q-6 0 -9 -3t-4 -14l-39 -278q-1 -10 -4.5 -13t-14.5 -3h-115
q-8 0 -11 2t-3 8q0 7 1 12l100 706q1 9 3.5 11.5z" />
    <glyph glyph-name="G" unicode="G" horiz-adv-x="747" 
d="M191.5 27q-63.5 37 -97 105.5t-33.5 161.5q0 125 47.5 229.5t135 166.5t203.5 62q76 0 136 -30t93.5 -79.5t34.5 -105.5q0 -9 -1.5 -12.5t-5.5 -4.5l-116 -17h-1q-4 0 -6 4.5t-4 17.5q-6 53 -41 87t-95 34q-77 0 -128 -54t-75.5 -139t-24.5 -179q0 -92 36.5 -135
t107.5 -43t119.5 41.5t66.5 98.5l7 38q2 6 2 7q0 5 -11 5h-137q-5 0 -7 2.5t-1 9.5l8 70q2 9 9 9l275 -1q10 0 13 -3.5t1 -11.5l-49 -349q-1 -12 -15 -12h-27q-8 0 -12.5 3t-6.5 11l-11 80q-1 5 -5 5q-6 0 -12 -7q-34 -44 -88.5 -73t-132.5 -29q-88 0 -151.5 37z" />
    <glyph glyph-name="H" unicode="H" horiz-adv-x="746" 
d="M247 327q-12 0 -13 -15l-42 -296q-1 -10 -5.5 -13t-16.5 -3h-111q-10 0 -13 3.5t-2 13.5l101 712q1 8 3.5 10.5t9.5 2.5h124q7 0 9 -3t0 -11l-37 -273l-1 -6q0 -8 10 -8h269q12 0 14 19l38 270q1 7 4 9.5t10 2.5h123q7 0 9 -4.5t1 -16.5l-100 -706q-1 -10 -4 -12.5
t-14 -2.5h-110q-12 0 -16 4.5t-2 15.5l41 300v2q0 5 -10 5h-269z" />
    <glyph glyph-name="I" unicode="I" horiz-adv-x="306" 
d="M279 742q15 0 12 -20l-99 -704q-1 -12 -5.5 -15t-17.5 -3h-108q-11 0 -14.5 5.5t-1.5 16.5l100 707q1 8 3.5 10.5t9.5 2.5h121z" />
    <glyph glyph-name="J" unicode="J" horiz-adv-x="437" 
d="M285.5 34.5q-51.5 -44.5 -147.5 -44.5q-55 0 -117 19q-13 5 -17 8.5t-3 10.5l23 87q2 8 5 10t11 0q14 -4 31.5 -8t35.5 -4q45 0 69.5 26t32.5 83l71 507q1 8 4 10.5t10 2.5h123q13 0 10 -20l-76 -544q-14 -99 -65.5 -143.5z" />
    <glyph glyph-name="K" unicode="K" horiz-adv-x="729" 
d="M657 9q0 -9 -13 -9h-126q-17 0 -20 17l-136 333q-1 3 -3 3q-3 0 -7.5 -5t-6.5 -7l-114 -115q-10 -9 -13 -21l-26 -189q-1 -9 -5.5 -12.5t-16.5 -3.5h-111q-17 0 -14 22l100 707q1 8 3.5 10.5t9.5 2.5h120q7 0 11 -5.5t2 -13.5l-45 -322l-1 -5q0 -1 1 -1l10 10l317 326
q6 7 12 9t19 2h113q13 0 13 -7q0 -5 -5 -10l-245 -243q-6 -7 -7.5 -10.5t-0.5 -10.5l182 -442q3 -6 3 -10z" />
    <glyph glyph-name="L" unicode="L" horiz-adv-x="619" 
d="M148.5 739q3.5 3 10.5 3h122q13 0 10 -20l-84 -599l-1 -5q0 -8 10 -8h330q14 0 12 -18l-11 -80q-1 -7 -4.5 -9.5t-11.5 -2.5h-469q-20 0 -17 22l99 705q1 9 4.5 12z" />
    <glyph glyph-name="M" unicode="M" horiz-adv-x="934" 
d="M46.5 2.5q-2.5 2.5 -2.5 9.5l1 12l100 705q1 9 3.5 11t10.5 2h170q16 0 19 -16l110 -472q1 -7 5 -7q3 0 8 9l239 470q4 9 8.5 12.5t11.5 3.5h179q14 0 11 -14l-100 -711q-1 -11 -5 -14t-16 -3h-107q-23 0 -19 22l72 515q2 6 -1 6q-1 0 -5 -7l-265 -524q-4 -7 -8 -9.5
t-12 -2.5h-73q-8 0 -12 3.5t-6 14.5l-115 515q-1 7 -5 7q-3 0 -5 -6l-73 -521q-2 -8 -5 -10.5t-11 -2.5h-93q-7 0 -9.5 2.5z" />
    <glyph glyph-name="N" unicode="N" horiz-adv-x="758" 
d="M734 742q12 0 10 -14l-101 -717q-1 -7 -4 -9t-11 -2h-84q-13 0 -21 14l-275 486q-3 6 -7 6t-6 -11l-68 -481q-2 -8 -5 -11t-13 -3h-92q-15 0 -13 19l101 710q1 8 3.5 10.5t11.5 2.5h99q9 0 14 -3.5t10 -12.5l257 -463q4 -7 10 -7q7 0 8 12l65 462q2 8 4.5 10t10.5 2h96z
" />
    <glyph glyph-name="O" unicode="O" horiz-adv-x="770" 
d="M137.5 69.5q-76.5 79.5 -76.5 222.5q0 40 6 83q16 117 68 202t132.5 130t181.5 45q136 0 212.5 -81t76.5 -226q0 -48 -6 -83q-16 -116 -67.5 -199.5t-131.5 -128t-181 -44.5q-138 0 -214.5 79.5zM505.5 163.5q54.5 67.5 74.5 210.5q7 53 7 99q0 89 -35 131.5t-106 42.5
q-93 0 -149 -70.5t-77 -216.5q-8 -56 -8 -94q0 -88 36 -129t109 -41q94 0 148.5 67.5z" />
    <glyph glyph-name="P" unicode="P" horiz-adv-x="706" 
d="M244 293q-13 0 -15 -14l-37 -263q-1 -10 -5 -13t-16 -3h-113q-17 0 -13 21l100 707q1 9 3 11.5t10 2.5h283q116 0 187.5 -49.5t71.5 -146.5q0 -80 -38 -137t-106 -86.5t-155 -29.5h-157zM423 635h-128q-9 0 -13 -4t-6 -13l-28 -204l-1 -6q0 -8 10 -8h135q70 0 113.5 40.5
t43.5 105.5q0 89 -126 89z" />
    <glyph glyph-name="Q" unicode="Q" horiz-adv-x="772" 
d="M135 578q52 85 132.5 129.5t180.5 44.5q137 0 214 -81t77 -225q0 -40 -6 -84q-29 -209 -167 -307q-11 -8 -8 -14q6 -18 36 -36.5t67 -23.5q8 -2 10.5 -4.5t1.5 -8.5l-11 -77q-1 -10 -7 -13t-24 -3q-53 0 -102.5 29.5t-83.5 90.5q-5 6 -10 6l-8 -2q-33 -9 -75 -9
q-137 0 -214 79.5t-77 222.5q0 41 6 84q16 117 68 202zM212 264q0 -87 35.5 -127.5t108.5 -40.5q94 0 149 67.5t75 211.5q8 59 8 98q0 88 -35.5 131t-107.5 43q-94 0 -149.5 -71t-75.5 -216q-8 -59 -8 -96z" />
    <glyph glyph-name="R" unicode="R" horiz-adv-x="713" 
d="M624 11q0 -11 -16 -11h-121q-16 0 -19 19l-75 292q-2 6 -4.5 8t-11.5 2h-130q-7 0 -10 -2.5t-4 -9.5l-41 -292q-1 -11 -6.5 -14t-18.5 -3h-105q-21 0 -17 22l100 707q1 8 3.5 10.5t9.5 2.5h301q118 0 182.5 -45.5t64.5 -128.5q0 -78 -44.5 -139t-119.5 -85q-9 -4 -12 -7
t-1 -8l93 -308q2 -8 2 -10zM509.5 458q42.5 35 42.5 100q0 42 -28.5 62.5t-82.5 20.5h-149q-7 0 -9.5 -3.5t-4.5 -11.5l-28 -191v-3q0 -9 9 -9h134q74 0 116.5 35z" />
    <glyph glyph-name="S" unicode="S" horiz-adv-x="665" 
d="M483 630q-38 17 -91 17q-67 0 -109.5 -30.5t-42.5 -80.5q0 -52 79 -81l147 -51q77 -27 113 -67.5t36 -98.5q0 -78 -41 -134t-112.5 -85t-161.5 -29q-101 0 -170 34.5t-105 99.5q-4 7 -4 12q0 8 8 12l65 40q8 5 14 5q9 0 19 -12q26 -34 48 -52.5t54 -28t83 -9.5
q71 0 114.5 28t43.5 85q0 27 -19.5 46.5t-64.5 35.5l-145 51q-69 23 -105 68.5t-36 102.5q0 72 40.5 127.5t109 86t149.5 30.5t143.5 -29.5t99.5 -76.5q7 -10 7 -14q0 -5 -6 -8l-76 -51q-1 -1 -4 -1q-4 0 -10 6l-8 8q-24 27 -62 44z" />
    <glyph glyph-name="T" unicode="T" horiz-adv-x="669" 
d="M102 730q1 7 4 9.5t12 2.5h568q9 0 11 -3t0 -10l-12 -84q-1 -7 -4 -9t-11 -2h-192q-9 0 -11.5 -2.5t-4.5 -10.5l-85 -606q-1 -9 -4 -12t-11 -3h-118q-10 0 -13 4t-1 15l85 603v3q0 9 -10 9h-202q-8 0 -11 2.5t-2 9.5z" />
    <glyph glyph-name="U" unicode="U" horiz-adv-x="717" 
d="M545 53.5q-81 -63.5 -220 -63.5q-134 0 -196 55.5t-62 166.5q0 21 6 75l63 441q1 9 3.5 11.5t9.5 2.5h119q7 0 11.5 -6t2.5 -14l-65 -464q-3 -24 -3 -44q0 -60 31.5 -88t94.5 -28q76 0 124 41.5t60 128.5l65 461q2 8 4 10.5t9 2.5h95q7 0 11 -6t3 -14l-65 -460
q-20 -145 -101 -208.5z" />
    <glyph glyph-name="V" unicode="V" horiz-adv-x="724" 
d="M757 733q0 -6 -2 -9l-347 -708q-5 -10 -11 -13t-17 -3h-105q-13 0 -19 3.5t-8 12.5l-145 709l-1 6q0 11 14 11h121q7 0 10.5 -4t5.5 -15l104 -536q2 -9 4 -9q4 0 7 8l256 544q3 7 7.5 9.5t11.5 2.5h102q12 0 12 -9z" />
    <glyph glyph-name="W" unicode="W" horiz-adv-x="1071" 
d="M1101 731q0 -6 -5 -19l-303 -696q-5 -10 -10.5 -13t-17.5 -3h-91q-12 0 -18.5 4t-7.5 13l-72 483q0 6 -3 6t-6 -6l-209 -484q-5 -10 -10 -13t-17 -3h-96q-12 0 -18 4t-7 14l-106 700q-1 3 -1 8q0 16 20 16h105q11 0 15.5 -4.5t6.5 -14.5l71 -495q1 -10 4 -10q4 0 7 9
l214 503q3 8 7.5 10t16.5 2h92q10 0 13.5 -4t5.5 -15l73 -501q0 -6 4 -6t7 9l212 505q3 7 7.5 9.5t15.5 2.5h86q15 0 15 -11z" />
    <glyph glyph-name="X" unicode="X" horiz-adv-x="715" 
d="M643 9q0 -9 -17 -9h-117q-10 0 -15.5 2.5t-8.5 10.5l-125 250q-4 10 -9 10q-4 0 -11 -10l-196 -253q-5 -7 -10.5 -8.5t-17.5 -1.5h-101q-16 0 -16 10t12 26l264 329q10 11 10 20q0 6 -2 10l-171 330q-3 5 -3 9q0 8 13 8h123q11 0 15.5 -3t8.5 -11l111 -226q3 -7 8 -7
q3 0 9 7l178 230q5 6 10 8t15 2h111q10 0 10 -9q0 -8 -5 -15l-256 -317q-8 -9 -8 -16q0 -6 2 -9l181 -346q8 -16 8 -21z" />
    <glyph glyph-name="Y" unicode="Y" horiz-adv-x="715" 
d="M748 732q0 -4 -3 -9l-293 -392q-7 -8 -10 -17t-5 -29l-38 -267q-1 -12 -6 -15t-19 -3h-108q-10 0 -13 4.5t-2 14.5l39 276q2 12 2 14q0 7 -5 19l-183 396q-3 6 -3 11q0 7 14 7h124q10 0 14.5 -4t9.5 -15l122 -281q3 -8 7 -8t9 8l204 288q6 8 10.5 10t15.5 2h105
q12 0 12 -10z" />
    <glyph glyph-name="Z" unicode="Z" horiz-adv-x="664" 
d="M7.5 4q-4.5 4 -3.5 14l5 35q1 10 4 17t13 18l433 535q5 6 5 7.5t-7 1.5h-326q-17 0 -15 20l11 79q2 7 4 9t8 2h538q6 0 9 -4t1 -11l-5 -39q-3 -13 -13 -28l-443 -541q-4 -4 -3 -6t4 -2h357q8 0 10.5 -2.5t1.5 -9.5l-13 -87q-1 -7 -3.5 -9.5t-11.5 -2.5h-545
q-11 0 -15.5 4z" />
    <glyph glyph-name="bracketleft" unicode="[" horiz-adv-x="306" 
d="M20.5 -158.5q-6.5 6.5 -5.5 15.5l123 874q1 7 3.5 9t13.5 2h189q6 0 9.5 -4t2.5 -9l-7 -57q-1 -4 -3.5 -5t-6.5 -1h-82q-9 0 -15 -6.5t-8 -16.5l-102 -721v-5q0 -4 1.5 -5t4.5 -1h5h82q7 0 11 -5t3 -11l-7 -50q-2 -8 -3 -9t-9 -1h-184q-9 0 -15.5 6.5z" />
    <glyph glyph-name="backslash" unicode="\" horiz-adv-x="357" 
d="M224 -20.5q-6 5.5 -7 15.5l-143 727l-2 12q0 5 3 6.5t10 1.5h60q6 0 11 -5t6 -11l146 -743v-5q0 -2 -2 -3t-7 -1h-60q-9 0 -15 5.5z" />
    <glyph glyph-name="bracketright" unicode="]" horiz-adv-x="306" 
d="M-40.5 -161q-3.5 4 -2.5 9l8 57q1 4 3 5t6 1h82q9 0 15.5 6.5t7.5 16.5l102 721q1 3 1 7q0 3 -2 3.5t-5 0.5h-5h-82q-7 0 -11 5t-3 11l7 50q2 8 3.5 9t8.5 1h185q9 0 15 -7t5 -15l-122 -874q-1 -7 -4 -9t-13 -2h-190q-6 0 -9.5 4z" />
    <glyph glyph-name="asciicircum" unicode="^" horiz-adv-x="475" 
d="M263 385q-1 5 -5 5q-7 0 -12 -12l-135 -245q-2 -4 -5 -5t-6 -0.5t-6 0.5h-61q-7 0 -10 6.5t0 14.5l201 358q9 16 21.5 24.5t25.5 8.5q15 0 26.5 -10t15.5 -29l102 -361q1 -3 1 -7t-2 -5t-8 -1h-58q-7 0 -13.5 3.5t-6.5 8.5z" />
    <glyph glyph-name="underscore" unicode="_" horiz-adv-x="535" 
d="M428 -119q-1 -10 -5 -12.5t-17 -2.5l-389 -1q-9 0 -14 6t-3 15l9 63q1 8 3.5 10.5t8.5 2.5h403q6 0 10 -5.5t3 -12.5z" />
    <glyph glyph-name="grave" unicode="`" horiz-adv-x="299" 
d="M113 750l220 -98q5 -3 8 -8.5t0 -11.5l-16 -31q-4 -8 -9 -8q-4 0 -11 3l-221 65q-16 5 -16 18l2 8l29 59q5 10 14 4z" />
    <glyph glyph-name="a" unicode="a" horiz-adv-x="558" 
d="M162 -10q-70 0 -110 35.5t-40 93.5q0 69 45.5 114t114.5 65.5t145 23.5l50 3q19 2 22 19l3 23q2 12 2 18q0 34 -21.5 52.5t-61.5 18.5q-83 0 -130 -68q-4 -6 -11 -6q-5 0 -8 1l-81 21q-9 2 -9 11q0 8 4 17q34 54 96 81t147 27q102 0 151 -38t49 -105q0 -9 -2 -29
l-50 -352q-2 -11 -4.5 -13.5t-12.5 -2.5h-85q-15 0 -15 22l2 34q0 7 -4 7q-5 0 -14 -10q-67 -63 -172 -63zM375 246v7q0 4 -2 5.5t-8 0.5l-47 -4q-67 -5 -122 -31.5t-55 -84.5q0 -28 20.5 -44.5t56.5 -16.5q28 0 54.5 9t45.5 24q43 31 47 64z" />
    <glyph glyph-name="b" unicode="b" horiz-adv-x="606" 
d="M49 0q-12 0 -17 6.5t-3 17.5l99 705q1 8 4 10.5t10 2.5h106q11 0 9 -20l-32 -232v-5q0 -5 3 -5q1 0 10 7q74 53 152 53q89 0 135 -57t46 -155q0 -84 -28.5 -161.5t-88.5 -127t-148 -49.5q-53 0 -90.5 24t-58.5 58q-4 4 -6 4q-7 0 -10 -12l-14 -47q-2 -10 -6.5 -13.5
t-14.5 -3.5h-57zM180 178q-1 -5 -1 -15q0 -40 27.5 -65.5t68.5 -25.5q56 0 93 41.5t54.5 102t17.5 118.5q0 121 -95 121q-37 0 -71 -17t-62 -46z" />
    <glyph glyph-name="c" unicode="c" horiz-adv-x="548" 
d="M467 497.5q51 -42.5 66 -106.5v-4q0 -9 -12 -10l-85 -10h-2q-4 0 -6.5 5t-4.5 12q-18 36 -36.5 52.5t-52.5 16.5q-55 0 -93.5 -38t-58 -95t-19.5 -112q0 -65 29.5 -98.5t83.5 -33.5q47 0 79.5 21.5t65.5 68.5q3 4 5.5 4t8.5 -2l61 -17q9 -1 9 -13q0 -6 -2 -10
q-32 -55 -93 -96.5t-146 -41.5q-69 0 -121.5 29t-81 81.5t-28.5 121.5q0 82 37 155.5t105 118t156 44.5q85 0 136 -42.5z" />
    <glyph glyph-name="d" unicode="d" horiz-adv-x="606" 
d="M399 0q-21 0 -18 17l6 33v4q0 5 -3 5t-11 -6q-33 -27 -69.5 -45t-85.5 -18q-85 0 -135 54.5t-50 157.5q0 86 32.5 164t92.5 126t139 48q42 0 72 -15t54 -43q7 -7 11 -7q9 0 12 24l33 229q1 14 17 14h101q13 0 10 -21l-100 -704q-1 -10 -5.5 -13.5t-16.5 -3.5h-86z
M434 402q-21 27 -45 39.5t-54 12.5q-57 0 -95.5 -40t-57 -99.5t-18.5 -116.5q0 -63 28 -93.5t76 -30.5q32 0 61 15.5t48 39.5t23 48z" />
    <glyph glyph-name="e" unicode="e" horiz-adv-x="584" 
d="M145 18.5q-53 28.5 -82.5 80.5t-29.5 120q0 83 38 156.5t107 119t155 45.5q102 0 162 -60.5t60 -167.5q0 -29 -4 -56q-2 -9 -6.5 -12.5t-15.5 -3.5h-351q-9 0 -12.5 -11t-3.5 -33q0 -54 34 -84.5t89 -30.5q43 0 79 17.5t68 54.5q5 5 10 5q3 0 11 -4l57 -28q10 -3 10 -11
q0 -4 -5 -11q-54 -63 -111.5 -88.5t-135.5 -25.5q-70 0 -123 28.5zM412 311q24 0 24 41q0 45 -27.5 75.5t-75.5 30.5q-39 0 -72.5 -20t-55 -54t-26.5 -73h233z" />
    <glyph glyph-name="f" unicode="f" horiz-adv-x="394" 
d="M408 517l-9 -66q-1 -7 -4 -9.5t-10 -2.5h-97q-9 0 -10 -14l-58 -412q-1 -9 -4 -11t-10 -2h-102q-6 0 -10.5 6t-3.5 13l58 413q2 7 -6 7h-84q-12 0 -10 17l9 63q2 6 4.5 8.5t10.5 2.5h76q7 0 11.5 5t5.5 12l9 65q9 64 48 97t106 33h95q9 0 14.5 -4.5t4.5 -12.5l-8 -61
q-1 -6 -4 -8t-10 -2h-58q-26 0 -43 -17t-21 -45l-8 -52v-2q0 -8 10 -8h96q15 0 12 -13z" />
    <glyph glyph-name="g" unicode="g" horiz-adv-x="622" 
d="M34.5 -142q-66.5 32 -66.5 89q0 38 28.5 66t76.5 46q12 5 12 9t-7 7q-21 10 -31.5 24t-10.5 36q0 32 29 55t70 37q12 5 12 10q0 3 -6 6q-36 16 -55 44t-19 66q0 61 34.5 102.5t90 62t120.5 20.5q115 0 168 -49q3 -3 7 -3q8 0 22 14q20 20 51 34t54 14q12 0 17 -4t4 -14
l-8 -56q-1 -13 -5 -17t-14 -4q-35 0 -55 -5q-16 -4 -22.5 -10t-2.5 -15q7 -21 7 -39q0 -59 -37 -98.5t-94.5 -58t-119.5 -18.5q-38 0 -82.5 -9t-44.5 -33q0 -11 14.5 -16t50.5 -7l137 -8q172 -9 172 -133q0 -95 -92 -136t-220 -41q-118 0 -184.5 32zM380.5 307
q37.5 30 37.5 86q0 36 -27 56t-77 20q-55 0 -93 -32.5t-38 -86.5q0 -34 27.5 -53.5t76.5 -19.5q56 0 93.5 30zM361 -85.5q51 22.5 51 69.5q0 24 -17.5 36t-58.5 14l-156 9q-41 -8 -71 -28.5t-30 -53.5q0 -69 146 -69q85 0 136 22.5z" />
    <glyph glyph-name="h" unicode="h" horiz-adv-x="592" 
d="M48 0q-10 0 -15 6t-4 16l100 707q1 7 4.5 10t11.5 3h99q14 0 11 -16l-35 -249v-5q0 -4 1.5 -4.5t5.5 1.5q57 39 98 55t85 16q69 0 106.5 -35t37.5 -95q0 -14 -3 -31l-51 -362q-1 -10 -5 -13.5t-15 -3.5h-93q-9 0 -13.5 6t-3.5 16l49 344q2 14 2 19q0 59 -69 59
q-36 0 -67.5 -17t-74.5 -55l-51 -356q-2 -10 -6 -13t-16 -3h-89z" />
    <glyph glyph-name="i" unicode="i" horiz-adv-x="256" 
d="M246 624q-2 -11 -7 -15t-18 -4h-96q-17 0 -13 24l14 95q2 18 17 18h106q6 0 9 -6t1 -15zM158 18q-1 -12 -5.5 -15t-17.5 -3h-87q-11 0 -16 6t-3 16l69 495q1 8 4 10.5t10 2.5h105q6 0 9 -5.5t2 -13.5z" />
    <glyph glyph-name="j" unicode="j" horiz-adv-x="256" 
d="M246 624q-2 -11 -7 -15t-18 -4h-96q-17 0 -13 24l14 95q2 18 17 18h106q6 0 9 -6t1 -15zM100 -132q-43 -38 -130 -38q-43 0 -57 4.5t-12 17.5l9 66q2 12 13 15l46 4q24 2 38.5 17.5t19.5 49.5l72 513q1 8 4 10.5t10 2.5h101q7 0 11 -6t3 -13l-73 -521q-12 -84 -55 -122z
" />
    <glyph glyph-name="k" unicode="k" horiz-adv-x="590" 
d="M532 9q0 -9 -13 -9h-109q-9 0 -13.5 5.5t-8.5 15.5l-89 222q-3 7 -6 7t-10 -5l-94 -85q-12 -10 -14 -24l-16 -118q-2 -12 -6 -15t-17 -3h-87q-22 0 -20 22l100 707q1 8 3.5 10.5t9.5 2.5h106q13 0 9 -20l-59 -429l-1 -4q0 -2 9 7l241 223q12 11 25 11h91q8 0 13 -4t5 -9
q0 -7 -7 -13l-168 -148q-7 -6 -9.5 -11.5t0.5 -13.5l133 -313q2 -6 2 -9z" />
    <glyph glyph-name="l" unicode="l" horiz-adv-x="257" 
d="M159 18q-2 -12 -6 -15t-18 -3h-87q-11 0 -16.5 6t-3.5 16l103 707q1 8 3.5 10.5t9.5 2.5h104q13 0 10 -17z" />
    <glyph glyph-name="m" unicode="m" horiz-adv-x="914" 
d="M32 6q-5 6 -3 16l69 495q2 8 4.5 10.5t8.5 2.5h105q7 0 8.5 -3t0.5 -12l-7 -45v-2q0 -8 8 -3q54 38 95 57t84 19q53 0 86.5 -25.5t42.5 -65.5q2 -4 4 -4q4 0 15 11q103 83 185 83q65 0 101 -35.5t36 -96.5q0 -19 -2 -30l-50 -361q-2 -10 -6 -13.5t-15 -3.5h-92
q-9 0 -13.5 6t-3.5 16l48 339q2 9 2 24q0 59 -64 59q-60 0 -123 -59q-9 -9 -13 -15.5t-5 -14.5l-48 -338q-1 -10 -5 -13.5t-15 -3.5h-92q-8 0 -13 6t-4 16l49 344q1 7 1 19q0 59 -64 59q-35 0 -65.5 -17t-72.5 -55l-51 -356q-1 -10 -5.5 -13t-16.5 -3h-89q-10 0 -15 6z" />
    <glyph glyph-name="n" unicode="n" horiz-adv-x="592" 
d="M29 22l69 495q2 8 4 10.5t9 2.5h106q6 0 8 -2.5t1 -9.5l-8 -53v-3q0 -4 2 -4q1 0 8 5q93 77 181 77q68 0 106 -36t38 -96q0 -9 -2 -27l-51 -364q-1 -10 -5.5 -13.5t-15.5 -3.5h-96q-16 0 -13 22l49 341l2 21q0 60 -69 60q-36 0 -67.5 -17t-75.5 -55l-51 -356
q-1 -10 -6 -13t-17 -3h-93q-16 0 -13 22z" />
    <glyph glyph-name="o" unicode="o" horiz-adv-x="599" 
d="M142.5 19q-52.5 29 -81 81t-28.5 121q0 91 41 164t110 114t150 41q70 0 122.5 -29.5t80.5 -83t28 -122.5q0 -89 -39.5 -161t-108 -113t-152.5 -41q-70 0 -122.5 29zM354 108.5q38 29.5 60 86.5t22 134q0 60 -27 92.5t-77 32.5q-47 0 -85.5 -30.5t-61 -87.5t-22.5 -134
q0 -59 27.5 -91t78.5 -32q47 0 85 29.5z" />
    <glyph glyph-name="p" unicode="p" horiz-adv-x="605" 
d="M6 -159.5q-2 5.5 0 14.5l92 659q2 10 5 13t15 3h90q11 0 15 -3.5t3 -12.5l-5 -34v-1q0 -4 3 -4q6 0 13 6q28 20 44.5 30.5t44.5 19.5t64 9q82 0 131.5 -53.5t49.5 -156.5q0 -82 -27.5 -160t-85.5 -129t-144 -51q-42 0 -75.5 15t-57.5 42q-5 5 -9 5q-10 0 -12 -21
l-26 -184q-1 -8 -3 -10t-9 -2h-107q-7 0 -9 5.5zM365.5 116q38.5 41 57 101t18.5 118q0 62 -28 91t-75 29q-33 0 -62 -14.5t-48 -36.5t-22 -44l-34 -233q20 -26 43.5 -39t54.5 -13q57 0 95.5 41z" />
    <glyph glyph-name="q" unicode="q" horiz-adv-x="606" 
d="M355 -145l25 174l1 8q0 4 -2 4q-3 0 -11 -6q-72 -45 -143 -45q-91 0 -141 57.5t-50 160.5q0 80 28.5 156.5t88 126.5t147.5 50q107 0 154 -81q3 -4 6 -4q5 0 11 14l18 44q4 10 8.5 13t13.5 3h55q14 0 14 -14q0 -6 -1 -10l-92 -658q-1 -8 -6 -10.5t-13 -2.5h-101
q-13 0 -10 20zM333.5 88.5q32.5 14.5 58.5 40.5l34 223q1 5 1 16q0 40 -26 65.5t-68 25.5q-56 0 -94 -40.5t-56 -100t-18 -116.5q0 -63 27 -95.5t75 -32.5q34 0 66.5 14.5z" />
    <glyph glyph-name="r" unicode="r" horiz-adv-x="411" 
d="M32 6.5q-5 6.5 -3 15.5l69 495q2 8 4 10.5t9 2.5h99q16 0 13 -19l-8 -49v-4q0 -6 3 -6q4 0 9 6q38 39 80 60.5t78 21.5q21 0 30.5 -3t8.5 -11l-13 -94q-1 -9 -3 -11.5t-7 -1.5q-44 4 -60 4q-28 0 -59.5 -15t-54.5 -38.5t-26 -47.5l-43 -306q-1 -10 -5.5 -13t-16.5 -3h-89
q-10 0 -15 6.5z" />
    <glyph glyph-name="s" unicode="s" horiz-adv-x="524" 
d="M84 22q-58 32 -80 83q-3 6 -3 10q0 7 8 10l57 28q6 3 11 3q8 0 15 -10q37 -71 136 -71q44 0 86 17t42 57q0 37 -71 56l-99 26q-66 17 -97 48t-31 78q0 57 33 98.5t87 63t118 21.5q71 0 121.5 -27.5t76.5 -72.5q2 -4 2 -8q0 -7 -7 -11l-56 -26q-6 -2 -7 -2q-7 0 -17 12
q-16 24 -45.5 38.5t-70.5 14.5q-44 0 -79.5 -18t-35.5 -52q0 -17 11.5 -29t43.5 -21l114 -30q64 -17 95.5 -52.5t31.5 -84.5q0 -59 -35 -100t-91 -61t-117 -20q-89 0 -147 32z" />
    <glyph glyph-name="t" unicode="t" horiz-adv-x="417" 
d="M129.5 26.5q-33.5 26.5 -33.5 76.5q0 8 2 28l42 297v2q0 9 -13 9h-69q-11 0 -10 19l9 63q1 6 3.5 7.5t10.5 1.5h74q5 0 9 4.5t5 9.5l35 154q3 12 17 12h89q7 0 9 -4.5t1 -16.5l-22 -148v-2q0 -8 9 -8h110q18 0 15 -13l-9 -68q-1 -7 -4 -9t-12 -2h-113q-12 0 -15 -14
l-37 -268q-2 -8 -2 -21q0 -25 13 -34.5t44 -9.5h58q7 0 11 -5.5t3 -12.5l-8 -52q-3 -15 -16 -18q-40 -4 -110 -4q-62 0 -95.5 26.5z" />
    <glyph glyph-name="u" unicode="u" horiz-adv-x="588" 
d="M77.5 26.5q-38.5 36.5 -38.5 97.5q0 10 2 28l50 361q2 11 6 14t15 3h92q9 0 13.5 -6t3.5 -16l-48 -340q-2 -14 -2 -19q0 -64 66 -64q64 0 141 72l52 357q2 10 6 13t16 3h90q10 0 15 -6.5t3 -15.5l-72 -495q-1 -8 -3 -10.5t-10 -2.5h-98q-16 0 -13 13l8 51v2q0 5 -3 5
t-10 -5q-50 -41 -92.5 -58.5t-87.5 -17.5q-63 0 -101.5 36.5z" />
    <glyph glyph-name="v" unicode="v" horiz-adv-x="564" 
d="M575 522.5q4 -7.5 1 -15.5l-270 -491q-5 -10 -11 -13t-17 -3h-59q-12 0 -19 6t-9 16l-132 491l-1 5q0 12 15 12h104q7 0 12.5 -5.5t6.5 -12.5l84 -329q2 -6 4 -6q6 0 12 14l174 328q7 11 19 11h73q9 0 13 -7.5z" />
    <glyph glyph-name="w" unicode="w" horiz-adv-x="811" 
d="M819.5 522.5q4.5 -7.5 0.5 -15.5l-230 -495q-4 -8 -7.5 -10t-12.5 -2h-70q-10 0 -16 5.5t-7 14.5l-55 309q-1 7 -4 7q-4 0 -9 -14l-141 -310q-3 -8 -6.5 -10t-13.5 -2h-73q-10 0 -15.5 5.5t-6.5 14.5l-92 493l-1 5q0 12 14 12h98q7 0 12.5 -5.5t5.5 -12.5l56 -319
q1 -7 4 -7q5 0 10 14l144 319q4 11 18 11h71q7 0 12.5 -5.5t5.5 -12.5l56 -319q0 -7 3 -7q5 0 10 14l142 319q7 11 20 11h64q9 0 13.5 -7.5z" />
    <glyph glyph-name="x" unicode="x" horiz-adv-x="575" 
d="M517 6q0 -4 -3.5 -5t-12.5 -1h-106q-19 0 -28 17l-93 160q-4 9 -9 9q-3 0 -6.5 -4t-8.5 -9l-142 -163q-8 -10 -34 -10h-76q-15 0 -15 10q0 9 16 28l201 218q11 11 11 18q0 4 -3 10l-135 226q-3 6 -3 10q0 10 14 10h103q11 0 17 -4.5t9 -12.5l87 -149q1 -4 5 -4t12 11
l124 149q6 7 11.5 8.5t17.5 1.5h82q13 0 13 -9q0 -8 -6 -14l-187 -210q-10 -10 -10 -18q0 -5 3 -10l143 -243q9 -15 9 -20z" />
    <glyph glyph-name="y" unicode="y" horiz-adv-x="554" 
d="M-3.5 -161.5q-11.5 3.5 -9.5 14.5l8 64q2 14 35 14h64q23 0 43.5 13.5t32.5 34t12 39.5q0 8 -1 12l-126 475q-1 4 -1 11q0 14 14 14h114q13 0 16 -11l78 -330q3 -11 8 -11q6 0 12 13l166 321q8 18 23 18h73q10 0 10 -6q0 -3 -4 -11l-285 -526q-33 -61 -66.5 -94
t-73.5 -45.5t-100 -12.5q-31 0 -42.5 3.5z" />
    <glyph glyph-name="z" unicode="z" horiz-adv-x="506" 
d="M-7 3.5q-3 3.5 -1 13.5l4 32q1 11 5.5 17.5t16.5 20.5l310 343q4 4 4 9q0 7 -13 7h-233q-8 0 -10 4t-1 14l8 53q3 13 18 13h398q12 0 10 -12l-6 -38q-1 -8 -5.5 -15t-13.5 -17l-312 -346q-4 -6 -4 -9q0 -8 11 -8h259q14 0 11 -14l-7 -56q-2 -8 -5.5 -11.5t-11.5 -3.5
h-419q-10 0 -13 3.5z" />
    <glyph glyph-name="braceleft" unicode="{" horiz-adv-x="345" 
d="M111.5 -136.5q-39.5 28.5 -39.5 76.5q0 10 1 16l30 213q1 5 1 14q0 33 -22.5 53.5t-68.5 20.5q-5 0 -9 5.5t-3 12.5l6 42q2 10 5 10q57 0 88.5 26t38.5 73l29 204q7 54 53 83t108 29h54q6 0 9.5 -4t2.5 -9l-7 -57q-1 -4 -3.5 -5t-6.5 -1h-30q-39 0 -55.5 -15t-19.5 -42
l-29 -209q-9 -51 -41 -76t-74 -30q-8 -1 -12 -3.5t0 -3.5q40 -3 67.5 -25t27.5 -69q0 -14 -1 -21l-29 -211q-1 -6 -1 -15q0 -20 12 -27.5t44 -7.5h28q6 0 10 -5t4 -11l-8 -50q-1 -7 -2.5 -8.5t-9.5 -1.5h-50q-58 0 -97.5 28.5z" />
    <glyph glyph-name="bar" unicode="|" horiz-adv-x="255" 
d="M41 -165q-10 0 -15 7t-4 18l137 973q1 9 4 11.5t12 2.5h63q8 0 13 -5.5t3 -13.5l-137 -983q-1 -6 -3.5 -8t-9.5 -2h-63z" />
    <glyph glyph-name="braceright" unicode="}" horiz-adv-x="345" 
d="M-40.5 -161q-3.5 4 -2.5 9l8 57q1 4 3 5t6 1h30q39 0 55.5 15t19.5 42l29 209q9 51 41 76t74 30q8 1 12 3.5t0 3.5q-40 3 -67.5 25.5t-27.5 70.5q0 12 1 19l29 211q1 6 1 15q0 20 -12 27.5t-44 7.5h-27q-7 0 -11 5t-3 11l7 50q2 8 3.5 9t8.5 1h50q58 0 97.5 -28t39.5 -76
q0 -11 -1 -17l-29 -213q-1 -5 -1 -15q0 -33 22 -53t67 -20q6 0 9.5 -5t2.5 -13l-6 -41q-1 -6 -2 -8.5t-3 -2.5q-56 0 -87.5 -26t-37.5 -73l-29 -204q-8 -54 -54 -83t-108 -29h-54q-6 0 -9.5 4z" />
    <glyph glyph-name="asciitilde" unicode="~" horiz-adv-x="595" 
d="M487 318.5q-37 -16.5 -78 -16.5q-30 0 -52 8.5t-52 24.5q-25 14 -41.5 20.5t-37.5 6.5q-35 0 -62.5 -17.5t-55.5 -46.5q-1 -1 -4 -1q-8 0 -11 12l-21 46q-2 6 -2 8q0 6 6 15q45 34 78.5 50.5t72.5 16.5q30 0 51 -8t53 -24q25 -14 41.5 -20.5t36.5 -6.5q61 0 105 58
q3 2 7 2q9 0 14 -14l17 -40q2 -3 2 -9q0 -9 -4 -17q-26 -31 -63 -47.5z" />
    <glyph glyph-name="uni00A0" unicode="&#xa0;" horiz-adv-x="209" 
 />
    <glyph glyph-name="exclamdown" unicode="&#xa1;" horiz-adv-x="257" 
d="M217 387q-2 -2 -9 -2h-118q-6 0 -10.5 5.5t-3.5 14.5l16 110q1 10 4 12.5t14 2.5h102q26 0 23 -25l-15 -109q-1 -7 -3 -9zM143 -163q-2 -2 -8 -2h-125q-6 0 -10.5 6t-2.5 14l95 447q2 9 5 11.5t13 2.5h44q12 0 18 -6.5t4 -16.5l-31 -447q0 -7 -2 -9z" />
    <glyph glyph-name="cent" unicode="&#xa2;" horiz-adv-x="558" 
d="M511 498q0 -9 -12 -10l-85 -10h-2q-4 0 -6.5 5t-4.5 12q-18 36 -36.5 52.5t-52.5 16.5q-55 0 -93.5 -38t-58 -95t-19.5 -112q0 -65 29.5 -98.5t83.5 -33.5q47 0 79.5 21.5t65.5 68.5q3 4 5.5 4t8.5 -2l61 -17q9 -1 9 -13q0 -6 -2 -10q-24 -40 -65 -75.5t-96 -51.5
l-14 -94q-1 -11 -5.5 -14.5t-16.5 -3.5h-45q-11 0 -16.5 7t-3.5 17l11 77q-100 5 -159.5 68t-59.5 164q0 82 37 155t104.5 118t154.5 45l11 75q2 10 5.5 13t14.5 3h49q10 0 14.5 -6t3.5 -16l-11 -83q48 -18 77.5 -54t39.5 -81v-4z" />
    <glyph glyph-name="sterling" unicode="&#xa3;" horiz-adv-x="635" 
d="M-20 6q-4 6 -3 13l12 82q1 6 2.5 7t7.5 1h25q41 -1 71 30.5t39 94.5q4 31 7 114q-2 2 -4 2h-4h-86q-4 0 -7.5 4.5t-2.5 9.5l7 55q0 3 1.5 4t3 1h2.5h70q5 0 10 4.5t5 9.5l-1 80q-1 72 34 125.5t93 81t125 27.5q73 0 133 -36.5t75 -98.5q3 -3 3 -4q0 -2 -8 -5l-91 -27
q-1 -1 -4 -1q-5 0 -8.5 4t-4.5 10q-11 25 -29.5 39t-51.5 14q-44 0 -77 -28.5t-40 -75.5q-2 -14 -2 -47q0 -25 2 -69q1 -2 9 -2h137q5 0 8.5 -4t2.5 -9l-8 -56q0 -4 -1 -5t-3 -1h-3h-124q-7 0 -11 -4.5t-5 -11.5q-3 -54 -14 -103q-17 -67 -62 -115q-1 -1 -5 -3t-3 -2.5
t5 -0.5h137q47 0 78.5 18.5t50.5 58.5q5 3 8 3l10 -2l77 -18q7 -2 11 -8.5t1 -15.5q-32 -71 -93.5 -108.5t-143.5 -37.5h-352q-7 0 -11 6z" />
    <glyph glyph-name="currency" unicode="&#xa4;" horiz-adv-x="562" 
d="M212.5 169.5q-27.5 9.5 -47.5 26.5h-2q-11 0 -17 -8l-57 -49q-3 -3 -6 -3q-5 0 -12 9l-33 38q-9 11 -2 18l57 50q8 8 7 21q-19 40 -19 76q0 16 3 32q7 56 44 109q4 3 5.5 6t-0.5 6l-43 49q-4 8 -4 11q0 5 3 8l44 38q3 3 7 3q5 0 10 -7l44 -50q1 -1 3 -1q3 0 10 7
q59 26 112 26q32 0 60.5 -9.5t48.5 -26.5q8 0 16 8l57 50q1 1 3 1q4 0 7 -7l40 -46q6 -7 2 -12l-59 -50q-6 -6 -5 -14q20 -38 20 -84q0 -35 -12 -71.5t-36 -69.5q-3 0 -4.5 -2t0.5 -4l43 -50q7 -8 3 -13l-51 -45q-1 -1 -3 -1q-4 0 -8 7l-43 50l-2 1q-4 0 -9 -8
q-60 -29 -115 -29q-32 0 -59.5 9.5zM347 270q34 21 54.5 55t20.5 71q0 42 -29 71.5t-74 29.5q-39 0 -73 -21t-54.5 -55t-20.5 -71q0 -42 29 -71.5t74 -29.5q39 0 73 21z" />
    <glyph glyph-name="yen" unicode="&#xa5;" horiz-adv-x="641" 
d="M707.5 738q4.5 -4 4.5 -9q0 -3 -3 -8l-276 -368h118q6 0 10 -5.5t3 -11.5l-5 -41q-1 -10 -5.5 -12.5t-17.5 -2.5h-133l-12 -84h137q6 0 10.5 -5.5t3.5 -11.5l-6 -41q-1 -10 -5.5 -12.5t-16.5 -2.5h-134l-15 -105q-1 -12 -6 -15t-18 -3h-103q-11 0 -16.5 6.5t-3.5 16.5
l14 100h-133q-10 0 -15 6t-4 15l6 40q2 8 4 10t8 2h145l11 83h-133q-10 0 -15 6t-3 15l5 41q2 8 4 10t8 2h122l-171 371q-3 6 -3 10q0 8 15 8h124q11 0 16 -4.5t8 -14.5l122 -281q3 -7 6 -7t6.5 5.5t4.5 6.5l202 283q6 9 10 10.5t17 1.5h97q7 0 11.5 -4z" />
    <glyph glyph-name="brokenbar" unicode="&#xa6;" horiz-adv-x="255" 
d="M124 432q-10 0 -14.5 6.5t-2.5 17.5l52 377q1 9 4 11.5t12 2.5h63q8 0 13 -5.5t3 -13.5l-54 -386q-1 -6 -3.5 -8t-9.5 -2h-63zM41 -165q-10 0 -15 7t-4 18l53 376q1 9 4 11.5t12 2.5h63q8 0 13 -5.5t4 -13.5l-54 -386q-1 -6 -3.5 -8t-9.5 -2h-63z" />
    <glyph glyph-name="section" unicode="&#xa7;" horiz-adv-x="500" 
d="M446 98q0 -51 -28.5 -91t-81 -62.5t-123.5 -22.5q-80 0 -136 31t-73 79q-6 7 -6.5 10t2.5 6l67 30l5 2q4 0 7.5 -4t5.5 -10q44 -61 127 -61q50 0 83 20.5t33 56.5q0 18 -17 33.5t-58 32.5l-78 31q-67 27 -98 60.5t-31 80.5q0 53 30 92.5t84 62.5q-38 23 -55 50t-17 59
q0 47 27 85t77 60.5t115 22.5q70 0 120.5 -29t68.5 -72q5 -7 5.5 -10.5t-3.5 -5.5l-65 -30q-2 -1 -5 -1q-10 0 -14 13q-45 53 -103 53q-46 0 -75.5 -20.5t-29.5 -52.5q0 -14 13 -27t45 -26l75 -31q72 -30 105 -65t33 -84q0 -55 -27 -91.5t-78 -63.5q74 -46 74 -111zM336 276
q26 22 30 53q1 5 1 15q0 19 -14.5 35t-53.5 32l-47 18q-40 -4 -68.5 -31.5t-28.5 -59.5q0 -17 14.5 -29.5t56.5 -31.5l52 -21q32 -2 58 20z" />
    <glyph glyph-name="dieresis" unicode="&#xa8;" horiz-adv-x="322" 
d="M180 634q-1 -10 -5 -12.5t-16 -2.5h-79q-20 0 -17 20l12 91q1 8 3.5 10t8.5 2h92q7 0 11 -5.5t3 -12.5zM363 634q-1 -10 -5 -12.5t-16 -2.5h-79q-19 0 -17 20l13 91q1 8 3 10t9 2h92q7 0 11 -5.5t2 -12.5z" />
    <glyph glyph-name="copyright" unicode="&#xa9;" horiz-adv-x="830" 
d="M208.5 33.5q-76.5 43.5 -119.5 119.5t-43 170q0 30 4 55q14 102 76.5 188t155.5 136t196 50q95 0 172 -44t120.5 -120.5t43.5 -169.5q0 -30 -4 -54q-15 -103 -77.5 -188.5t-156 -135.5t-195.5 -50q-96 0 -172.5 43.5zM542.5 105q74.5 39 124 109.5t62.5 163.5q4 34 4 50
q0 75 -32.5 131.5t-90 87t-132.5 30.5q-87 0 -161.5 -39.5t-123.5 -110.5t-62 -163q-4 -24 -4 -53q0 -75 31.5 -130.5t89.5 -85t134 -29.5q86 0 160.5 39zM563.5 552q39.5 -35 52.5 -86q2 -4 1 -5.5t-6 -2.5l-73 -10h-1q-4 0 -6.5 4.5t-2.5 11.5q-10 24 -25 37.5t-41 13.5
q-47 0 -81 -39t-44 -109q-3 -19 -3 -37q0 -48 22 -73.5t60 -25.5q35 0 62 19.5t50 55.5h1q2 0 4.5 -1.5t6.5 -3.5l47 -13q9 -2 6 -19q-27 -44 -73.5 -76.5t-111.5 -32.5q-81 0 -130 50t-49 131q0 19 3 38q9 61 41 108.5t80 73.5t105 26q66 0 105.5 -35z" />
    <glyph glyph-name="ordfeminine" unicode="&#xaa;" horiz-adv-x="393" 
d="M383 658q0 -12 -1 -19l-24 -169q-2 -10 -2 -27q0 -14 1 -24q1 -1 1 -3t-3.5 -2.5t-7 -0.5h-6.5h-52q-7 0 -10 4t-4 11v19q0 2 -2 2t-10 -10q-29 -17 -51 -24.5t-47 -7.5q-49 0 -75.5 22.5t-26.5 62.5q0 109 185 122l34 3q6 1 11 5t6 9l2 13q3 26 -9 38t-40 12
q-25 0 -44.5 -10.5t-35.5 -34.5l-2 -1q-1 0 -3.5 1t-6.5 2l-55 15q-2 1 -3 7.5t0 11.5q23 34 58 50t92 16q131 -1 131 -93zM158 471.5q12 -9.5 36 -9.5q17 0 33.5 7t28.5 19q24 14 27 33l6 41v4q0 2 -1 2.5t-3 0t-4 -0.5l-30 -2q-42 -3 -70.5 -21t-32.5 -47q-2 -17 10 -26.5
z" />
    <glyph glyph-name="guillemotleft" unicode="&#xab;" horiz-adv-x="473" 
d="M204 74l1 -4q0 -2 -4 -2h-6h-47q-4 0 -8 3.5t-4 7.5l-89 166q-4 7 -4 16t4 14l139 176q4 5 7 4.5t5 -0.5h48q6 0 10 -5t1 -11l-107 -175q-7 -12 -5 -20zM394 74l1 -4q0 -2 -4 -2h-6h-47q-4 0 -8 3.5t-4 7.5l-89 166q-4 10 -4 17q0 8 4 13l139 176q4 5 7 4.5t5 -0.5h48
q6 0 10 -5t1 -11l-107 -175q-7 -12 -5 -20z" />
    <glyph glyph-name="logicalnot" unicode="&#xac;" horiz-adv-x="574" 
d="M538.5 415.5q4.5 -5.5 3.5 -11.5l-5 -31v-2l-26 -184q-1 -9 -4 -11.5t-15 -2.5h-69q-9 0 -14 5.5t-3 13.5l18 133h-342q-20 0 -18 21l10 63q1 7 3 9.5t8 2.5h443q6 0 10.5 -5.5z" />
    <glyph glyph-name="uni00AD" unicode="&#xad;" horiz-adv-x="380" 
d="M285 232q-1 -10 -5.5 -13t-16.5 -3h-232q-10 0 -15 6t-4 15l10 63q1 7 3.5 9.5t8.5 2.5h247q6 0 10 -5.5t3 -11.5z" />
    <glyph glyph-name="registered" unicode="&#xae;" horiz-adv-x="545" 
d="M444 724q48 -28 75.5 -76.5t27.5 -107.5q0 -22 -2 -34q-9 -63 -48 -116t-96.5 -84t-121.5 -31q-60 0 -108.5 27.5t-75.5 76t-27 106.5q0 23 2 35q9 64 47.5 117t96.5 84t122 31q60 0 108 -28zM489 552q0 67 -40 106t-110 39q-83 0 -141.5 -52.5t-69.5 -138.5
q-3 -18 -3 -34q0 -66 40.5 -104t110.5 -38q82 0 140.5 52t70.5 138q2 11 2 32zM395.5 614q21.5 -16 21.5 -44q0 -45 -49 -67q-3 1 -5 -0.5t-2 -3.5l27 -101q0 -1 0.5 -2.5t-2.5 -1.5h-46q-2 0 -4 2.5t-2 5.5l-21 96q-1 1 -2 1h-5h-35q-4 0 -8 -8l-13 -94q0 -3 -1 -3h-4h-40
q-3 0 -5.5 3.5t-1.5 5.5l31 225v2h2h105q38 0 59.5 -16zM329 591h-43q-9 0 -10 -8l-6 -44q0 -1 -0.5 -1.5l-0.5 -0.5h2h48q17 0 30 10.5t13 27.5q0 16 -33 16z" />
    <glyph glyph-name="macron" unicode="&#xaf;" horiz-adv-x="361" 
d="M407 661q-1 -9 -5 -11.5t-15 -2.5h-305q-9 0 -13 6t-2 14l7 56q1 7 3 8.5t7 1.5h319q5 0 9 -5.5t3 -10.5z" />
    <glyph glyph-name="degree" unicode="&#xb0;" horiz-adv-x="464" 
d="M435.5 613q-25.5 -43 -68.5 -67.5t-94 -24.5q-67 0 -108.5 41t-41.5 106q0 54 24.5 97t67.5 67.5t95 24.5q67 0 109 -41t42 -107q0 -53 -25.5 -96zM380 711q0 31 -19 49.5t-53 18.5q-45 0 -76.5 -32t-31.5 -80q0 -32 19 -51t53 -19q42 0 71.5 27.5t35.5 71.5q1 5 1 15z
" />
    <glyph glyph-name="plusminus" unicode="&#xb1;" horiz-adv-x="574" 
d="M550.5 499.5q4.5 -5.5 3.5 -11.5l-9 -63q-1 -10 -6 -13t-17 -3h-166l-25 -177q-1 -6 -3.5 -7.5t-8.5 -1.5h-63q-10 0 -15 7.5t-3 19.5l22 159h-166q-20 0 -18 21l9 63q1 7 3.5 9.5t9.5 2.5h176l24 173q1 10 4 12t12 2h63q7 0 12.5 -5.5t3.5 -11.5l-24 -170h172
q5 0 9.5 -5.5zM499 135.5q4 -5.5 3 -12.5l-8 -62q-1 -10 -6 -13t-17 -3h-428q-20 0 -18 21l9 63q1 7 3.5 9.5t8.5 2.5h443q6 0 10 -5.5z" />
    <glyph glyph-name="uni00B2" unicode="&#xb2;" horiz-adv-x="452" 
d="M175 585q65 51 92 82.5t27 63.5q0 27 -18.5 42t-47.5 15t-57.5 -17t-51.5 -50q-3 -5 -8 -2l-57 34q-3 2 -3 4q0 4 6 11q33 43 80 66t99 23q67 0 107.5 -31.5t40.5 -88.5q0 -49 -27.5 -86t-87.5 -83l-129 -99q-4 -3 -4 -5.5t4 -2.5h200q11 0 9 -9l-8 -60q-2 -8 -10 -8
h-316q-15 0 -13 14l6 41q1 7 5.5 12t22.5 19z" />
    <glyph glyph-name="uni00B3" unicode="&#xb3;" horiz-adv-x="467" 
d="M81 789q0 4 4 8q33 28 75.5 44t87.5 16q73 0 114.5 -30t41.5 -79q0 -39 -27 -71t-68 -45q-4 -1 -4 -3t4 -3q36 -9 57.5 -35t21.5 -62q0 -71 -55.5 -111t-149.5 -40q-60 0 -100 21t-63 57q-5 8 -1 10l49 32q5 5 9 0q22 -28 49 -41t62 -13q47 0 78 23.5t31 61.5
q0 30 -24.5 46.5t-61.5 17.5h-59q-7 0 -6 7l7 54q0 5 8 5l45 1q43 0 75 23.5t32 57.5q0 22 -18.5 36.5t-50.5 14.5t-55.5 -11.5t-57.5 -36.5q-8 -5 -12 1l-36 39q-2 4 -2 5z" />
    <glyph glyph-name="acute" unicode="&#xb4;" horiz-adv-x="299" 
d="M345 680q1 -3 1 -8t-3 -7.5t-11 -4.5l-239 -66q-2 -1 -6 -1q-12 0 -15 15l-7 30q-1 3 -1 8q0 7 5 8l248 98l3 1q4 0 7.5 -4t4.5 -9z" />
    <glyph glyph-name="paragraph" unicode="&#xb6;" horiz-adv-x="589" 
d="M537 667q-4 0 -9 -4.5t-5 -9.5l-103 -730q0 -1 -0.5 -3.5t-2.5 -3.5t-5 -1h-58q-7 0 -11 5.5t-3 10.5l103 731q0 4 -1.5 4.5t-5.5 0.5h-37q-4 0 -8.5 -4.5t-5.5 -9.5l-103 -730q0 -5 -1.5 -6.5t-7.5 -1.5h-59q-6 0 -9.5 4.5t-2.5 11.5l52 373q0 3 -2 5q-82 4 -132 53
t-50 129q0 18 3 36q9 59 42.5 108t90.5 78t132 29h248q5 0 8 -4t2 -9l-7 -57q-1 -5 -2.5 -5h-5.5h-44z" />
    <glyph glyph-name="periodcentered" unicode="&#xb7;" horiz-adv-x="232" 
d="M193 322q-1 -11 -5 -13.5t-16 -2.5h-101q-10 0 -15 5.5t-3 14.5l15 104q1 8 3 9.5t8 1.5h116q6 0 9.5 -5t2.5 -12z" />
    <glyph glyph-name="cedilla" unicode="&#xb8;" horiz-adv-x="247" 
d="M160 -78q21 -21 21 -50q0 -42 -36 -65t-89 -23q-62 0 -100 27q-5 1 -7.5 4t-1.5 7l19 32q2 4 4 0t2 -5q32 -16 65 -16q27 0 44 11t20 30q2 19 -14.5 27t-60.5 9q-8 0 -11.5 3.5t-1.5 8.5l50 83h61l-28 -57q-2 -3 -3 -3h1q45 -2 66 -23z" />
    <glyph glyph-name="uni00B9" unicode="&#xb9;" horiz-adv-x="367" 
d="M258 441l-8 -53q-1 -5 -3 -6.5t-7 -1.5h-241q-6 0 -7.5 2t-0.5 7l7 55q1 4 2.5 5t6.5 1h72q6 0 7 7l41 292q0 3 -1.5 3.5t-4.5 -0.5l-71 -22l-4 -1q-4 0 -6 3t-1 7l6 39q1 6 2.5 8.5t6.5 4.5l107 50q13 6 25 6h39q8 0 7 -10l-54 -383q-1 -4 5 -4h67q10 0 8 -9z" />
    <glyph glyph-name="ordmasculine" unicode="&#xba;" horiz-adv-x="403" 
d="M372.5 711q39.5 -41 39.5 -109q0 -9 -2 -31q-11 -73 -60.5 -118t-122.5 -45q-69 0 -108.5 40.5t-39.5 106.5q0 10 2 30q10 75 61 121t122 46q69 0 108.5 -41zM202 661q-25 -31 -33 -87q-3 -19 -3 -37q0 -70 58 -70q40 0 65.5 31.5t34.5 89.5q2 22 2 31q0 73 -60 73
q-39 0 -64 -31z" />
    <glyph glyph-name="guillemotright" unicode="&#xbb;" horiz-adv-x="472" 
d="M135 270l-58 176l-1 5q0 4 8 4h48q7 0 12 -10l90 -177q3 -6 3 -14t-5 -16l-137 -166q-1 -3 -4 -3.5t-7 -0.5h-46q-8 0 -12.5 4t-2.5 9l107 169q7 13 5 20zM325 270l-58 176l-1 5q0 4 8 4h48q8 0 13 -10l89 -177q4 -8 4 -14q0 -7 -6 -16l-136 -166q-3 -4 -12 -4h-46
q-8 0 -12.5 4t-1.5 9l106 169q7 13 5 20z" />
    <glyph glyph-name="onequarter" unicode="&#xbc;" horiz-adv-x="924" 
d="M247 337l-8 -53q-1 -5 -3 -6.5t-7 -1.5h-241q-6 0 -7.5 2t-0.5 7l7 55q1 4 2.5 5t6.5 1h72q6 0 7 7l41 292q0 3 -1.5 3.5t-4.5 -0.5l-71 -22l-4 -1q-4 0 -6 3t-1 7l6 39q1 6 2.5 8.5t6.5 4.5l107 50q13 6 25 6h39q8 0 7 -10l-54 -383q-1 -4 5 -4h67q10 0 8 -9zM180 3
q-4 -5 -7.5 -6t-8.5 -1h-7l-36 1q-7 0 -11 4.5t-4 10.5q0 8 4 13l580 719q4 5 7.5 6t7 0.5t6.5 -0.5h45q8 0 12 -5t-1 -13zM704.5 465.5q3.5 1.5 11.5 1.5h69q9 0 8 -10l-39 -273q0 -4 5 -4h56q9 0 9 -8l-7 -49q-2 -5 -3.5 -6.5t-7.5 -1.5h-55q-7 0 -8 -7l-13 -98
q-1 -6 -3.5 -8t-10.5 -2h-69q-12 0 -11 11l14 100q1 4 -4 4h-197q-6 0 -8 2t-2 8l7 49q1 9 17 27l232 257q6 6 9.5 7.5zM653 180q4 0 5.5 1.5t2.5 5.5l25 175q0 5 -1 5q-2 0 -7 -7l-153 -173q-7 -7 1 -7h127z" />
    <glyph glyph-name="onehalf" unicode="&#xbd;" horiz-adv-x="978" 
d="M247 337l-8 -53q-1 -5 -3 -6.5t-7 -1.5h-241q-6 0 -7.5 2t-0.5 7l7 55q1 4 2.5 5t6.5 1h72q6 0 7 7l41 292q0 3 -1.5 3.5t-4.5 -0.5l-71 -22l-4 -1q-4 0 -6 3t-1 7l6 39q1 6 2.5 8.5t6.5 4.5l107 50q13 6 25 6h39q8 0 7 -10l-54 -383q-1 -4 5 -4h67q10 0 8 -9zM206 3
q-4 -5 -7.5 -6t-8.5 -1h-7l-36 1q-7 0 -11 4.5t-4 10.5q0 8 4 13l580 719q4 5 7.5 6t7 0.5t6.5 -0.5h45q8 0 12 -5t-1 -13zM668 201q65 51 92 82.5t27 63.5q0 27 -18.5 42t-47.5 15t-57.5 -17t-51.5 -50q-3 -5 -8 -2l-57 34q-3 2 -3 4q0 4 6 11q33 43 80 66t99 23
q67 0 107.5 -31.5t40.5 -88.5q0 -49 -27.5 -86t-87.5 -83l-129 -99q-4 -3 -4 -5.5t4 -2.5h200q11 0 9 -9l-8 -60q-2 -8 -10 -8h-316q-15 0 -13 14l6 41q1 7 5.5 12t22.5 19z" />
    <glyph glyph-name="threequarters" unicode="&#xbe;" horiz-adv-x="984" 
d="M69 684q0 4 4 8q33 28 75.5 44t87.5 16q73 0 114.5 -30t41.5 -79q0 -39 -27 -71t-68 -45q-4 -1 -4 -3t4 -3q36 -9 57.5 -35t21.5 -62q0 -71 -55.5 -111t-149.5 -40q-60 0 -100 21t-63 57q-5 8 -1 10l49 32q5 5 9 0q22 -28 49 -41t62 -13q47 0 78 23.5t31 61.5
q0 30 -24.5 46.5t-61.5 17.5h-59q-7 0 -6 7l7 54q0 5 8 5l45 1q43 0 75 23.5t32 57.5q0 22 -18.5 36.5t-50.5 14.5t-55.5 -11.5t-57.5 -36.5q-8 -5 -12 1l-36 39q-2 4 -2 5zM280 3q-4 -5 -7.5 -6t-8.5 -1h-7l-36 1q-7 0 -11 4.5t-4 10.5q0 8 4 13l580 719q4 5 7.5 6t7 0.5
t6.5 -0.5h45q8 0 12 -5t-1 -13zM759.5 465.5q3.5 1.5 11.5 1.5h69q9 0 8 -10l-39 -273q0 -4 5 -4h56q9 0 9 -8l-7 -49q-2 -5 -3.5 -6.5t-7.5 -1.5h-55q-7 0 -8 -7l-13 -98q-1 -6 -3.5 -8t-10.5 -2h-69q-12 0 -11 11l14 100q1 4 -4 4h-197q-6 0 -8 2t-2 8l7 49q1 9 17 27
l232 257q6 6 9.5 7.5zM708 180q4 0 5.5 1.5t2.5 5.5l25 175q0 5 -1 5q-2 0 -7 -7l-153 -173q-7 -7 1 -7h127z" />
    <glyph glyph-name="questiondown" unicode="&#xbf;" horiz-adv-x="527" 
d="M241 513q1 11 6 14t18 3h102q10 0 15 -6t4 -16l-16 -111q-1 -8 -3.5 -10t-9.5 -2h-118q-6 0 -10.5 5.5t-3.5 12.5zM470.5 -16q2.5 -4 2.5 -10q0 -4 -2 -10q-42 -67 -110.5 -103t-154.5 -36q-105 0 -162 44t-57 115q0 8 2 24q5 36 23 63.5t41 47t60 44.5q54 37 82.5 68
t35.5 78q2 10 16 10h71q9 0 14 -8t3 -20q-9 -60 -40 -98t-86 -79q-42 -32 -64 -56t-27 -57q-1 -4 -1 -12q0 -32 25.5 -51t67.5 -19q45 0 89 26t65 65q4 4 7 4q4 0 11 -3l82 -22q4 -1 6.5 -5z" />
    <glyph glyph-name="Agrave" unicode="&#xc0;" horiz-adv-x="756" 
d="M-2 9q0 7 6 19l352 700q4 9 10.5 11.5t17.5 2.5h126q17 0 21 -23l152 -699l1 -6q0 -14 -13 -14h-121q-13 0 -16 16l-35 161q-1 5 -3 6.5t-8 1.5h-259q-6 0 -9 -2.5t-6 -8.5l-84 -166q-2 -5 -6 -6.5t-11 -1.5h-105q-10 0 -10 9zM468 298q14 0 11 16l-60 265q-1 9 -6 9
t-9 -10l-133 -265q-3 -7 -3 -10q0 -5 8 -5h192zM361 962l220 -98q5 -3 8 -8.5t0 -11.5l-16 -31q-4 -8 -9 -8q-4 0 -11 3l-221 65q-16 5 -16 18l2 8l29 59q5 10 14 4z" />
    <glyph glyph-name="Aacute" unicode="&#xc1;" horiz-adv-x="756" 
d="M-2 9q0 7 6 19l352 700q4 9 10.5 11.5t17.5 2.5h126q17 0 21 -23l152 -699l1 -6q0 -14 -13 -14h-121q-13 0 -16 16l-35 161q-1 5 -3 6.5t-8 1.5h-259q-6 0 -9 -2.5t-6 -8.5l-84 -166q-2 -5 -6 -6.5t-11 -1.5h-105q-10 0 -10 9zM468 298q14 0 11 16l-60 265q-1 9 -6 9
t-9 -10l-133 -265q-3 -7 -3 -10q0 -5 8 -5h192zM600 892q1 -3 1 -8t-3 -7.5t-11 -4.5l-239 -66q-2 -1 -6 -1q-12 0 -15 15l-7 30q-1 3 -1 8q0 7 5 8l248 98l3 1q4 0 7.5 -4t4.5 -9z" />
    <glyph glyph-name="Acircumflex" unicode="&#xc2;" horiz-adv-x="756" 
d="M-2 9q0 7 6 19l352 700q4 9 10.5 11.5t17.5 2.5h126q17 0 21 -23l152 -699l1 -6q0 -14 -13 -14h-121q-13 0 -16 16l-35 161q-1 5 -3 6.5t-8 1.5h-259q-6 0 -9 -2.5t-6 -8.5l-84 -166q-2 -5 -6 -6.5t-11 -1.5h-105q-10 0 -10 9zM468 298q14 0 11 16l-60 265q-1 9 -6 9
t-9 -10l-133 -265q-3 -7 -3 -10q0 -5 8 -5h192zM478 891q-8 8 -10 8q-3 0 -7.5 -4t-9.5 -10l-62 -52q-5 -4 -8.5 -5t-6.5 -0.5t-6 0.5h-72q-4 0 -7 2.5t-3 5.5q0 5 5 10l121 105q7 5 13.5 7t17.5 2h61q10 0 15 -5.5t6 -7.5l91 -107q2 -2 5.5 -6t2.5 -5t-7 -1h-77
q-12 0 -21 11z" />
    <glyph glyph-name="Atilde" unicode="&#xc3;" horiz-adv-x="756" 
d="M-2 9q0 7 6 19l352 700q4 9 10.5 11.5t17.5 2.5h126q17 0 21 -23l152 -699l1 -6q0 -14 -13 -14h-121q-13 0 -16 16l-35 161q-1 5 -3 6.5t-8 1.5h-259q-6 0 -9 -2.5t-6 -8.5l-84 -166q-2 -5 -6 -6.5t-11 -1.5h-105q-10 0 -10 9zM468 298q14 0 11 16l-60 265q-1 9 -6 9
t-9 -10l-133 -265q-3 -7 -3 -10q0 -5 8 -5h192zM534 849q-20 0 -36.5 4t-38.5 11q-37 13 -61 13q-22 0 -36 -6.5t-34 -20.5q-2 -1 -6 -1q-9 0 -12 15l-8 37q-2 8 -2 10q0 7 6 14q24 14 43 21t44 7q20 0 36.5 -4t44.5 -13q37 -13 60 -13q35 0 70 27q2 1 7 1q12 0 14 -15
l5 -44q1 -2 1 -7q0 -7 -9 -16q-47 -20 -88 -20z" />
    <glyph glyph-name="Adieresis" unicode="&#xc4;" horiz-adv-x="756" 
d="M-2 9q0 7 6 19l352 700q4 9 10.5 11.5t17.5 2.5h126q17 0 21 -23l152 -699l1 -6q0 -14 -13 -14h-121q-13 0 -16 16l-35 161q-1 5 -3 6.5t-8 1.5h-259q-6 0 -9 -2.5t-6 -8.5l-84 -166q-2 -5 -6 -6.5t-11 -1.5h-105q-10 0 -10 9zM468 298q14 0 11 16l-60 265q-1 9 -6 9
t-9 -10l-133 -265q-3 -7 -3 -10q0 -5 8 -5h192zM424 846q-1 -10 -5 -12.5t-16 -2.5h-79q-20 0 -17 20l12 91q1 8 3.5 10t8.5 2h92q7 0 11 -5.5t3 -12.5zM607 846q-1 -10 -5 -12.5t-16 -2.5h-79q-19 0 -17 20l13 91q1 8 3 10t9 2h92q7 0 11 -5.5t2 -12.5z" />
    <glyph glyph-name="Aring" unicode="&#xc5;" horiz-adv-x="756" 
d="M-2 9q0 7 6 19l352 700q4 9 10.5 11.5t17.5 2.5h126q17 0 21 -23l152 -699l1 -6q0 -14 -13 -14h-121q-13 0 -16 16l-35 161q-1 5 -3 6.5t-8 1.5h-259q-6 0 -9 -2.5t-6 -8.5l-84 -166q-2 -5 -6 -6.5t-11 -1.5h-105q-10 0 -10 9zM468 298q14 0 11 16l-60 265q-1 9 -6 9
t-9 -10l-133 -265q-3 -7 -3 -10q0 -5 8 -5h192zM548.5 802q-16.5 -27 -44 -43t-59.5 -16q-43 0 -71 29t-28 73q0 11 1 17q5 41 39.5 69.5t78.5 28.5q43 0 71.5 -28.5t28.5 -70.5q0 -32 -16.5 -59zM496.5 893.5q-11.5 10.5 -29.5 10.5q-24 0 -44 -17.5t-24 -41.5
q-2 -19 10.5 -33t31.5 -14q25 0 46 21.5t21 47.5q0 16 -11.5 26.5z" />
    <glyph glyph-name="AE" unicode="&#xc6;" horiz-adv-x="1053" 
d="M984.5 105q4.5 -5 3.5 -13l-11 -80q-2 -7 -4.5 -9.5t-11.5 -2.5h-476q-10 0 -15 6t-4 16l23 157q0 5 -1 5.5t-6 0.5h-224q-5 0 -10 -3.5t-7 -8.5l-113 -165q-4 -5 -8 -6.5t-12 -1.5h-96q-5 0 -9 4t-4 10t5 14l479 700q6 9 11 11.5t15 2.5h543q7 0 10.5 -5.5t2.5 -13.5
l-11 -76q-2 -9 -5 -12t-13 -3h-317q-8 0 -14.5 -5t-7.5 -13l-24 -175l-1 -5q0 -4 3 -5t7 -1h219q7 0 12 -5.5t4 -12.5l-12 -82q-1 -5 -3 -6.5t-9 -1.5h-221q-7 0 -12 -5t-6 -11l-26 -186q-1 -7 -0.5 -7.5t6.5 -0.5h338q8 0 12.5 -5zM501 304q6 6 7 13l40 284q2 15 -5 15
q-10 0 -23 -21l-198 -285q-7 -8 -7 -10t6 -2h167q7 0 13 6z" />
    <glyph glyph-name="Ccedilla" unicode="&#xc7;" horiz-adv-x="719" 
d="M706 527q0 -14 -13 -14l-110 -7h-1q-10 0 -12 21q-5 55 -37.5 87.5t-89.5 32.5q-82 0 -133.5 -58t-74 -143t-22.5 -170q0 -89 36 -132t109 -43q66 0 115.5 32.5t84.5 100.5q4 8 13 8q5 0 8 -1l89 -23q5 -2 5 -8q0 -7 -4 -18q-18 -42 -57.5 -86.5t-101.5 -77.5t-139 -37
l-21 -43q-1 -3 -3 -3h1q45 -2 66 -23t21 -50q0 -42 -36 -65t-89 -23q-62 0 -100 27q-5 1 -7.5 4t-1.5 7l19 32q2 4 4 0t2 -5q32 -16 65 -16q27 0 44 11t20 30q2 19 -14.5 27t-60.5 9q-8 0 -11.5 3.5t-1.5 8.5l42 70q-118 13 -182.5 94.5t-64.5 212.5q0 118 43 221.5
t129.5 167.5t210.5 64q74 0 133 -29.5t93 -80t35 -112.5v-3z" />
    <glyph glyph-name="Egrave" unicode="&#xc8;" horiz-adv-x="645" 
d="M148.5 739.5q2.5 2.5 9.5 2.5h489q13 0 10 -19l-11 -75q-2 -9 -5.5 -12.5t-13.5 -3.5h-335q-8 0 -11 -2.5t-4 -10.5l-25 -180l-1 -6q0 -5 9 -5h234q8 0 10 -3t1 -10l-12 -85q-1 -6 -3.5 -8t-9.5 -2h-235q-6 0 -8.5 -3t-4.5 -11l-25 -185v-4q0 -7 6 -7h355q7 0 10 -3
t1 -11l-11 -84q-1 -7 -3.5 -9.5t-11.5 -2.5h-491q-11 0 -15 5t-2 17l100 707q1 8 3.5 10.5zM326 962l220 -98q5 -3 8 -8.5t0 -11.5l-16 -31q-4 -8 -9 -8q-4 0 -11 3l-221 65q-16 5 -16 18l2 8l29 59q5 10 14 4z" />
    <glyph glyph-name="Eacute" unicode="&#xc9;" horiz-adv-x="645" 
d="M148.5 739.5q2.5 2.5 9.5 2.5h489q13 0 10 -19l-11 -75q-2 -9 -5.5 -12.5t-13.5 -3.5h-335q-8 0 -11 -2.5t-4 -10.5l-25 -180l-1 -6q0 -5 9 -5h234q8 0 10 -3t1 -10l-12 -85q-1 -6 -3.5 -8t-9.5 -2h-235q-6 0 -8.5 -3t-4.5 -11l-25 -185v-4q0 -7 6 -7h355q7 0 10 -3
t1 -11l-11 -84q-1 -7 -3.5 -9.5t-11.5 -2.5h-491q-11 0 -15 5t-2 17l100 707q1 8 3.5 10.5zM565 892q1 -3 1 -8t-3 -7.5t-11 -4.5l-239 -66q-2 -1 -6 -1q-12 0 -15 15l-7 30q-1 3 -1 8q0 7 5 8l248 98l3 1q4 0 7.5 -4t4.5 -9z" />
    <glyph glyph-name="Ecircumflex" unicode="&#xca;" horiz-adv-x="645" 
d="M148.5 739.5q2.5 2.5 9.5 2.5h489q13 0 10 -19l-11 -75q-2 -9 -5.5 -12.5t-13.5 -3.5h-335q-8 0 -11 -2.5t-4 -10.5l-25 -180l-1 -6q0 -5 9 -5h234q8 0 10 -3t1 -10l-12 -85q-1 -6 -3.5 -8t-9.5 -2h-235q-6 0 -8.5 -3t-4.5 -11l-25 -185v-4q0 -7 6 -7h355q7 0 10 -3
t1 -11l-11 -84q-1 -7 -3.5 -9.5t-11.5 -2.5h-491q-11 0 -15 5t-2 17l100 707q1 8 3.5 10.5zM443 891q-8 8 -10 8q-3 0 -7.5 -4t-9.5 -10l-62 -52q-5 -4 -8.5 -5t-6.5 -0.5t-6 0.5h-72q-4 0 -7 2.5t-3 5.5q0 5 5 10l121 105q7 5 13.5 7t17.5 2h61q10 0 15 -5.5t6 -7.5
l91 -107q2 -2 5.5 -6t2.5 -5t-7 -1h-77q-12 0 -21 11z" />
    <glyph glyph-name="Edieresis" unicode="&#xcb;" horiz-adv-x="645" 
d="M148.5 739.5q2.5 2.5 9.5 2.5h489q13 0 10 -19l-11 -75q-2 -9 -5.5 -12.5t-13.5 -3.5h-335q-8 0 -11 -2.5t-4 -10.5l-25 -180l-1 -6q0 -5 9 -5h234q8 0 10 -3t1 -10l-12 -85q-1 -6 -3.5 -8t-9.5 -2h-235q-6 0 -8.5 -3t-4.5 -11l-25 -185v-4q0 -7 6 -7h355q7 0 10 -3
t1 -11l-11 -84q-1 -7 -3.5 -9.5t-11.5 -2.5h-491q-11 0 -15 5t-2 17l100 707q1 8 3.5 10.5zM389 846q-1 -10 -5 -12.5t-16 -2.5h-79q-20 0 -17 20l12 91q1 8 3.5 10t8.5 2h92q7 0 11 -5.5t3 -12.5zM572 846q-1 -10 -5 -12.5t-16 -2.5h-79q-19 0 -17 20l13 91q1 8 3 10t9 2
h92q7 0 11 -5.5t2 -12.5z" />
    <glyph glyph-name="Igrave" unicode="&#xcc;" horiz-adv-x="306" 
d="M279 742q15 0 12 -20l-99 -704q-1 -12 -5.5 -15t-17.5 -3h-108q-11 0 -14.5 5.5t-1.5 16.5l100 707q1 8 3.5 10.5t9.5 2.5h121zM141 962l220 -98q5 -3 8 -8.5t0 -11.5l-16 -31q-4 -8 -9 -8q-4 0 -11 3l-221 65q-16 5 -16 18l2 8l29 59q5 10 14 4z" />
    <glyph glyph-name="Iacute" unicode="&#xcd;" horiz-adv-x="306" 
d="M279 742q15 0 12 -20l-99 -704q-1 -12 -5.5 -15t-17.5 -3h-108q-11 0 -14.5 5.5t-1.5 16.5l100 707q1 8 3.5 10.5t9.5 2.5h121zM380 892q1 -3 1 -8t-3 -7.5t-11 -4.5l-239 -66q-2 -1 -6 -1q-12 0 -15 15l-7 30q-1 3 -1 8q0 7 5 8l248 98l3 1q4 0 7.5 -4t4.5 -9z" />
    <glyph glyph-name="Icircumflex" unicode="&#xce;" horiz-adv-x="306" 
d="M279 742q15 0 12 -20l-99 -704q-1 -12 -5.5 -15t-17.5 -3h-108q-11 0 -14.5 5.5t-1.5 16.5l100 707q1 8 3.5 10.5t9.5 2.5h121zM258 891q-8 8 -10 8q-3 0 -7.5 -4t-9.5 -10l-62 -52q-5 -4 -8.5 -5t-6.5 -0.5t-6 0.5h-72q-4 0 -7 2.5t-3 5.5q0 5 5 10l121 105q7 5 13.5 7
t17.5 2h61q10 0 15 -5.5t6 -7.5l91 -107q2 -2 5.5 -6t2.5 -5t-7 -1h-77q-12 0 -21 11z" />
    <glyph glyph-name="Idieresis" unicode="&#xcf;" horiz-adv-x="306" 
d="M279 742q15 0 12 -20l-99 -704q-1 -12 -5.5 -15t-17.5 -3h-108q-11 0 -14.5 5.5t-1.5 16.5l100 707q1 8 3.5 10.5t9.5 2.5h121zM204 846q-1 -10 -5 -12.5t-16 -2.5h-79q-20 0 -17 20l12 91q1 8 3.5 10t8.5 2h92q7 0 11 -5.5t3 -12.5zM387 846q-1 -10 -5 -12.5t-16 -2.5
h-79q-19 0 -17 20l13 91q1 8 3 10t9 2h92q7 0 11 -5.5t2 -12.5z" />
    <glyph glyph-name="Eth" unicode="&#xd0;" horiz-adv-x="716" 
d="M594 664q90 -78 90 -219q0 -138 -52.5 -238t-153.5 -153.5t-243 -53.5h-196q-10 0 -15.5 7t-4.5 18l41 294h-2q-21 0 -19 23l9 62q2 8 4 10.5t9 2.5h13l44 311q2 8 5.5 11t13.5 3h190q177 0 267 -78zM462 197q69 91 69 255q0 96 -50.5 140t-152.5 44h-61q-14 0 -17 -16
l-28 -203h176q7 0 11 -6t2 -13l-8 -62q-1 -11 -6 -14t-18 -3h-170l-27 -197q0 -1 -0.5 -2.5t0.5 -2.5q0 -11 12 -11h55q144 0 213 91z" />
    <glyph glyph-name="Ntilde" unicode="&#xd1;" horiz-adv-x="758" 
d="M734 742q12 0 10 -14l-101 -717q-1 -7 -4 -9t-11 -2h-84q-13 0 -21 14l-275 486q-3 6 -7 6t-6 -11l-68 -481q-2 -8 -5 -11t-13 -3h-92q-15 0 -13 19l101 710q1 8 3.5 10.5t11.5 2.5h99q9 0 14 -3.5t10 -12.5l257 -463q4 -7 10 -7q7 0 8 12l65 462q2 8 4.5 10t10.5 2h96z
M546 849q-20 0 -36.5 4t-38.5 11q-37 13 -61 13q-22 0 -36 -6.5t-34 -20.5q-2 -1 -6 -1q-9 0 -12 15l-8 37q-2 8 -2 10q0 7 6 14q24 14 43 21t44 7q20 0 36.5 -4t44.5 -13q37 -13 60 -13q35 0 70 27q2 1 7 1q12 0 14 -15l5 -44q1 -2 1 -7q0 -7 -9 -16q-47 -20 -88 -20z" />
    <glyph glyph-name="Ograve" unicode="&#xd2;" horiz-adv-x="770" 
d="M137.5 69.5q-76.5 79.5 -76.5 222.5q0 40 6 83q16 117 68 202t132.5 130t181.5 45q136 0 212.5 -81t76.5 -226q0 -48 -6 -83q-16 -116 -67.5 -199.5t-131.5 -128t-181 -44.5q-138 0 -214.5 79.5zM505.5 163.5q54.5 67.5 74.5 210.5q7 53 7 99q0 89 -35 131.5t-106 42.5
q-93 0 -149 -70.5t-77 -216.5q-8 -56 -8 -94q0 -88 36 -129t109 -41q94 0 148.5 67.5zM372 962l220 -98q5 -3 8 -8.5t0 -11.5l-16 -31q-4 -8 -9 -8q-4 0 -11 3l-221 65q-16 5 -16 18l2 8l29 59q5 10 14 4z" />
    <glyph glyph-name="Oacute" unicode="&#xd3;" horiz-adv-x="770" 
d="M137.5 69.5q-76.5 79.5 -76.5 222.5q0 40 6 83q16 117 68 202t132.5 130t181.5 45q136 0 212.5 -81t76.5 -226q0 -48 -6 -83q-16 -116 -67.5 -199.5t-131.5 -128t-181 -44.5q-138 0 -214.5 79.5zM505.5 163.5q54.5 67.5 74.5 210.5q7 53 7 99q0 89 -35 131.5t-106 42.5
q-93 0 -149 -70.5t-77 -216.5q-8 -56 -8 -94q0 -88 36 -129t109 -41q94 0 148.5 67.5zM611 892q1 -3 1 -8t-3 -7.5t-11 -4.5l-239 -66q-2 -1 -6 -1q-12 0 -15 15l-7 30q-1 3 -1 8q0 7 5 8l248 98l3 1q4 0 7.5 -4t4.5 -9z" />
    <glyph glyph-name="Ocircumflex" unicode="&#xd4;" horiz-adv-x="770" 
d="M137.5 69.5q-76.5 79.5 -76.5 222.5q0 40 6 83q16 117 68 202t132.5 130t181.5 45q136 0 212.5 -81t76.5 -226q0 -48 -6 -83q-16 -116 -67.5 -199.5t-131.5 -128t-181 -44.5q-138 0 -214.5 79.5zM505.5 163.5q54.5 67.5 74.5 210.5q7 53 7 99q0 89 -35 131.5t-106 42.5
q-93 0 -149 -70.5t-77 -216.5q-8 -56 -8 -94q0 -88 36 -129t109 -41q94 0 148.5 67.5zM489 891q-8 8 -10 8q-3 0 -7.5 -4t-9.5 -10l-62 -52q-5 -4 -8.5 -5t-6.5 -0.5t-6 0.5h-72q-4 0 -7 2.5t-3 5.5q0 5 5 10l121 105q7 5 13.5 7t17.5 2h61q10 0 15 -5.5t6 -7.5l91 -107
q2 -2 5.5 -6t2.5 -5t-7 -1h-77q-12 0 -21 11z" />
    <glyph glyph-name="Otilde" unicode="&#xd5;" horiz-adv-x="770" 
d="M137.5 69.5q-76.5 79.5 -76.5 222.5q0 40 6 83q16 117 68 202t132.5 130t181.5 45q136 0 212.5 -81t76.5 -226q0 -48 -6 -83q-16 -116 -67.5 -199.5t-131.5 -128t-181 -44.5q-138 0 -214.5 79.5zM505.5 163.5q54.5 67.5 74.5 210.5q7 53 7 99q0 89 -35 131.5t-106 42.5
q-93 0 -149 -70.5t-77 -216.5q-8 -56 -8 -94q0 -88 36 -129t109 -41q94 0 148.5 67.5zM545 849q-20 0 -36.5 4t-38.5 11q-37 13 -61 13q-22 0 -36 -6.5t-34 -20.5q-2 -1 -6 -1q-9 0 -12 15l-8 37q-2 8 -2 10q0 7 6 14q24 14 43 21t44 7q20 0 36.5 -4t44.5 -13q37 -13 60 -13
q35 0 70 27q2 1 7 1q12 0 14 -15l5 -44q1 -2 1 -7q0 -7 -9 -16q-47 -20 -88 -20z" />
    <glyph glyph-name="Odieresis" unicode="&#xd6;" horiz-adv-x="770" 
d="M137.5 69.5q-76.5 79.5 -76.5 222.5q0 40 6 83q16 117 68 202t132.5 130t181.5 45q136 0 212.5 -81t76.5 -226q0 -48 -6 -83q-16 -116 -67.5 -199.5t-131.5 -128t-181 -44.5q-138 0 -214.5 79.5zM505.5 163.5q54.5 67.5 74.5 210.5q7 53 7 99q0 89 -35 131.5t-106 42.5
q-93 0 -149 -70.5t-77 -216.5q-8 -56 -8 -94q0 -88 36 -129t109 -41q94 0 148.5 67.5zM435 846q-1 -10 -5 -12.5t-16 -2.5h-79q-20 0 -17 20l12 91q1 8 3.5 10t8.5 2h92q7 0 11 -5.5t3 -12.5zM618 846q-1 -10 -5 -12.5t-16 -2.5h-79q-19 0 -17 20l13 91q1 8 3 10t9 2h92
q7 0 11 -5.5t2 -12.5z" />
    <glyph glyph-name="multiply" unicode="&#xd7;" horiz-adv-x="564" 
d="M540 521l-175 -153l127 -148q5 -5 5 -10q0 -4 -4 -8l-51 -45q-5 -4 -10 -4t-9.5 3.5t-9.5 8.5l-120 140l-174 -152q-3 -3 -6 -3q-4 0 -12 8l-38 45q-7 7 -7 15t8 15l165 145l-124 144q-7 9 -7 14t6 11l51 45q4 3 8 3q7 0 12 -7l126 -147l171 150q5 4 11 4t13 -9l39 -45
q11 -13 5 -20z" />
    <glyph glyph-name="Oslash" unicode="&#xd8;" horiz-adv-x="752" 
d="M801 689q0 -4 -4 -8l-96 -85q28 -65 28 -151q0 -38 -6 -83q-16 -116 -67.5 -199.5t-131.5 -128t-181 -44.5q-140 0 -215 83l-75 -73q-7 -7 -14 -7q-8 0 -17 11l-26 30q-10 12 -10 17t5 10l90 80q-29 64 -29 151q0 40 6 83q16 117 68 202t132.5 130t181.5 45
q69 0 123.5 -22.5t91.5 -64.5l82 79q5 5 10 5q7 0 12 -7l36 -41q6 -8 6 -12zM208 302q0 -30 4 -50l345 328q-31 67 -121 67q-93 0 -148 -70t-76 -217q-4 -27 -4 -58zM573 432q0 32 -5 52l-343 -326q18 -32 48 -46.5t75 -14.5q93 0 147 67t74 210q4 28 4 58z" />
    <glyph glyph-name="Ugrave" unicode="&#xd9;" horiz-adv-x="717" 
d="M545 53.5q-81 -63.5 -220 -63.5q-134 0 -196 55.5t-62 166.5q0 21 6 75l63 441q1 9 3.5 11.5t9.5 2.5h119q7 0 11.5 -6t2.5 -14l-65 -464q-3 -24 -3 -44q0 -60 31.5 -88t94.5 -28q76 0 124 41.5t60 128.5l65 461q2 8 4 10.5t9 2.5h95q7 0 11 -6t3 -14l-65 -460
q-20 -145 -101 -208.5zM356 962l220 -98q5 -3 8 -8.5t0 -11.5l-16 -31q-4 -8 -9 -8q-4 0 -11 3l-221 65q-16 5 -16 18l2 8l29 59q5 10 14 4z" />
    <glyph glyph-name="Uacute" unicode="&#xda;" horiz-adv-x="717" 
d="M545 53.5q-81 -63.5 -220 -63.5q-134 0 -196 55.5t-62 166.5q0 21 6 75l63 441q1 9 3.5 11.5t9.5 2.5h119q7 0 11.5 -6t2.5 -14l-65 -464q-3 -24 -3 -44q0 -60 31.5 -88t94.5 -28q76 0 124 41.5t60 128.5l65 461q2 8 4 10.5t9 2.5h95q7 0 11 -6t3 -14l-65 -460
q-20 -145 -101 -208.5zM595 892q1 -3 1 -8t-3 -7.5t-11 -4.5l-239 -66q-2 -1 -6 -1q-12 0 -15 15l-7 30q-1 3 -1 8q0 7 5 8l248 98l3 1q4 0 7.5 -4t4.5 -9z" />
    <glyph glyph-name="Ucircumflex" unicode="&#xdb;" horiz-adv-x="717" 
d="M545 53.5q-81 -63.5 -220 -63.5q-134 0 -196 55.5t-62 166.5q0 21 6 75l63 441q1 9 3.5 11.5t9.5 2.5h119q7 0 11.5 -6t2.5 -14l-65 -464q-3 -24 -3 -44q0 -60 31.5 -88t94.5 -28q76 0 124 41.5t60 128.5l65 461q2 8 4 10.5t9 2.5h95q7 0 11 -6t3 -14l-65 -460
q-20 -145 -101 -208.5zM473 891q-8 8 -10 8q-3 0 -7.5 -4t-9.5 -10l-62 -52q-5 -4 -8.5 -5t-6.5 -0.5t-6 0.5h-72q-4 0 -7 2.5t-3 5.5q0 5 5 10l121 105q7 5 13.5 7t17.5 2h61q10 0 15 -5.5t6 -7.5l91 -107q2 -2 5.5 -6t2.5 -5t-7 -1h-77q-12 0 -21 11z" />
    <glyph glyph-name="Udieresis" unicode="&#xdc;" horiz-adv-x="717" 
d="M545 53.5q-81 -63.5 -220 -63.5q-134 0 -196 55.5t-62 166.5q0 21 6 75l63 441q1 9 3.5 11.5t9.5 2.5h119q7 0 11.5 -6t2.5 -14l-65 -464q-3 -24 -3 -44q0 -60 31.5 -88t94.5 -28q76 0 124 41.5t60 128.5l65 461q2 8 4 10.5t9 2.5h95q7 0 11 -6t3 -14l-65 -460
q-20 -145 -101 -208.5zM419 846q-1 -10 -5 -12.5t-16 -2.5h-79q-20 0 -17 20l12 91q1 8 3.5 10t8.5 2h92q7 0 11 -5.5t3 -12.5zM602 846q-1 -10 -5 -12.5t-16 -2.5h-79q-19 0 -17 20l13 91q1 8 3 10t9 2h92q7 0 11 -5.5t2 -12.5z" />
    <glyph glyph-name="Yacute" unicode="&#xdd;" horiz-adv-x="715" 
d="M748 732q0 -4 -3 -9l-293 -392q-7 -8 -10 -17t-5 -29l-38 -267q-1 -12 -6 -15t-19 -3h-108q-10 0 -13 4.5t-2 14.5l39 276q2 12 2 14q0 7 -5 19l-183 396q-3 6 -3 11q0 7 14 7h124q10 0 14.5 -4t9.5 -15l122 -281q3 -8 7 -8t9 8l204 288q6 8 10.5 10t15.5 2h105
q12 0 12 -10zM589 892q1 -3 1 -8t-3 -7.5t-11 -4.5l-239 -66q-2 -1 -6 -1q-12 0 -15 15l-7 30q-1 3 -1 8q0 7 5 8l248 98l3 1q4 0 7.5 -4t4.5 -9z" />
    <glyph glyph-name="Thorn" unicode="&#xde;" horiz-adv-x="712" 
d="M591 214.5q-79 -54.5 -201 -54.5h-165q-6 0 -10 -4.5t-5 -9.5l-18 -130q-1 -10 -5 -13t-16 -3h-108q-9 0 -14.5 6t-3.5 15l100 708q1 8 3.5 10.5t9.5 2.5h119q7 0 11.5 -6t2.5 -14l-17 -122q-1 -4 0.5 -4.5t4.5 -0.5h149q116 0 187.5 -48t71.5 -140q0 -22 -2 -34
q-15 -104 -94 -158.5zM537 406q0 82 -127 82h-132q-9 0 -15 -5.5t-7 -13.5l-27 -189q-1 -3 -1 -8q0 -3 2.5 -4t6.5 -1h143q64 0 106 32t50 90q1 6 1 17z" />
    <glyph glyph-name="germandbls" unicode="&#xdf;" horiz-adv-x="635" 
d="M530 705.5q47 -36.5 47 -97.5q0 -6 -2 -22q-7 -50 -40.5 -79.5t-104.5 -61.5q-26 -11 -37 -20t-13 -23q-1 -9 4.5 -14t26.5 -15q54 -20 90 -40t61.5 -54.5t25.5 -85.5q0 -19 -2 -30q-12 -84 -75 -128.5t-156 -44.5q-39 0 -71.5 8.5t-51.5 23.5q-7 2 -9.5 7t-0.5 10l39 60
q3 3 5 3q4 0 8 -8q21 -9 37.5 -13.5t39.5 -4.5q47 0 79 23.5t38 64.5q1 4 1 12q0 21 -11.5 34.5t-27 22t-53.5 25.5q-45 16 -71.5 41.5t-26.5 68.5q0 42 21 71t67 61q43 25 64 43.5t26 50.5q4 28 -15 44.5t-59 16.5q-54 0 -90.5 -33.5t-44.5 -90.5l-73 -517v-5q0 -6 -2 -7.5
t-9 -1.5h-102q-6 0 -10.5 6t-3.5 13l56 394q1 5 0 6t-5 1h-42q-7 0 -11.5 5t-3.5 12l9 63q1 6 4 8.5t11 2.5h38q12 0 16 21q15 93 83 151.5t189 58.5q91 0 138 -36.5z" />
    <glyph glyph-name="agrave" unicode="&#xe0;" horiz-adv-x="558" 
d="M162 -10q-70 0 -110 35.5t-40 93.5q0 69 45.5 114t114.5 65.5t145 23.5l50 3q19 2 22 19l3 23q2 12 2 18q0 34 -21.5 52.5t-61.5 18.5q-83 0 -130 -68q-4 -6 -11 -6q-5 0 -8 1l-81 21q-9 2 -9 11q0 8 4 17q34 54 96 81t147 27q102 0 151 -38t49 -105q0 -9 -2 -29
l-50 -352q-2 -11 -4.5 -13.5t-12.5 -2.5h-85q-15 0 -15 22l2 34q0 7 -4 7q-5 0 -14 -10q-67 -63 -172 -63zM375 246v7q0 4 -2 5.5t-8 0.5l-47 -4q-67 -5 -122 -31.5t-55 -84.5q0 -28 20.5 -44.5t56.5 -16.5q28 0 54.5 9t45.5 24q43 31 47 64zM239 750l220 -98q5 -3 8 -8.5
t0 -11.5l-16 -31q-4 -8 -9 -8q-4 0 -11 3l-221 65q-16 5 -16 18l2 8l29 59q5 10 14 4z" />
    <glyph glyph-name="aacute" unicode="&#xe1;" horiz-adv-x="558" 
d="M162 -10q-70 0 -110 35.5t-40 93.5q0 69 45.5 114t114.5 65.5t145 23.5l50 3q19 2 22 19l3 23q2 12 2 18q0 34 -21.5 52.5t-61.5 18.5q-83 0 -130 -68q-4 -6 -11 -6q-5 0 -8 1l-81 21q-9 2 -9 11q0 8 4 17q34 54 96 81t147 27q102 0 151 -38t49 -105q0 -9 -2 -29
l-50 -352q-2 -11 -4.5 -13.5t-12.5 -2.5h-85q-15 0 -15 22l2 34q0 7 -4 7q-5 0 -14 -10q-67 -63 -172 -63zM375 246v7q0 4 -2 5.5t-8 0.5l-47 -4q-67 -5 -122 -31.5t-55 -84.5q0 -28 20.5 -44.5t56.5 -16.5q28 0 54.5 9t45.5 24q43 31 47 64zM478 680q1 -3 1 -8t-3 -7.5
t-11 -4.5l-239 -66q-2 -1 -6 -1q-12 0 -15 15l-7 30q-1 3 -1 8q0 7 5 8l248 98l3 1q4 0 7.5 -4t4.5 -9z" />
    <glyph glyph-name="acircumflex" unicode="&#xe2;" horiz-adv-x="558" 
d="M162 -10q-70 0 -110 35.5t-40 93.5q0 69 45.5 114t114.5 65.5t145 23.5l50 3q19 2 22 19l3 23q2 12 2 18q0 34 -21.5 52.5t-61.5 18.5q-83 0 -130 -68q-4 -6 -11 -6q-5 0 -8 1l-81 21q-9 2 -9 11q0 8 4 17q34 54 96 81t147 27q102 0 151 -38t49 -105q0 -9 -2 -29
l-50 -352q-2 -11 -4.5 -13.5t-12.5 -2.5h-85q-15 0 -15 22l2 34q0 7 -4 7q-5 0 -14 -10q-67 -63 -172 -63zM375 246v7q0 4 -2 5.5t-8 0.5l-47 -4q-67 -5 -122 -31.5t-55 -84.5q0 -28 20.5 -44.5t56.5 -16.5q28 0 54.5 9t45.5 24q43 31 47 64zM356 679q-8 8 -10 8
q-3 0 -7.5 -4t-9.5 -10l-62 -52q-5 -4 -8.5 -5t-6.5 -0.5t-6 0.5h-72q-4 0 -7 2.5t-3 5.5q0 5 5 10l121 105q7 5 13.5 7t17.5 2h61q10 0 15 -5.5t6 -7.5l91 -107q2 -2 5.5 -6t2.5 -5t-7 -1h-77q-12 0 -21 11z" />
    <glyph glyph-name="atilde" unicode="&#xe3;" horiz-adv-x="558" 
d="M162 -10q-70 0 -110 35.5t-40 93.5q0 69 45.5 114t114.5 65.5t145 23.5l50 3q19 2 22 19l3 23q2 12 2 18q0 34 -21.5 52.5t-61.5 18.5q-83 0 -130 -68q-4 -6 -11 -6q-5 0 -8 1l-81 21q-9 2 -9 11q0 8 4 17q34 54 96 81t147 27q102 0 151 -38t49 -105q0 -9 -2 -29
l-50 -352q-2 -11 -4.5 -13.5t-12.5 -2.5h-85q-15 0 -15 22l2 34q0 7 -4 7q-5 0 -14 -10q-67 -63 -172 -63zM375 246v7q0 4 -2 5.5t-8 0.5l-47 -4q-67 -5 -122 -31.5t-55 -84.5q0 -28 20.5 -44.5t56.5 -16.5q28 0 54.5 9t45.5 24q43 31 47 64zM412 637q-20 0 -36.5 4
t-38.5 11q-37 13 -61 13q-22 0 -36 -6.5t-34 -20.5q-2 -1 -6 -1q-9 0 -12 15l-8 37q-2 8 -2 10q0 7 6 14q24 14 43 21t44 7q20 0 36.5 -4t44.5 -13q37 -13 60 -13q35 0 70 27q2 1 7 1q12 0 14 -15l5 -44q1 -2 1 -7q0 -7 -9 -16q-47 -20 -88 -20z" />
    <glyph glyph-name="adieresis" unicode="&#xe4;" horiz-adv-x="558" 
d="M162 -10q-70 0 -110 35.5t-40 93.5q0 69 45.5 114t114.5 65.5t145 23.5l50 3q19 2 22 19l3 23q2 12 2 18q0 34 -21.5 52.5t-61.5 18.5q-83 0 -130 -68q-4 -6 -11 -6q-5 0 -8 1l-81 21q-9 2 -9 11q0 8 4 17q34 54 96 81t147 27q102 0 151 -38t49 -105q0 -9 -2 -29
l-50 -352q-2 -11 -4.5 -13.5t-12.5 -2.5h-85q-15 0 -15 22l2 34q0 7 -4 7q-5 0 -14 -10q-67 -63 -172 -63zM375 246v7q0 4 -2 5.5t-8 0.5l-47 -4q-67 -5 -122 -31.5t-55 -84.5q0 -28 20.5 -44.5t56.5 -16.5q28 0 54.5 9t45.5 24q43 31 47 64zM302 634q-1 -10 -5 -12.5
t-16 -2.5h-79q-20 0 -17 20l12 91q1 8 3.5 10t8.5 2h92q7 0 11 -5.5t3 -12.5zM485 634q-1 -10 -5 -12.5t-16 -2.5h-79q-19 0 -17 20l13 91q1 8 3 10t9 2h92q7 0 11 -5.5t2 -12.5z" />
    <glyph glyph-name="aring" unicode="&#xe5;" horiz-adv-x="558" 
d="M162 -10q-70 0 -110 35.5t-40 93.5q0 69 45.5 114t114.5 65.5t145 23.5l50 3q19 2 22 19l3 23q2 12 2 18q0 34 -21.5 52.5t-61.5 18.5q-83 0 -130 -68q-4 -6 -11 -6q-5 0 -8 1l-81 21q-9 2 -9 11q0 8 4 17q34 54 96 81t147 27q102 0 151 -38t49 -105q0 -9 -2 -29
l-50 -352q-2 -11 -4.5 -13.5t-12.5 -2.5h-85q-15 0 -15 22l2 34q0 7 -4 7q-5 0 -14 -10q-67 -63 -172 -63zM375 246v7q0 4 -2 5.5t-8 0.5l-47 -4q-67 -5 -122 -31.5t-55 -84.5q0 -28 20.5 -44.5t56.5 -16.5q28 0 54.5 9t45.5 24q43 31 47 64zM436.5 644q-16.5 -27 -44 -43
t-59.5 -16q-43 0 -71 29t-28 73q0 11 1 17q5 41 39.5 69.5t78.5 28.5q43 0 71.5 -28.5t28.5 -70.5q0 -32 -16.5 -59zM384.5 735.5q-11.5 10.5 -29.5 10.5q-24 0 -44 -17.5t-24 -41.5q-2 -19 10.5 -33t31.5 -14q25 0 46 21.5t21 47.5q0 16 -11.5 26.5z" />
    <glyph glyph-name="ae" unicode="&#xe6;" horiz-adv-x="921" 
d="M500 212q-1 -6 -1 -19q0 -48 34.5 -80t87.5 -32q47 0 80.5 19.5t70.5 57.5q2 1 5 1q2 0 12 -5l57 -28q8 -3 8 -11q0 -5 -3 -11q-50 -60 -110 -87t-138 -27q-71 0 -118.5 29t-75.5 74q-4 0 -7 -3.5t-5 -8.5q-49 -43 -103 -67t-128 -24t-114.5 35t-40.5 96q0 8 2 26
q11 76 83.5 121t205.5 53l62 4q8 1 15.5 6t8.5 13l3 23q1 7 1 19q0 70 -84 70q-36 0 -69.5 -18t-59.5 -55q-3 -3 -7 -3q-3 0 -12 3l-80 21q-7 1 -7 16q0 8 2 12q39 55 96 81.5t145 26.5q138 -1 171 -75q74 75 182 75q102 0 162 -60.5t60 -167.5q0 -29 -4 -56
q-2 -10 -4.5 -12.5t-13.5 -3.5h-346q-20 0 -23 -28zM569.5 417.5q-44.5 -40.5 -53.5 -106.5l232 3q11 0 16 5t6 17q1 6 1 18q0 43 -26.5 73.5t-73.5 30.5q-57 0 -101.5 -40.5zM374 248q0 4 -2.5 5t-10.5 1l-50 -4q-74 -6 -122.5 -37t-48.5 -83q0 -27 19 -42t56 -15
q35 0 68 13.5t55 36t26 48.5l9 70z" />
    <glyph glyph-name="ccedilla" unicode="&#xe7;" horiz-adv-x="548" 
d="M533 387q0 -9 -12 -10l-85 -10h-2q-4 0 -6.5 5t-4.5 12q-18 36 -36.5 52.5t-52.5 16.5q-55 0 -93.5 -38t-58 -95t-19.5 -112q0 -65 29.5 -98.5t83.5 -33.5q47 0 79.5 21.5t65.5 68.5q3 4 5.5 4t8.5 -2l61 -17q9 -1 9 -13q0 -6 -2 -10q-30 -51 -85.5 -91.5t-131.5 -45.5
l-21 -43q-1 -3 -3 -3h1q45 -2 66 -23t21 -50q0 -42 -36 -65t-89 -23q-62 0 -100 27q-5 1 -7.5 4t-1.5 7l19 32q2 4 4 0t2 -5q32 -16 65 -16q27 0 44 11t20 30q2 19 -14.5 27t-60.5 9q-8 0 -11.5 3.5t-1.5 8.5l43 71q-89 12 -140.5 73.5t-51.5 155.5q0 82 37 155.5t105 118
t156 44.5q85 0 136 -42.5t66 -106.5v-4z" />
    <glyph glyph-name="egrave" unicode="&#xe8;" horiz-adv-x="584" 
d="M145 18.5q-53 28.5 -82.5 80.5t-29.5 120q0 83 38 156.5t107 119t155 45.5q102 0 162 -60.5t60 -167.5q0 -29 -4 -56q-2 -9 -6.5 -12.5t-15.5 -3.5h-351q-9 0 -12.5 -11t-3.5 -33q0 -54 34 -84.5t89 -30.5q43 0 79 17.5t68 54.5q5 5 10 5q3 0 11 -4l57 -28q10 -3 10 -11
q0 -4 -5 -11q-54 -63 -111.5 -88.5t-135.5 -25.5q-70 0 -123 28.5zM412 311q24 0 24 41q0 45 -27.5 75.5t-75.5 30.5q-39 0 -72.5 -20t-55 -54t-26.5 -73h233zM255 750l220 -98q5 -3 8 -8.5t0 -11.5l-16 -31q-4 -8 -9 -8q-4 0 -11 3l-221 65q-16 5 -16 18l2 8l29 59
q5 10 14 4z" />
    <glyph glyph-name="eacute" unicode="&#xe9;" horiz-adv-x="584" 
d="M145 18.5q-53 28.5 -82.5 80.5t-29.5 120q0 83 38 156.5t107 119t155 45.5q102 0 162 -60.5t60 -167.5q0 -29 -4 -56q-2 -9 -6.5 -12.5t-15.5 -3.5h-351q-9 0 -12.5 -11t-3.5 -33q0 -54 34 -84.5t89 -30.5q43 0 79 17.5t68 54.5q5 5 10 5q3 0 11 -4l57 -28q10 -3 10 -11
q0 -4 -5 -11q-54 -63 -111.5 -88.5t-135.5 -25.5q-70 0 -123 28.5zM412 311q24 0 24 41q0 45 -27.5 75.5t-75.5 30.5q-39 0 -72.5 -20t-55 -54t-26.5 -73h233zM494 680q1 -3 1 -8t-3 -7.5t-11 -4.5l-239 -66q-2 -1 -6 -1q-12 0 -15 15l-7 30q-1 3 -1 8q0 7 5 8l248 98l3 1
q4 0 7.5 -4t4.5 -9z" />
    <glyph glyph-name="ecircumflex" unicode="&#xea;" horiz-adv-x="584" 
d="M145 18.5q-53 28.5 -82.5 80.5t-29.5 120q0 83 38 156.5t107 119t155 45.5q102 0 162 -60.5t60 -167.5q0 -29 -4 -56q-2 -9 -6.5 -12.5t-15.5 -3.5h-351q-9 0 -12.5 -11t-3.5 -33q0 -54 34 -84.5t89 -30.5q43 0 79 17.5t68 54.5q5 5 10 5q3 0 11 -4l57 -28q10 -3 10 -11
q0 -4 -5 -11q-54 -63 -111.5 -88.5t-135.5 -25.5q-70 0 -123 28.5zM412 311q24 0 24 41q0 45 -27.5 75.5t-75.5 30.5q-39 0 -72.5 -20t-55 -54t-26.5 -73h233zM372 679q-8 8 -10 8q-3 0 -7.5 -4t-9.5 -10l-62 -52q-5 -4 -8.5 -5t-6.5 -0.5t-6 0.5h-72q-4 0 -7 2.5t-3 5.5
q0 5 5 10l121 105q7 5 13.5 7t17.5 2h61q10 0 15 -5.5t6 -7.5l91 -107q2 -2 5.5 -6t2.5 -5t-7 -1h-77q-12 0 -21 11z" />
    <glyph glyph-name="edieresis" unicode="&#xeb;" horiz-adv-x="584" 
d="M145 18.5q-53 28.5 -82.5 80.5t-29.5 120q0 83 38 156.5t107 119t155 45.5q102 0 162 -60.5t60 -167.5q0 -29 -4 -56q-2 -9 -6.5 -12.5t-15.5 -3.5h-351q-9 0 -12.5 -11t-3.5 -33q0 -54 34 -84.5t89 -30.5q43 0 79 17.5t68 54.5q5 5 10 5q3 0 11 -4l57 -28q10 -3 10 -11
q0 -4 -5 -11q-54 -63 -111.5 -88.5t-135.5 -25.5q-70 0 -123 28.5zM412 311q24 0 24 41q0 45 -27.5 75.5t-75.5 30.5q-39 0 -72.5 -20t-55 -54t-26.5 -73h233zM318 634q-1 -10 -5 -12.5t-16 -2.5h-79q-20 0 -17 20l12 91q1 8 3.5 10t8.5 2h92q7 0 11 -5.5t3 -12.5zM501 634
q-1 -10 -5 -12.5t-16 -2.5h-79q-19 0 -17 20l13 91q1 8 3 10t9 2h92q7 0 11 -5.5t2 -12.5z" />
    <glyph glyph-name="igrave" unicode="&#xec;" horiz-adv-x="256" 
d="M158 18q-1 -12 -5.5 -15t-17.5 -3h-87q-11 0 -16 6t-3 16l69 495q2 8 4.5 10.5t9.5 2.5h101q7 0 11.5 -5.5t3.5 -13.5zM84 750l220 -98q5 -3 8 -8.5t0 -11.5l-16 -31q-4 -8 -9 -8q-4 0 -11 3l-221 65q-16 5 -16 18l2 8l29 59q5 10 14 4z" />
    <glyph glyph-name="iacute" unicode="&#xed;" horiz-adv-x="256" 
d="M158 18q-1 -12 -5.5 -15t-17.5 -3h-87q-11 0 -16 6t-3 16l69 495q2 8 4.5 10.5t9.5 2.5h101q7 0 11.5 -5.5t3.5 -13.5zM323 680q1 -3 1 -8t-3 -7.5t-11 -4.5l-239 -66q-2 -1 -6 -1q-12 0 -15 15l-7 30q-1 3 -1 8q0 7 5 8l248 98l3 1q4 0 7.5 -4t4.5 -9z" />
    <glyph glyph-name="icircumflex" unicode="&#xee;" horiz-adv-x="256" 
d="M158 18q-1 -12 -5.5 -15t-17.5 -3h-87q-11 0 -16 6t-3 16l69 495q2 8 4.5 10.5t9.5 2.5h101q7 0 11.5 -5.5t3.5 -13.5zM201 679q-8 8 -10 8q-3 0 -7.5 -4t-9.5 -10l-62 -52q-5 -4 -8.5 -5t-6.5 -0.5t-6 0.5h-72q-4 0 -7 2.5t-3 5.5q0 5 5 10l121 105q7 5 13.5 7t17.5 2
h61q10 0 15 -5.5t6 -7.5l91 -107q2 -2 5.5 -6t2.5 -5t-7 -1h-77q-12 0 -21 11z" />
    <glyph glyph-name="idieresis" unicode="&#xef;" horiz-adv-x="256" 
d="M158 18q-1 -12 -5.5 -15t-17.5 -3h-87q-11 0 -16 6t-3 16l69 495q2 8 4.5 10.5t9.5 2.5h101q7 0 11.5 -5.5t3.5 -13.5zM147 634q-1 -10 -5 -12.5t-16 -2.5h-79q-20 0 -17 20l12 91q1 8 3.5 10t8.5 2h92q7 0 11 -5.5t3 -12.5zM330 634q-1 -10 -5 -12.5t-16 -2.5h-79
q-19 0 -17 20l13 91q1 8 3 10t9 2h92q7 0 11 -5.5t2 -12.5z" />
    <glyph glyph-name="eth" unicode="&#xf0;" horiz-adv-x="599" 
d="M510.5 119.5q-40.5 -61.5 -104 -95.5t-141.5 -34q-70 0 -123 29t-81.5 80.5t-28.5 117.5q0 21 3 42q11 75 52.5 134.5t104 93t134.5 33.5q55 0 80 -22q-28 69 -93 120l-139 -76q-4 -2 -6 -2q-7 0 -11 13l-11 19q-3 7 -3.5 10.5t3.5 5.5l121 61q-42 23 -87 43q-6 1 -8.5 5
t1.5 8l62 44q4 3 7 3t10 -5q56 -14 114 -49l95 54q1 1 3 1q7 0 11 -8l13 -31q0 -1 2 -4.5t-2 -6.5l-75 -36q78 -59 117 -142.5t39 -183.5q0 -37 -6 -78q-12 -82 -52.5 -143.5zM375 129q44 50 55 133q3 23 3 43q0 60 -27.5 94.5t-76.5 34.5q-62 0 -106.5 -51t-56.5 -135
q-3 -21 -3 -40q0 -61 27.5 -95t78.5 -34q62 0 106 50z" />
    <glyph glyph-name="ntilde" unicode="&#xf1;" horiz-adv-x="592" 
d="M29 22l69 495q2 8 4 10.5t9 2.5h106q6 0 8 -2.5t1 -9.5l-8 -53v-3q0 -4 2 -4q1 0 8 5q93 77 181 77q68 0 106 -36t38 -96q0 -9 -2 -27l-51 -364q-1 -10 -5.5 -13.5t-15.5 -3.5h-96q-16 0 -13 22l49 341l2 21q0 60 -69 60q-36 0 -67.5 -17t-75.5 -55l-51 -356
q-1 -10 -6 -13t-17 -3h-93q-16 0 -13 22zM433 637q-20 0 -36.5 4t-38.5 11q-37 13 -61 13q-22 0 -36 -6.5t-34 -20.5q-2 -1 -6 -1q-9 0 -12 15l-8 37q-2 8 -2 10q0 7 6 14q24 14 43 21t44 7q20 0 36.5 -4t44.5 -13q37 -13 60 -13q35 0 70 27q2 1 7 1q12 0 14 -15l5 -44
q1 -2 1 -7q0 -7 -9 -16q-47 -20 -88 -20z" />
    <glyph glyph-name="ograve" unicode="&#xf2;" horiz-adv-x="599" 
d="M142.5 19q-52.5 29 -81 81t-28.5 121q0 91 41 164t110 114t150 41q70 0 122.5 -29.5t80.5 -83t28 -122.5q0 -89 -39.5 -161t-108 -113t-152.5 -41q-70 0 -122.5 29zM354 108.5q38 29.5 60 86.5t22 134q0 60 -27 92.5t-77 32.5q-47 0 -85.5 -30.5t-61 -87.5t-22.5 -134
q0 -59 27.5 -91t78.5 -32q47 0 85 29.5zM256 750l220 -98q5 -3 8 -8.5t0 -11.5l-16 -31q-4 -8 -9 -8q-4 0 -11 3l-221 65q-16 5 -16 18l2 8l29 59q5 10 14 4z" />
    <glyph glyph-name="oacute" unicode="&#xf3;" horiz-adv-x="599" 
d="M142.5 19q-52.5 29 -81 81t-28.5 121q0 91 41 164t110 114t150 41q70 0 122.5 -29.5t80.5 -83t28 -122.5q0 -89 -39.5 -161t-108 -113t-152.5 -41q-70 0 -122.5 29zM354 108.5q38 29.5 60 86.5t22 134q0 60 -27 92.5t-77 32.5q-47 0 -85.5 -30.5t-61 -87.5t-22.5 -134
q0 -59 27.5 -91t78.5 -32q47 0 85 29.5zM495 680q1 -3 1 -8t-3 -7.5t-11 -4.5l-239 -66q-2 -1 -6 -1q-12 0 -15 15l-7 30q-1 3 -1 8q0 7 5 8l248 98l3 1q4 0 7.5 -4t4.5 -9z" />
    <glyph glyph-name="ocircumflex" unicode="&#xf4;" horiz-adv-x="599" 
d="M142.5 19q-52.5 29 -81 81t-28.5 121q0 91 41 164t110 114t150 41q70 0 122.5 -29.5t80.5 -83t28 -122.5q0 -89 -39.5 -161t-108 -113t-152.5 -41q-70 0 -122.5 29zM354 108.5q38 29.5 60 86.5t22 134q0 60 -27 92.5t-77 32.5q-47 0 -85.5 -30.5t-61 -87.5t-22.5 -134
q0 -59 27.5 -91t78.5 -32q47 0 85 29.5zM373 679q-8 8 -10 8q-3 0 -7.5 -4t-9.5 -10l-62 -52q-5 -4 -8.5 -5t-6.5 -0.5t-6 0.5h-72q-4 0 -7 2.5t-3 5.5q0 5 5 10l121 105q7 5 13.5 7t17.5 2h61q10 0 15 -5.5t6 -7.5l91 -107q2 -2 5.5 -6t2.5 -5t-7 -1h-77q-12 0 -21 11z" />
    <glyph glyph-name="otilde" unicode="&#xf5;" horiz-adv-x="599" 
d="M142.5 19q-52.5 29 -81 81t-28.5 121q0 91 41 164t110 114t150 41q70 0 122.5 -29.5t80.5 -83t28 -122.5q0 -89 -39.5 -161t-108 -113t-152.5 -41q-70 0 -122.5 29zM354 108.5q38 29.5 60 86.5t22 134q0 60 -27 92.5t-77 32.5q-47 0 -85.5 -30.5t-61 -87.5t-22.5 -134
q0 -59 27.5 -91t78.5 -32q47 0 85 29.5zM429 637q-20 0 -36.5 4t-38.5 11q-37 13 -61 13q-22 0 -36 -6.5t-34 -20.5q-2 -1 -6 -1q-9 0 -12 15l-8 37q-2 8 -2 10q0 7 6 14q24 14 43 21t44 7q20 0 36.5 -4t44.5 -13q37 -13 60 -13q35 0 70 27q2 1 7 1q12 0 14 -15l5 -44
q1 -2 1 -7q0 -7 -9 -16q-47 -20 -88 -20z" />
    <glyph glyph-name="odieresis" unicode="&#xf6;" horiz-adv-x="599" 
d="M142.5 19q-52.5 29 -81 81t-28.5 121q0 91 41 164t110 114t150 41q70 0 122.5 -29.5t80.5 -83t28 -122.5q0 -89 -39.5 -161t-108 -113t-152.5 -41q-70 0 -122.5 29zM354 108.5q38 29.5 60 86.5t22 134q0 60 -27 92.5t-77 32.5q-47 0 -85.5 -30.5t-61 -87.5t-22.5 -134
q0 -59 27.5 -91t78.5 -32q47 0 85 29.5zM319 634q-1 -10 -5 -12.5t-16 -2.5h-79q-20 0 -17 20l12 91q1 8 3.5 10t8.5 2h92q7 0 11 -5.5t3 -12.5zM502 634q-1 -10 -5 -12.5t-16 -2.5h-79q-19 0 -17 20l13 91q1 8 3 10t9 2h92q7 0 11 -5.5t2 -12.5z" />
    <glyph glyph-name="divide" unicode="&#xf7;" horiz-adv-x="575" 
d="M395 514q-1 -10 -5 -12.5t-17 -2.5h-102q-10 0 -15 6t-3 15l15 104q1 8 3 10t8 2h118q6 0 10 -5.5t3 -12.5zM532 341q-1 -10 -5 -13t-17 -3h-428q-20 0 -18 21l10 63q1 7 3 9.5t8 2.5h443q6 0 10.5 -5.5t3.5 -11.5zM340 126q-1 -10 -5 -13t-17 -3h-102q-10 0 -14.5 6
t-3.5 15l15 105q1 8 3 9.5t8 1.5h119q6 0 9.5 -5t2.5 -12z" />
    <glyph glyph-name="oslash" unicode="&#xf8;" horiz-adv-x="591" 
d="M603 484q0 -4 -5 -9l-66 -56q24 -49 24 -114q0 -89 -39.5 -161t-108 -113t-152.5 -41q-102 0 -164 59l-51 -43q-7 -6 -14 -6q-8 0 -16 11l-14 17q-9 11 -9 17t7 12l56 47q-27 50 -27 117q0 91 41 164t110 114t150 41q104 0 168 -64l58 48q6 5 12 5q7 0 12 -7l22 -26
q6 -8 6 -12zM154 191l257 215q-26 48 -88 48q-47 0 -85.5 -30.5t-61 -87.5t-22.5 -134v-11zM427 331l-252 -212q28 -40 85 -40q47 0 85 29.5t60 86.5t22 134v2z" />
    <glyph glyph-name="ugrave" unicode="&#xf9;" horiz-adv-x="588" 
d="M77.5 26.5q-38.5 36.5 -38.5 97.5q0 10 2 28l50 361q2 11 6 14t15 3h92q9 0 13.5 -6t3.5 -16l-48 -340q-2 -14 -2 -19q0 -64 66 -64q64 0 141 72l52 357q2 10 6 13t16 3h90q10 0 15 -6.5t3 -15.5l-72 -495q-1 -8 -3 -10.5t-10 -2.5h-98q-16 0 -13 13l8 51v2q0 5 -3 5
t-10 -5q-50 -41 -92.5 -58.5t-87.5 -17.5q-63 0 -101.5 36.5zM241 750l220 -98q5 -3 8 -8.5t0 -11.5l-16 -31q-4 -8 -9 -8q-4 0 -11 3l-221 65q-16 5 -16 18l2 8l29 59q5 10 14 4z" />
    <glyph glyph-name="uacute" unicode="&#xfa;" horiz-adv-x="588" 
d="M77.5 26.5q-38.5 36.5 -38.5 97.5q0 10 2 28l50 361q2 11 6 14t15 3h92q9 0 13.5 -6t3.5 -16l-48 -340q-2 -14 -2 -19q0 -64 66 -64q64 0 141 72l52 357q2 10 6 13t16 3h90q10 0 15 -6.5t3 -15.5l-72 -495q-1 -8 -3 -10.5t-10 -2.5h-98q-16 0 -13 13l8 51v2q0 5 -3 5
t-10 -5q-50 -41 -92.5 -58.5t-87.5 -17.5q-63 0 -101.5 36.5zM480 680q1 -3 1 -8t-3 -7.5t-11 -4.5l-239 -66q-2 -1 -6 -1q-12 0 -15 15l-7 30q-1 3 -1 8q0 7 5 8l248 98l3 1q4 0 7.5 -4t4.5 -9z" />
    <glyph glyph-name="ucircumflex" unicode="&#xfb;" horiz-adv-x="588" 
d="M77.5 26.5q-38.5 36.5 -38.5 97.5q0 10 2 28l50 361q2 11 6 14t15 3h92q9 0 13.5 -6t3.5 -16l-48 -340q-2 -14 -2 -19q0 -64 66 -64q64 0 141 72l52 357q2 10 6 13t16 3h90q10 0 15 -6.5t3 -15.5l-72 -495q-1 -8 -3 -10.5t-10 -2.5h-98q-16 0 -13 13l8 51v2q0 5 -3 5
t-10 -5q-50 -41 -92.5 -58.5t-87.5 -17.5q-63 0 -101.5 36.5zM358 679q-8 8 -10 8q-3 0 -7.5 -4t-9.5 -10l-62 -52q-5 -4 -8.5 -5t-6.5 -0.5t-6 0.5h-72q-4 0 -7 2.5t-3 5.5q0 5 5 10l121 105q7 5 13.5 7t17.5 2h61q10 0 15 -5.5t6 -7.5l91 -107q2 -2 5.5 -6t2.5 -5t-7 -1
h-77q-12 0 -21 11z" />
    <glyph glyph-name="udieresis" unicode="&#xfc;" horiz-adv-x="588" 
d="M77.5 26.5q-38.5 36.5 -38.5 97.5q0 10 2 28l50 361q2 11 6 14t15 3h92q9 0 13.5 -6t3.5 -16l-48 -340q-2 -14 -2 -19q0 -64 66 -64q64 0 141 72l52 357q2 10 6 13t16 3h90q10 0 15 -6.5t3 -15.5l-72 -495q-1 -8 -3 -10.5t-10 -2.5h-98q-16 0 -13 13l8 51v2q0 5 -3 5
t-10 -5q-50 -41 -92.5 -58.5t-87.5 -17.5q-63 0 -101.5 36.5zM304 634q-1 -10 -5 -12.5t-16 -2.5h-79q-20 0 -17 20l12 91q1 8 3.5 10t8.5 2h92q7 0 11 -5.5t3 -12.5zM487 634q-1 -10 -5 -12.5t-16 -2.5h-79q-19 0 -17 20l13 91q1 8 3 10t9 2h92q7 0 11 -5.5t2 -12.5z" />
    <glyph glyph-name="yacute" unicode="&#xfd;" horiz-adv-x="554" 
d="M-3.5 -161.5q-11.5 3.5 -9.5 14.5l8 64q2 14 35 14h64q23 0 43.5 13.5t32.5 34t12 39.5q0 8 -1 12l-126 475q-1 4 -1 11q0 14 14 14h114q13 0 16 -11l78 -330q3 -11 8 -11q6 0 12 13l166 321q8 18 23 18h73q10 0 10 -6q0 -3 -4 -11l-285 -526q-33 -61 -66.5 -94
t-73.5 -45.5t-100 -12.5q-31 0 -42.5 3.5zM490 680q1 -3 1 -8t-3 -7.5t-11 -4.5l-239 -66q-2 -1 -6 -1q-12 0 -15 15l-7 30q-1 3 -1 8q0 7 5 8l248 98l3 1q4 0 7.5 -4t4.5 -9z" />
    <glyph glyph-name="thorn" unicode="&#xfe;" horiz-adv-x="603" 
d="M253 736q5 -6 3 -16l-34 -246v-2q0 -3 1 -3q3 0 11 12q36 27 70.5 43t85.5 16q82 0 131.5 -54t49.5 -157q0 -26 -5 -66q-19 -134 -87 -203.5t-165 -69.5q-85 0 -129 56q-5 4 -12 4q-11 0 -13 -19l-26 -184q-1 -8 -3 -10t-9 -2h-102q-7 0 -11.5 6t-2.5 14l121 871
q2 10 5.5 13t15.5 3h90q10 0 15 -6zM215.5 88q23.5 -13 54.5 -13q64 0 108 51t58 153q4 27 4 54q0 122 -102 122q-33 0 -62 -14.5t-48 -36.5t-22 -44l-34 -233q20 -26 43.5 -39z" />
    <glyph glyph-name="ydieresis" unicode="&#xff;" horiz-adv-x="554" 
d="M-3.5 -161.5q-11.5 3.5 -9.5 14.5l8 64q2 14 35 14h64q23 0 43.5 13.5t32.5 34t12 39.5q0 8 -1 12l-126 475q-1 4 -1 11q0 14 14 14h114q13 0 16 -11l78 -330q3 -11 8 -11q6 0 12 13l166 321q8 18 23 18h73q10 0 10 -6q0 -3 -4 -11l-285 -526q-33 -61 -66.5 -94
t-73.5 -45.5t-100 -12.5q-31 0 -42.5 3.5zM314 634q-1 -10 -5 -12.5t-16 -2.5h-79q-20 0 -17 20l12 91q1 8 3.5 10t8.5 2h92q7 0 11 -5.5t3 -12.5zM497 634q-1 -10 -5 -12.5t-16 -2.5h-79q-19 0 -17 20l13 91q1 8 3 10t9 2h92q7 0 11 -5.5t2 -12.5z" />
    <glyph glyph-name="Amacron" unicode="&#x100;" horiz-adv-x="756" 
d="M-2 9q0 7 6 19l352 700q4 9 10.5 11.5t17.5 2.5h126q17 0 21 -23l152 -699l1 -6q0 -14 -13 -14h-121q-13 0 -16 16l-35 161q-1 5 -3 6.5t-8 1.5h-259q-6 0 -9 -2.5t-6 -8.5l-84 -166q-2 -5 -6 -6.5t-11 -1.5h-105q-10 0 -10 9zM468 298q14 0 11 16l-60 265q-1 9 -6 9
t-9 -10l-133 -265q-3 -7 -3 -10q0 -5 8 -5h192zM631 873q-1 -9 -5 -11.5t-15 -2.5h-305q-9 0 -13 6t-2 14l7 56q1 7 3 8.5t7 1.5h319q5 0 9 -5.5t3 -10.5z" />
    <glyph glyph-name="amacron" unicode="&#x101;" horiz-adv-x="558" 
d="M162 -10q-70 0 -110 35.5t-40 93.5q0 69 45.5 114t114.5 65.5t145 23.5l50 3q19 2 22 19l3 23q2 12 2 18q0 34 -21.5 52.5t-61.5 18.5q-83 0 -130 -68q-4 -6 -11 -6q-5 0 -8 1l-81 21q-9 2 -9 11q0 8 4 17q34 54 96 81t147 27q102 0 151 -38t49 -105q0 -9 -2 -29
l-50 -352q-2 -11 -4.5 -13.5t-12.5 -2.5h-85q-15 0 -15 22l2 34q0 7 -4 7q-5 0 -14 -10q-67 -63 -172 -63zM375 246v7q0 4 -2 5.5t-8 0.5l-47 -4q-67 -5 -122 -31.5t-55 -84.5q0 -28 20.5 -44.5t56.5 -16.5q28 0 54.5 9t45.5 24q43 31 47 64zM509 661q-1 -9 -5 -11.5
t-15 -2.5h-305q-9 0 -13 6t-2 14l7 56q1 7 3 8.5t7 1.5h319q5 0 9 -5.5t3 -10.5z" />
    <glyph glyph-name="Abreve" unicode="&#x102;" horiz-adv-x="756" 
d="M-2 9q0 7 6 19l352 700q4 9 10.5 11.5t17.5 2.5h126q17 0 21 -23l152 -699l1 -6q0 -14 -13 -14h-121q-13 0 -16 16l-35 161q-1 5 -3 6.5t-8 1.5h-259q-6 0 -9 -2.5t-6 -8.5l-84 -166q-2 -5 -6 -6.5t-11 -1.5h-105q-10 0 -10 9zM468 298q14 0 11 16l-60 265q-1 9 -6 9
t-9 -10l-133 -265q-3 -7 -3 -10q0 -5 8 -5h192zM641 942q0 -5 -3 -10q-22 -46 -70.5 -74t-108.5 -28q-65 0 -105 27t-49 80v4q0 13 13 13h55q6 0 9 -3t5.5 -7.5t3.5 -6.5q27 -39 72 -39q29 0 53.5 13t39.5 34q6 9 18 9h55q12 0 12 -12z" />
    <glyph glyph-name="abreve" unicode="&#x103;" horiz-adv-x="558" 
d="M162 -10q-70 0 -110 35.5t-40 93.5q0 69 45.5 114t114.5 65.5t145 23.5l50 3q19 2 22 19l3 23q2 12 2 18q0 34 -21.5 52.5t-61.5 18.5q-83 0 -130 -68q-4 -6 -11 -6q-5 0 -8 1l-81 21q-9 2 -9 11q0 8 4 17q34 54 96 81t147 27q102 0 151 -38t49 -105q0 -9 -2 -29
l-50 -352q-2 -11 -4.5 -13.5t-12.5 -2.5h-85q-15 0 -15 22l2 34q0 7 -4 7q-5 0 -14 -10q-67 -63 -172 -63zM375 246v7q0 4 -2 5.5t-8 0.5l-47 -4q-67 -5 -122 -31.5t-55 -84.5q0 -28 20.5 -44.5t56.5 -16.5q28 0 54.5 9t45.5 24q43 31 47 64zM519 730q0 -5 -3 -10
q-22 -46 -70.5 -74t-108.5 -28q-65 0 -105 27t-49 80v4q0 13 13 13h55q6 0 9 -3t5.5 -7.5t3.5 -6.5q27 -39 72 -39q29 0 53.5 13t39.5 34q6 9 18 9h55q12 0 12 -12z" />
    <glyph glyph-name="Aogonek" unicode="&#x104;" horiz-adv-x="756" 
d="M674 -94q4 0 5.5 -3.5t0.5 -8.5l-5 -38q-2 -14 -10 -15q-43 -13 -92 -13t-75.5 19.5t-26.5 56.5q0 31 18.5 53.5t70.5 42.5h-10q-13 0 -16 16l-35 161q-1 5 -3 6.5t-8 1.5h-259q-6 0 -9 -2.5t-6 -8.5l-84 -166q-2 -5 -6 -6.5t-11 -1.5h-105q-10 0 -10 9q0 7 6 19l352 700
q4 9 10.5 11.5t17.5 2.5h126q17 0 21 -23l152 -699l1 -7q0 -12 -11 -13q-53 -19 -77 -38.5t-26 -43.5q-4 -30 33 -30q18 0 32.5 4.5t31.5 11.5q6 2 7 2zM479 314l-60 265q-1 9 -6 9t-9 -10l-133 -265q-3 -7 -3 -10q0 -5 8 -5h192q14 0 11 16z" />
    <glyph glyph-name="aogonek" unicode="&#x105;" horiz-adv-x="558" 
d="M470 502q49 -38 49 -105q0 -9 -2 -29l-50 -352q-2 -11 -4 -13.5t-11 -2.5q-50 -18 -72.5 -37t-24.5 -43q-4 -30 33 -30q18 0 32.5 4.5t31.5 11.5q6 2 7 2q4 0 5.5 -3.5t0.5 -8.5l-5 -38q-2 -14 -10 -15q-43 -13 -92 -13t-75.5 19.5t-26.5 56.5q0 32 20.5 55.5t77.5 43.5
q-4 5 -4 17l2 34q0 7 -4 7q-5 0 -14 -10q-67 -63 -172 -63q-70 0 -110 35.5t-40 93.5q0 69 45.5 114t114.5 65.5t145 23.5l50 3q19 2 22 19l3 23q2 12 2 18q0 34 -21.5 52.5t-61.5 18.5q-83 0 -130 -68q-4 -6 -11 -6q-5 0 -8 1l-81 21q-9 2 -9 11q0 8 4 17q34 54 96 81
t147 27q102 0 151 -38zM365 175l10 71v7q0 4 -2 5.5t-8 0.5l-47 -4q-67 -5 -122 -31.5t-55 -84.5q0 -28 20.5 -44.5t56.5 -16.5q28 0 54.5 9t45.5 24q43 31 47 64z" />
    <glyph glyph-name="Cacute" unicode="&#x106;" horiz-adv-x="719" 
d="M578 722.5q59 -29.5 93 -80t35 -112.5v-3q0 -14 -13 -14l-110 -7h-1q-10 0 -12 21q-5 55 -37.5 87.5t-89.5 32.5q-82 0 -133.5 -58t-74 -143t-22.5 -170q0 -89 36 -132t109 -43q66 0 115.5 32.5t84.5 100.5q4 8 13 8q5 0 8 -1l89 -23q5 -2 5 -8q0 -7 -4 -18
q-19 -44 -61.5 -90.5t-109 -79t-149.5 -32.5q-90 0 -154.5 38t-98.5 107.5t-34 163.5q0 118 43 221.5t129.5 167.5t210.5 64q74 0 133 -29.5zM606 892q1 -3 1 -8t-3 -7.5t-11 -4.5l-239 -66q-2 -1 -6 -1q-12 0 -15 15l-7 30q-1 3 -1 8q0 7 5 8l248 98l3 1q4 0 7.5 -4t4.5 -9
z" />
    <glyph glyph-name="cacute" unicode="&#x107;" horiz-adv-x="548" 
d="M467 497.5q51 -42.5 66 -106.5v-4q0 -9 -12 -10l-85 -10h-2q-4 0 -6.5 5t-4.5 12q-18 36 -36.5 52.5t-52.5 16.5q-55 0 -93.5 -38t-58 -95t-19.5 -112q0 -65 29.5 -98.5t83.5 -33.5q47 0 79.5 21.5t65.5 68.5q3 4 5.5 4t8.5 -2l61 -17q9 -1 9 -13q0 -6 -2 -10
q-32 -55 -93 -96.5t-146 -41.5q-69 0 -121.5 29t-81 81.5t-28.5 121.5q0 82 37 155.5t105 118t156 44.5q85 0 136 -42.5zM492 680q1 -3 1 -8t-3 -7.5t-11 -4.5l-239 -66q-2 -1 -6 -1q-12 0 -15 15l-7 30q-1 3 -1 8q0 7 5 8l248 98l3 1q4 0 7.5 -4t4.5 -9z" />
    <glyph glyph-name="Ccircumflex" unicode="&#x108;" horiz-adv-x="719" 
d="M578 722.5q59 -29.5 93 -80t35 -112.5v-3q0 -14 -13 -14l-110 -7h-1q-10 0 -12 21q-5 55 -37.5 87.5t-89.5 32.5q-82 0 -133.5 -58t-74 -143t-22.5 -170q0 -89 36 -132t109 -43q66 0 115.5 32.5t84.5 100.5q4 8 13 8q5 0 8 -1l89 -23q5 -2 5 -8q0 -7 -4 -18
q-19 -44 -61.5 -90.5t-109 -79t-149.5 -32.5q-90 0 -154.5 38t-98.5 107.5t-34 163.5q0 118 43 221.5t129.5 167.5t210.5 64q74 0 133 -29.5zM484 891q-8 8 -10 8q-3 0 -7.5 -4t-9.5 -10l-62 -52q-5 -4 -8.5 -5t-6.5 -0.5t-6 0.5h-72q-4 0 -7 2.5t-3 5.5q0 5 5 10l121 105
q7 5 13.5 7t17.5 2h61q10 0 15 -5.5t6 -7.5l91 -107q2 -2 5.5 -6t2.5 -5t-7 -1h-77q-12 0 -21 11z" />
    <glyph glyph-name="ccircumflex" unicode="&#x109;" horiz-adv-x="548" 
d="M467 497.5q51 -42.5 66 -106.5v-4q0 -9 -12 -10l-85 -10h-2q-4 0 -6.5 5t-4.5 12q-18 36 -36.5 52.5t-52.5 16.5q-55 0 -93.5 -38t-58 -95t-19.5 -112q0 -65 29.5 -98.5t83.5 -33.5q47 0 79.5 21.5t65.5 68.5q3 4 5.5 4t8.5 -2l61 -17q9 -1 9 -13q0 -6 -2 -10
q-32 -55 -93 -96.5t-146 -41.5q-69 0 -121.5 29t-81 81.5t-28.5 121.5q0 82 37 155.5t105 118t156 44.5q85 0 136 -42.5zM370 679q-8 8 -10 8q-3 0 -7.5 -4t-9.5 -10l-62 -52q-5 -4 -8.5 -5t-6.5 -0.5t-6 0.5h-72q-4 0 -7 2.5t-3 5.5q0 5 5 10l121 105q7 5 13.5 7t17.5 2h61
q10 0 15 -5.5t6 -7.5l91 -107q2 -2 5.5 -6t2.5 -5t-7 -1h-77q-12 0 -21 11z" />
    <glyph glyph-name="Cdotaccent" unicode="&#x10a;" horiz-adv-x="719" 
d="M578 722.5q59 -29.5 93 -80t35 -112.5v-3q0 -14 -13 -14l-110 -7h-1q-10 0 -12 21q-5 55 -37.5 87.5t-89.5 32.5q-82 0 -133.5 -58t-74 -143t-22.5 -170q0 -89 36 -132t109 -43q66 0 115.5 32.5t84.5 100.5q4 8 13 8q5 0 8 -1l89 -23q5 -2 5 -8q0 -7 -4 -18
q-19 -44 -61.5 -90.5t-109 -79t-149.5 -32.5q-90 0 -154.5 38t-98.5 107.5t-34 163.5q0 118 43 221.5t129.5 167.5t210.5 64q74 0 133 -29.5zM529 834q-2 -11 -6.5 -14t-17.5 -3h-91q-21 0 -19 22l14 102q2 8 4.5 10.5t9.5 2.5h106q7 0 10.5 -6t2.5 -14z" />
    <glyph glyph-name="cdotaccent" unicode="&#x10b;" horiz-adv-x="548" 
d="M467 497.5q51 -42.5 66 -106.5v-4q0 -9 -12 -10l-85 -10h-2q-4 0 -6.5 5t-4.5 12q-18 36 -36.5 52.5t-52.5 16.5q-55 0 -93.5 -38t-58 -95t-19.5 -112q0 -65 29.5 -98.5t83.5 -33.5q47 0 79.5 21.5t65.5 68.5q3 4 5.5 4t8.5 -2l61 -17q9 -1 9 -13q0 -6 -2 -10
q-32 -55 -93 -96.5t-146 -41.5q-69 0 -121.5 29t-81 81.5t-28.5 121.5q0 82 37 155.5t105 118t156 44.5q85 0 136 -42.5zM415 622q-2 -11 -6.5 -14t-17.5 -3h-91q-21 0 -19 22l14 102q2 8 4.5 10.5t9.5 2.5h106q7 0 10.5 -6t2.5 -14z" />
    <glyph glyph-name="Ccaron" unicode="&#x10c;" horiz-adv-x="719" 
d="M578 722.5q59 -29.5 93 -80t35 -112.5v-3q0 -14 -13 -14l-110 -7h-1q-10 0 -12 21q-5 55 -37.5 87.5t-89.5 32.5q-82 0 -133.5 -58t-74 -143t-22.5 -170q0 -89 36 -132t109 -43q66 0 115.5 32.5t84.5 100.5q4 8 13 8q5 0 8 -1l89 -23q5 -2 5 -8q0 -7 -4 -18
q-19 -44 -61.5 -90.5t-109 -79t-149.5 -32.5q-90 0 -154.5 38t-98.5 107.5t-34 163.5q0 118 43 221.5t129.5 167.5t210.5 64q74 0 133 -29.5zM546 954.5q4 0.5 7.5 0.5h5.5h77q10 0 10 -7q0 -5 -6 -11l-121 -106q-10 -8 -23 -8h-61q-18 0 -27 15l-93 105q-6 7 -6.5 9.5
t6.5 2.5h71q8 0 12 -2.5t8 -8.5l47 -52q8 -8 11 -8t8 5l9 9l56 52q5 4 9 4.5z" />
    <glyph glyph-name="ccaron" unicode="&#x10d;" horiz-adv-x="548" 
d="M467 497.5q51 -42.5 66 -106.5v-4q0 -9 -12 -10l-85 -10h-2q-4 0 -6.5 5t-4.5 12q-18 36 -36.5 52.5t-52.5 16.5q-55 0 -93.5 -38t-58 -95t-19.5 -112q0 -65 29.5 -98.5t83.5 -33.5q47 0 79.5 21.5t65.5 68.5q3 4 5.5 4t8.5 -2l61 -17q9 -1 9 -13q0 -6 -2 -10
q-32 -55 -93 -96.5t-146 -41.5q-69 0 -121.5 29t-81 81.5t-28.5 121.5q0 82 37 155.5t105 118t156 44.5q85 0 136 -42.5zM432 742.5q4 0.5 7.5 0.5h5.5h77q10 0 10 -7q0 -5 -6 -11l-121 -106q-10 -8 -23 -8h-61q-18 0 -27 15l-93 105q-6 7 -6.5 9.5t6.5 2.5h71q8 0 12 -2.5
t8 -8.5l47 -52q8 -8 11 -8t8 5l9 9l56 52q5 4 9 4.5z" />
    <glyph glyph-name="Dcaron" unicode="&#x10e;" horiz-adv-x="741" 
d="M49.5 7q-5.5 7 -4.5 18l99 703q2 8 5.5 11t13.5 3h190q177 0 267 -78t90 -219q0 -138 -52.5 -238t-153.5 -153.5t-243 -53.5h-196q-10 0 -15.5 7zM275 106q144 0 213 91t69 255q0 96 -50.5 140t-152.5 44h-61q-14 0 -17 -16l-68 -498q0 -1 -0.5 -2.5t0.5 -2.5
q0 -11 12 -11h55zM531 954.5q4 0.5 7.5 0.5h5.5h77q10 0 10 -7q0 -5 -6 -11l-121 -106q-10 -8 -23 -8h-61q-18 0 -27 15l-93 105q-6 7 -6.5 9.5t6.5 2.5h71q8 0 12 -2.5t8 -8.5l47 -52q8 -8 11 -8t8 5l9 9l56 52q5 4 9 4.5z" />
    <glyph glyph-name="dcaron" unicode="&#x10f;" horiz-adv-x="724" 
d="M399 0q-21 0 -18 17l6 33v4q0 5 -3 5t-11 -6q-33 -27 -69.5 -45t-85.5 -18q-85 0 -135 54.5t-50 157.5q0 86 32.5 164t92.5 126t139 48q42 0 72 -15t54 -43q7 -7 11 -7q9 0 12 24l33 229q1 14 17 14h101q13 0 10 -21l-100 -704q-1 -10 -5.5 -13.5t-16.5 -3.5h-86z
M434 402q-21 27 -45 39.5t-54 12.5q-57 0 -95.5 -40t-57 -99.5t-18.5 -116.5q0 -63 28 -93.5t76 -30.5q32 0 61 15.5t48 39.5t23 48zM642.5 532.5q-3.5 5.5 -1.5 9.5l42 74q1 3 3 6.5t1 4.5t-4 2l-8 1q-17 2 -15 17l13 87q1 6 2 7t6 1h74q5 0 8 -4.5t2 -9.5l-14 -102l-3 -7
l-47 -84q-3 -6 -6.5 -7t-15.5 -1h-28q-5 0 -8.5 5.5z" />
    <glyph glyph-name="Dcroat" unicode="&#x110;" horiz-adv-x="716" 
d="M594 664q90 -78 90 -219q0 -138 -52.5 -238t-153.5 -153.5t-243 -53.5h-196q-10 0 -15.5 7t-4.5 18l41 294h-2q-21 0 -19 23l9 62q2 8 4 10.5t9 2.5h13l44 311q2 8 5.5 11t13.5 3h190q177 0 267 -78zM462 197q69 91 69 255q0 96 -50.5 140t-152.5 44h-61q-14 0 -17 -16
l-28 -203h176q7 0 11 -6t2 -13l-8 -62q-1 -11 -6 -14t-18 -3h-170l-27 -197q0 -1 -0.5 -2.5t0.5 -2.5q0 -11 12 -11h55q144 0 213 91z" />
    <glyph glyph-name="dcroat" unicode="&#x111;" horiz-adv-x="616" 
d="M686.5 671q3.5 -5 3.5 -11l-7 -46q-1 -9 -4.5 -11t-15.5 -2h-73l-83 -584q-1 -10 -5.5 -13.5t-16.5 -3.5h-86q-21 0 -18 17l6 33v4q0 5 -3 5t-11 -6q-33 -27 -69.5 -45t-85.5 -18q-85 0 -135 54.5t-50 157.5q0 86 32.5 164t92.5 126t139 48q42 0 72 -15t54 -43
q7 -7 11 -7q9 0 12 24l15 102h-97q-9 0 -13 5t-2 14l6 46q2 7 3.5 8.5t6.5 1.5h107l7 52q1 14 17 14h101q13 0 10 -21l-6 -45h77q5 0 8.5 -5zM434 402q-21 27 -45 39.5t-54 12.5q-57 0 -95.5 -40t-57 -99.5t-18.5 -116.5q0 -63 28 -93.5t76 -30.5q32 0 61 15.5t48 39.5
t23 48z" />
    <glyph glyph-name="Emacron" unicode="&#x112;" horiz-adv-x="645" 
d="M148.5 739.5q2.5 2.5 9.5 2.5h489q13 0 10 -19l-11 -75q-2 -9 -5.5 -12.5t-13.5 -3.5h-335q-8 0 -11 -2.5t-4 -10.5l-25 -180l-1 -6q0 -5 9 -5h234q8 0 10 -3t1 -10l-12 -85q-1 -6 -3.5 -8t-9.5 -2h-235q-6 0 -8.5 -3t-4.5 -11l-25 -185v-4q0 -7 6 -7h355q7 0 10 -3
t1 -11l-11 -84q-1 -7 -3.5 -9.5t-11.5 -2.5h-491q-11 0 -15 5t-2 17l100 707q1 8 3.5 10.5zM596 873q-1 -9 -5 -11.5t-15 -2.5h-305q-9 0 -13 6t-2 14l7 56q1 7 3 8.5t7 1.5h319q5 0 9 -5.5t3 -10.5z" />
    <glyph glyph-name="emacron" unicode="&#x113;" horiz-adv-x="584" 
d="M145 18.5q-53 28.5 -82.5 80.5t-29.5 120q0 83 38 156.5t107 119t155 45.5q102 0 162 -60.5t60 -167.5q0 -29 -4 -56q-2 -9 -6.5 -12.5t-15.5 -3.5h-351q-9 0 -12.5 -11t-3.5 -33q0 -54 34 -84.5t89 -30.5q43 0 79 17.5t68 54.5q5 5 10 5q3 0 11 -4l57 -28q10 -3 10 -11
q0 -4 -5 -11q-54 -63 -111.5 -88.5t-135.5 -25.5q-70 0 -123 28.5zM412 311q24 0 24 41q0 45 -27.5 75.5t-75.5 30.5q-39 0 -72.5 -20t-55 -54t-26.5 -73h233zM525 661q-1 -9 -5 -11.5t-15 -2.5h-305q-9 0 -13 6t-2 14l7 56q1 7 3 8.5t7 1.5h319q5 0 9 -5.5t3 -10.5z" />
    <glyph glyph-name="Ebreve" unicode="&#x114;" horiz-adv-x="645" 
d="M148.5 739.5q2.5 2.5 9.5 2.5h489q13 0 10 -19l-11 -75q-2 -9 -5.5 -12.5t-13.5 -3.5h-335q-8 0 -11 -2.5t-4 -10.5l-25 -180l-1 -6q0 -5 9 -5h234q8 0 10 -3t1 -10l-12 -85q-1 -6 -3.5 -8t-9.5 -2h-235q-6 0 -8.5 -3t-4.5 -11l-25 -185v-4q0 -7 6 -7h355q7 0 10 -3
t1 -11l-11 -84q-1 -7 -3.5 -9.5t-11.5 -2.5h-491q-11 0 -15 5t-2 17l100 707q1 8 3.5 10.5zM606 942q0 -5 -3 -10q-22 -46 -70.5 -74t-108.5 -28q-65 0 -105 27t-49 80v4q0 13 13 13h55q6 0 9 -3t5.5 -7.5t3.5 -6.5q27 -39 72 -39q29 0 53.5 13t39.5 34q6 9 18 9h55
q12 0 12 -12z" />
    <glyph glyph-name="ebreve" unicode="&#x115;" horiz-adv-x="584" 
d="M145 18.5q-53 28.5 -82.5 80.5t-29.5 120q0 83 38 156.5t107 119t155 45.5q102 0 162 -60.5t60 -167.5q0 -29 -4 -56q-2 -9 -6.5 -12.5t-15.5 -3.5h-351q-9 0 -12.5 -11t-3.5 -33q0 -54 34 -84.5t89 -30.5q43 0 79 17.5t68 54.5q5 5 10 5q3 0 11 -4l57 -28q10 -3 10 -11
q0 -4 -5 -11q-54 -63 -111.5 -88.5t-135.5 -25.5q-70 0 -123 28.5zM412 311q24 0 24 41q0 45 -27.5 75.5t-75.5 30.5q-39 0 -72.5 -20t-55 -54t-26.5 -73h233zM535 730q0 -5 -3 -10q-22 -46 -70.5 -74t-108.5 -28q-65 0 -105 27t-49 80v4q0 13 13 13h55q6 0 9 -3t5.5 -7.5
t3.5 -6.5q27 -39 72 -39q29 0 53.5 13t39.5 34q6 9 18 9h55q12 0 12 -12z" />
    <glyph glyph-name="Edotaccent" unicode="&#x116;" horiz-adv-x="645" 
d="M148.5 739.5q2.5 2.5 9.5 2.5h489q13 0 10 -19l-11 -75q-2 -9 -5.5 -12.5t-13.5 -3.5h-335q-8 0 -11 -2.5t-4 -10.5l-25 -180l-1 -6q0 -5 9 -5h234q8 0 10 -3t1 -10l-12 -85q-1 -6 -3.5 -8t-9.5 -2h-235q-6 0 -8.5 -3t-4.5 -11l-25 -185v-4q0 -7 6 -7h355q7 0 10 -3
t1 -11l-11 -84q-1 -7 -3.5 -9.5t-11.5 -2.5h-491q-11 0 -15 5t-2 17l100 707q1 8 3.5 10.5zM488 834q-2 -11 -6.5 -14t-17.5 -3h-91q-21 0 -19 22l14 102q2 8 4.5 10.5t9.5 2.5h106q7 0 10.5 -6t2.5 -14z" />
    <glyph glyph-name="edotaccent" unicode="&#x117;" horiz-adv-x="584" 
d="M145 18.5q-53 28.5 -82.5 80.5t-29.5 120q0 83 38 156.5t107 119t155 45.5q102 0 162 -60.5t60 -167.5q0 -29 -4 -56q-2 -9 -6.5 -12.5t-15.5 -3.5h-351q-9 0 -12.5 -11t-3.5 -33q0 -54 34 -84.5t89 -30.5q43 0 79 17.5t68 54.5q5 5 10 5q3 0 11 -4l57 -28q10 -3 10 -11
q0 -4 -5 -11q-54 -63 -111.5 -88.5t-135.5 -25.5q-70 0 -123 28.5zM412 311q24 0 24 41q0 45 -27.5 75.5t-75.5 30.5q-39 0 -72.5 -20t-55 -54t-26.5 -73h233zM363 622q-2 -11 -6.5 -14t-17.5 -3h-91q-21 0 -19 22l14 102q2 8 4.5 10.5t9.5 2.5h106q7 0 10.5 -6t2.5 -14z
" />
    <glyph glyph-name="Eogonek" unicode="&#x118;" horiz-adv-x="645" 
d="M657 723l-11 -75q-2 -9 -5.5 -12.5t-13.5 -3.5h-335q-8 0 -11 -2.5t-4 -10.5l-25 -180l-1 -6q0 -5 9 -5h234q8 0 10 -3t1 -10l-12 -85q-1 -6 -3.5 -8t-9.5 -2h-235q-6 0 -8.5 -3t-4.5 -11l-25 -185v-4q0 -7 6 -7h355q7 0 10 -3t1 -11l-11 -84q-1 -6 -3 -8.5t-8 -3.5
q-53 -19 -77 -38.5t-26 -43.5q-4 -30 33 -30q18 0 32.5 4.5t31.5 11.5q6 2 7 2q4 0 5.5 -3.5t0.5 -8.5l-5 -38q-2 -14 -10 -15q-43 -13 -92 -13t-75.5 19.5t-26.5 56.5q0 31 18.5 53.5t70.5 42.5h-382q-11 0 -15 5t-2 17l100 707q1 8 3.5 10.5t9.5 2.5h489q13 0 10 -19z" />
    <glyph glyph-name="eogonek" unicode="&#x119;" horiz-adv-x="584" 
d="M495 479.5q60 -60.5 60 -167.5q0 -29 -4 -56q-2 -9 -6.5 -12.5t-15.5 -3.5h-351q-9 0 -12.5 -11t-3.5 -33q0 -54 34 -84.5t89 -30.5q43 0 79 17.5t68 54.5q5 5 10 5q3 0 11 -4l57 -28q10 -3 10 -11q0 -4 -5 -11q-37 -43 -75 -68t-82 -36q-35 -16 -51.5 -32.5t-18.5 -36.5
q-4 -30 33 -30q18 0 32.5 4.5t31.5 11.5q6 2 7 2q4 0 5.5 -3.5t0.5 -8.5l-5 -38q-2 -14 -10 -15q-43 -13 -92 -13t-75.5 19.5t-26.5 56.5q0 24 9.5 41.5t34.5 33.5q-91 11 -145.5 72.5t-54.5 154.5q0 83 38 156.5t107 119t155 45.5q102 0 162 -60.5zM436 352
q0 45 -27.5 75.5t-75.5 30.5q-39 0 -72.5 -20t-55 -54t-26.5 -73h233q24 0 24 41z" />
    <glyph glyph-name="Ecaron" unicode="&#x11a;" horiz-adv-x="645" 
d="M148.5 739.5q2.5 2.5 9.5 2.5h489q13 0 10 -19l-11 -75q-2 -9 -5.5 -12.5t-13.5 -3.5h-335q-8 0 -11 -2.5t-4 -10.5l-25 -180l-1 -6q0 -5 9 -5h234q8 0 10 -3t1 -10l-12 -85q-1 -6 -3.5 -8t-9.5 -2h-235q-6 0 -8.5 -3t-4.5 -11l-25 -185v-4q0 -7 6 -7h355q7 0 10 -3
t1 -11l-11 -84q-1 -7 -3.5 -9.5t-11.5 -2.5h-491q-11 0 -15 5t-2 17l100 707q1 8 3.5 10.5zM505 954.5q4 0.5 7.5 0.5h5.5h77q10 0 10 -7q0 -5 -6 -11l-121 -106q-10 -8 -23 -8h-61q-18 0 -27 15l-93 105q-6 7 -6.5 9.5t6.5 2.5h71q8 0 12 -2.5t8 -8.5l47 -52q8 -8 11 -8
t8 5l9 9l56 52q5 4 9 4.5z" />
    <glyph glyph-name="ecaron" unicode="&#x11b;" horiz-adv-x="584" 
d="M145 18.5q-53 28.5 -82.5 80.5t-29.5 120q0 83 38 156.5t107 119t155 45.5q102 0 162 -60.5t60 -167.5q0 -29 -4 -56q-2 -9 -6.5 -12.5t-15.5 -3.5h-351q-9 0 -12.5 -11t-3.5 -33q0 -54 34 -84.5t89 -30.5q43 0 79 17.5t68 54.5q5 5 10 5q3 0 11 -4l57 -28q10 -3 10 -11
q0 -4 -5 -11q-54 -63 -111.5 -88.5t-135.5 -25.5q-70 0 -123 28.5zM412 311q24 0 24 41q0 45 -27.5 75.5t-75.5 30.5q-39 0 -72.5 -20t-55 -54t-26.5 -73h233zM434 742.5q4 0.5 7.5 0.5h5.5h77q10 0 10 -7q0 -5 -6 -11l-121 -106q-10 -8 -23 -8h-61q-18 0 -27 15l-93 105
q-6 7 -6.5 9.5t6.5 2.5h71q8 0 12 -2.5t8 -8.5l47 -52q8 -8 11 -8t8 5l9 9l56 52q5 4 9 4.5z" />
    <glyph glyph-name="Gcircumflex" unicode="&#x11c;" horiz-adv-x="747" 
d="M191.5 27q-63.5 37 -97 105.5t-33.5 161.5q0 125 47.5 229.5t135 166.5t203.5 62q76 0 136 -30t93.5 -79.5t34.5 -105.5q0 -9 -1.5 -12.5t-5.5 -4.5l-116 -17h-1q-4 0 -6 4.5t-4 17.5q-6 53 -41 87t-95 34q-77 0 -128 -54t-75.5 -139t-24.5 -179q0 -92 36.5 -135
t107.5 -43t119.5 41.5t66.5 98.5l7 38q2 6 2 7q0 5 -11 5h-137q-5 0 -7 2.5t-1 9.5l8 70q2 9 9 9l275 -1q10 0 13 -3.5t1 -11.5l-49 -349q-1 -12 -15 -12h-27q-8 0 -12.5 3t-6.5 11l-11 80q-1 5 -5 5q-6 0 -12 -7q-34 -44 -88.5 -73t-132.5 -29q-88 0 -151.5 37zM482 891
q-8 8 -10 8q-3 0 -7.5 -4t-9.5 -10l-62 -52q-5 -4 -8.5 -5t-6.5 -0.5t-6 0.5h-72q-4 0 -7 2.5t-3 5.5q0 5 5 10l121 105q7 5 13.5 7t17.5 2h61q10 0 15 -5.5t6 -7.5l91 -107q2 -2 5.5 -6t2.5 -5t-7 -1h-77q-12 0 -21 11z" />
    <glyph glyph-name="gcircumflex" unicode="&#x11d;" horiz-adv-x="622" 
d="M34.5 -142q-66.5 32 -66.5 89q0 38 28.5 66t76.5 46q12 5 12 9t-7 7q-21 10 -31.5 24t-10.5 36q0 32 29 55t70 37q12 5 12 10q0 3 -6 6q-36 16 -55 44t-19 66q0 61 34.5 102.5t90 62t120.5 20.5q115 0 168 -49q3 -3 7 -3q8 0 22 14q20 20 51 34t54 14q12 0 17 -4t4 -14
l-8 -56q-1 -13 -5 -17t-14 -4q-35 0 -55 -5q-16 -4 -22.5 -10t-2.5 -15q7 -21 7 -39q0 -59 -37 -98.5t-94.5 -58t-119.5 -18.5q-38 0 -82.5 -9t-44.5 -33q0 -11 14.5 -16t50.5 -7l137 -8q172 -9 172 -133q0 -95 -92 -136t-220 -41q-118 0 -184.5 32zM380.5 307
q37.5 30 37.5 86q0 36 -27 56t-77 20q-55 0 -93 -32.5t-38 -86.5q0 -34 27.5 -53.5t76.5 -19.5q56 0 93.5 30zM361 -85.5q51 22.5 51 69.5q0 24 -17.5 36t-58.5 14l-156 9q-41 -8 -71 -28.5t-30 -53.5q0 -69 146 -69q85 0 136 22.5zM369 679q-8 8 -10 8q-3 0 -7.5 -4
t-9.5 -10l-62 -52q-5 -4 -8.5 -5t-6.5 -0.5t-6 0.5h-72q-4 0 -7 2.5t-3 5.5q0 5 5 10l121 105q7 5 13.5 7t17.5 2h61q10 0 15 -5.5t6 -7.5l91 -107q2 -2 5.5 -6t2.5 -5t-7 -1h-77q-12 0 -21 11z" />
    <glyph glyph-name="Gbreve" unicode="&#x11e;" horiz-adv-x="747" 
d="M191.5 27q-63.5 37 -97 105.5t-33.5 161.5q0 125 47.5 229.5t135 166.5t203.5 62q76 0 136 -30t93.5 -79.5t34.5 -105.5q0 -9 -1.5 -12.5t-5.5 -4.5l-116 -17h-1q-4 0 -6 4.5t-4 17.5q-6 53 -41 87t-95 34q-77 0 -128 -54t-75.5 -139t-24.5 -179q0 -92 36.5 -135
t107.5 -43t119.5 41.5t66.5 98.5l7 38q2 6 2 7q0 5 -11 5h-137q-5 0 -7 2.5t-1 9.5l8 70q2 9 9 9l275 -1q10 0 13 -3.5t1 -11.5l-49 -349q-1 -12 -15 -12h-27q-8 0 -12.5 3t-6.5 11l-11 80q-1 5 -5 5q-6 0 -12 -7q-34 -44 -88.5 -73t-132.5 -29q-88 0 -151.5 37zM645 942
q0 -5 -3 -10q-22 -46 -70.5 -74t-108.5 -28q-65 0 -105 27t-49 80v4q0 13 13 13h55q6 0 9 -3t5.5 -7.5t3.5 -6.5q27 -39 72 -39q29 0 53.5 13t39.5 34q6 9 18 9h55q12 0 12 -12z" />
    <glyph glyph-name="gbreve" unicode="&#x11f;" horiz-adv-x="622" 
d="M34.5 -142q-66.5 32 -66.5 89q0 38 28.5 66t76.5 46q12 5 12 9t-7 7q-21 10 -31.5 24t-10.5 36q0 32 29 55t70 37q12 5 12 10q0 3 -6 6q-36 16 -55 44t-19 66q0 61 34.5 102.5t90 62t120.5 20.5q115 0 168 -49q3 -3 7 -3q8 0 22 14q20 20 51 34t54 14q12 0 17 -4t4 -14
l-8 -56q-1 -13 -5 -17t-14 -4q-35 0 -55 -5q-16 -4 -22.5 -10t-2.5 -15q7 -21 7 -39q0 -59 -37 -98.5t-94.5 -58t-119.5 -18.5q-38 0 -82.5 -9t-44.5 -33q0 -11 14.5 -16t50.5 -7l137 -8q172 -9 172 -133q0 -95 -92 -136t-220 -41q-118 0 -184.5 32zM380.5 307
q37.5 30 37.5 86q0 36 -27 56t-77 20q-55 0 -93 -32.5t-38 -86.5q0 -34 27.5 -53.5t76.5 -19.5q56 0 93.5 30zM361 -85.5q51 22.5 51 69.5q0 24 -17.5 36t-58.5 14l-156 9q-41 -8 -71 -28.5t-30 -53.5q0 -69 146 -69q85 0 136 22.5zM532 730q0 -5 -3 -10q-22 -46 -70.5 -74
t-108.5 -28q-65 0 -105 27t-49 80v4q0 13 13 13h55q6 0 9 -3t5.5 -7.5t3.5 -6.5q27 -39 72 -39q29 0 53.5 13t39.5 34q6 9 18 9h55q12 0 12 -12z" />
    <glyph glyph-name="Gdotaccent" unicode="&#x120;" horiz-adv-x="747" 
d="M191.5 27q-63.5 37 -97 105.5t-33.5 161.5q0 125 47.5 229.5t135 166.5t203.5 62q76 0 136 -30t93.5 -79.5t34.5 -105.5q0 -9 -1.5 -12.5t-5.5 -4.5l-116 -17h-1q-4 0 -6 4.5t-4 17.5q-6 53 -41 87t-95 34q-77 0 -128 -54t-75.5 -139t-24.5 -179q0 -92 36.5 -135
t107.5 -43t119.5 41.5t66.5 98.5l7 38q2 6 2 7q0 5 -11 5h-137q-5 0 -7 2.5t-1 9.5l8 70q2 9 9 9l275 -1q10 0 13 -3.5t1 -11.5l-49 -349q-1 -12 -15 -12h-27q-8 0 -12.5 3t-6.5 11l-11 80q-1 5 -5 5q-6 0 -12 -7q-34 -44 -88.5 -73t-132.5 -29q-88 0 -151.5 37zM527 834
q-2 -11 -6.5 -14t-17.5 -3h-91q-21 0 -19 22l14 102q2 8 4.5 10.5t9.5 2.5h106q7 0 10.5 -6t2.5 -14z" />
    <glyph glyph-name="gdotaccent" unicode="&#x121;" horiz-adv-x="622" 
d="M34.5 -142q-66.5 32 -66.5 89q0 38 28.5 66t76.5 46q12 5 12 9t-7 7q-21 10 -31.5 24t-10.5 36q0 32 29 55t70 37q12 5 12 10q0 3 -6 6q-36 16 -55 44t-19 66q0 61 34.5 102.5t90 62t120.5 20.5q115 0 168 -49q3 -3 7 -3q8 0 22 14q20 20 51 34t54 14q12 0 17 -4t4 -14
l-8 -56q-1 -13 -5 -17t-14 -4q-35 0 -55 -5q-16 -4 -22.5 -10t-2.5 -15q7 -21 7 -39q0 -59 -37 -98.5t-94.5 -58t-119.5 -18.5q-38 0 -82.5 -9t-44.5 -33q0 -11 14.5 -16t50.5 -7l137 -8q172 -9 172 -133q0 -95 -92 -136t-220 -41q-118 0 -184.5 32zM380.5 307
q37.5 30 37.5 86q0 36 -27 56t-77 20q-55 0 -93 -32.5t-38 -86.5q0 -34 27.5 -53.5t76.5 -19.5q56 0 93.5 30zM361 -85.5q51 22.5 51 69.5q0 24 -17.5 36t-58.5 14l-156 9q-41 -8 -71 -28.5t-30 -53.5q0 -69 146 -69q85 0 136 22.5zM414 622q-2 -11 -6.5 -14t-17.5 -3h-91
q-21 0 -19 22l14 102q2 8 4.5 10.5t9.5 2.5h106q7 0 10.5 -6t2.5 -14z" />
    <glyph glyph-name="Gcommaaccent" unicode="&#x122;" horiz-adv-x="747" 
d="M191.5 27q-63.5 37 -97 105.5t-33.5 161.5q0 125 47.5 229.5t135 166.5t203.5 62q76 0 136 -30t93.5 -79.5t34.5 -105.5q0 -9 -1.5 -12.5t-5.5 -4.5l-116 -17h-1q-4 0 -6 4.5t-4 17.5q-6 53 -41 87t-95 34q-77 0 -128 -54t-75.5 -139t-24.5 -179q0 -92 36.5 -135
t107.5 -43t119.5 41.5t66.5 98.5l7 38q2 6 2 7q0 5 -11 5h-137q-5 0 -7 2.5t-1 9.5l8 70q2 9 9 9l275 -1q10 0 13 -3.5t1 -11.5l-49 -349q-1 -12 -15 -12h-27q-8 0 -12.5 3t-6.5 11l-11 80q-1 5 -5 5q-6 0 -12 -7q-34 -44 -88.5 -73t-132.5 -29q-88 0 -151.5 37zM262.5 -238
q-0.5 4 3.5 8l40 53q5 6 5 12q0 7 -7 7h-20q-7 0 -8.5 3t-0.5 12l9 65q3 15 14 15h74q12 0 11 -11l-11 -79q-1 -7 -8 -16l-51 -59l-6 -6t-8 -6t-10 -2h-21q-5 0 -5.5 4z" />
    <glyph glyph-name="gcommaaccent" unicode="&#x123;" horiz-adv-x="622" 
d="M332 624l11 79q1 9 10 19l49 56q12 14 22 14h23q5 0 5 -4t-4 -8l-39 -53q-6 -9 -6 -13q0 -6 7 -6h21q7 0 9 -3.5t0 -11.5l-9 -65q-3 -15 -14 -15h-74q-12 0 -11 11zM34.5 -142q-66.5 32 -66.5 89q0 38 28.5 66t76.5 46q12 5 12 9t-7 7q-21 10 -31.5 24t-10.5 36
q0 32 29 55t70 37q12 5 12 10q0 3 -6 6q-36 16 -55 44t-19 66q0 61 34.5 102.5t90 62t120.5 20.5q115 0 168 -49q3 -3 7 -3q8 0 22 14q20 20 51 34t54 14q12 0 17 -4t4 -14l-8 -56q-1 -13 -5 -17t-14 -4q-35 0 -55 -5q-16 -4 -22.5 -10t-2.5 -15q7 -21 7 -39
q0 -59 -37 -98.5t-94.5 -58t-119.5 -18.5q-38 0 -82.5 -9t-44.5 -33q0 -11 14.5 -16t50.5 -7l137 -8q172 -9 172 -133q0 -95 -92 -136t-220 -41q-118 0 -184.5 32zM380.5 307q37.5 30 37.5 86q0 36 -27 56t-77 20q-55 0 -93 -32.5t-38 -86.5q0 -34 27.5 -53.5t76.5 -19.5
q56 0 93.5 30zM361 -85.5q51 22.5 51 69.5q0 24 -17.5 36t-58.5 14l-156 9q-41 -8 -71 -28.5t-30 -53.5q0 -69 146 -69q85 0 136 22.5z" />
    <glyph glyph-name="Hcircumflex" unicode="&#x124;" horiz-adv-x="746" 
d="M247 327q-12 0 -13 -15l-42 -296q-1 -10 -5.5 -13t-16.5 -3h-111q-10 0 -13 3.5t-2 13.5l101 712q1 8 3.5 10.5t9.5 2.5h124q7 0 9 -3t0 -11l-37 -273l-1 -6q0 -8 10 -8h269q12 0 14 19l38 270q1 7 4 9.5t10 2.5h123q7 0 9 -4.5t1 -16.5l-100 -706q-1 -10 -4 -12.5
t-14 -2.5h-110q-12 0 -16 4.5t-2 15.5l41 300v2q0 5 -10 5h-269zM476 891q-8 8 -10 8q-3 0 -7.5 -4t-9.5 -10l-62 -52q-5 -4 -8.5 -5t-6.5 -0.5t-6 0.5h-72q-4 0 -7 2.5t-3 5.5q0 5 5 10l121 105q7 5 13.5 7t17.5 2h61q10 0 15 -5.5t6 -7.5l91 -107q2 -2 5.5 -6t2.5 -5
t-7 -1h-77q-12 0 -21 11z" />
    <glyph glyph-name="hcircumflex" unicode="&#x125;" horiz-adv-x="592" 
d="M48 0q-10 0 -15 6t-4 16l100 707q1 7 4.5 10t11.5 3h99q14 0 11 -16l-35 -249v-5q0 -4 1.5 -4.5t5.5 1.5q57 39 98 55t85 16q69 0 106.5 -35t37.5 -95q0 -14 -3 -31l-51 -362q-1 -10 -5 -13.5t-15 -3.5h-93q-9 0 -13.5 6t-3.5 16l49 344q2 14 2 19q0 59 -69 59
q-36 0 -67.5 -17t-74.5 -55l-51 -356q-2 -10 -6 -13t-16 -3h-89zM360 895q-8 8 -10 8q-3 0 -7.5 -4t-9.5 -10l-62 -52q-5 -4 -8.5 -5t-6.5 -0.5t-6 0.5h-72q-4 0 -7 2.5t-3 5.5q0 5 5 10l121 105q7 5 13.5 7t17.5 2h61q10 0 15 -5.5t6 -7.5l91 -107q2 -2 5.5 -6t2.5 -5
t-7 -1h-77q-12 0 -21 11z" />
    <glyph glyph-name="Hbar" unicode="&#x126;" horiz-adv-x="759" 
d="M804 635q4 -6 3 -12l-7 -43q-1 -10 -4.5 -12.5t-15.5 -2.5h-94l-78 -550q-1 -10 -4 -12.5t-14 -2.5h-110q-12 0 -16 4.5t-2 15.5l41 300v2q0 5 -10 5h-269q-12 0 -13 -15l-42 -296q-1 -10 -5.5 -13t-16.5 -3h-111q-10 0 -13 3.5t-2 13.5l78 548h-35q-9 0 -13.5 6t-2.5 15
l5 43q1 7 3.5 9.5t7.5 2.5h46l12 88q1 8 3.5 10.5t9.5 2.5h124q7 0 9 -3t0 -11l-12 -87h292l13 89q1 7 4 9.5t10 2.5h123q7 0 9 -4.5t1 -16.5l-11 -80h98q5 0 9 -6zM538 565h-292l-15 -110l-1 -6q0 -8 10 -8h269q12 0 14 19z" />
    <glyph glyph-name="hbar" unicode="&#x127;" horiz-adv-x="557" 
d="M481.5 505q37.5 -35 37.5 -95q0 -14 -3 -31l-51 -362q-1 -10 -5 -13.5t-15 -3.5h-93q-9 0 -13.5 6t-3.5 16l49 344q2 14 2 19q0 59 -69 59q-36 0 -67.5 -17t-74.5 -55l-51 -356q-2 -10 -6 -13t-16 -3h-89q-10 0 -15 6t-4 16l82 579h-17q-9 0 -13 5t-3 14l7 46q1 7 3 8.5
t7 1.5h27l7 53q1 7 4.5 10t11.5 3h99q14 0 11 -16l-7 -50h160q4 0 8 -5.5t3 -10.5l-6 -46q-1 -9 -5 -11t-15 -2h-156l-17 -124v-5q0 -4 1.5 -4.5t5.5 1.5q57 39 98 55t85 16q69 0 106.5 -35z" />
    <glyph glyph-name="Itilde" unicode="&#x128;" horiz-adv-x="306" 
d="M279 742q15 0 12 -20l-99 -704q-1 -12 -5.5 -15t-17.5 -3h-108q-11 0 -14.5 5.5t-1.5 16.5l100 707q1 8 3.5 10.5t9.5 2.5h121zM314 849q-20 0 -36.5 4t-38.5 11q-37 13 -61 13q-22 0 -36 -6.5t-34 -20.5q-2 -1 -6 -1q-9 0 -12 15l-8 37q-2 8 -2 10q0 7 6 14q24 14 43 21
t44 7q20 0 36.5 -4t44.5 -13q37 -13 60 -13q35 0 70 27q2 1 7 1q12 0 14 -15l5 -44q1 -2 1 -7q0 -7 -9 -16q-47 -20 -88 -20z" />
    <glyph glyph-name="itilde" unicode="&#x129;" horiz-adv-x="256" 
d="M158 18q-1 -12 -5.5 -15t-17.5 -3h-87q-11 0 -16 6t-3 16l69 495q2 8 4.5 10.5t9.5 2.5h101q7 0 11.5 -5.5t3.5 -13.5zM257 637q-20 0 -36.5 4t-38.5 11q-37 13 -61 13q-22 0 -36 -6.5t-34 -20.5q-2 -1 -6 -1q-9 0 -12 15l-8 37q-2 8 -2 10q0 7 6 14q24 14 43 21t44 7
q20 0 36.5 -4t44.5 -13q37 -13 60 -13q35 0 70 27q2 1 7 1q12 0 14 -15l5 -44q1 -2 1 -7q0 -7 -9 -16q-47 -20 -88 -20z" />
    <glyph glyph-name="Imacron" unicode="&#x12a;" horiz-adv-x="306" 
d="M279 742q15 0 12 -20l-99 -704q-1 -12 -5.5 -15t-17.5 -3h-108q-11 0 -14.5 5.5t-1.5 16.5l100 707q1 8 3.5 10.5t9.5 2.5h121zM411 873q-1 -9 -5 -11.5t-15 -2.5h-305q-9 0 -13 6t-2 14l7 56q1 7 3 8.5t7 1.5h319q5 0 9 -5.5t3 -10.5z" />
    <glyph glyph-name="imacron" unicode="&#x12b;" horiz-adv-x="256" 
d="M158 18q-1 -12 -5.5 -15t-17.5 -3h-87q-11 0 -16 6t-3 16l69 495q2 8 4.5 10.5t9.5 2.5h101q7 0 11.5 -5.5t3.5 -13.5zM354 661q-1 -9 -5 -11.5t-15 -2.5h-305q-9 0 -13 6t-2 14l7 56q1 7 3 8.5t7 1.5h319q5 0 9 -5.5t3 -10.5z" />
    <glyph glyph-name="Ibreve" unicode="&#x12c;" horiz-adv-x="306" 
d="M279 742q15 0 12 -20l-99 -704q-1 -12 -5.5 -15t-17.5 -3h-108q-11 0 -14.5 5.5t-1.5 16.5l100 707q1 8 3.5 10.5t9.5 2.5h121zM421 942q0 -5 -3 -10q-22 -46 -70.5 -74t-108.5 -28q-65 0 -105 27t-49 80v4q0 13 13 13h55q6 0 9 -3t5.5 -7.5t3.5 -6.5q27 -39 72 -39
q29 0 53.5 13t39.5 34q6 9 18 9h55q12 0 12 -12z" />
    <glyph glyph-name="ibreve" unicode="&#x12d;" horiz-adv-x="256" 
d="M158 18q-1 -12 -5.5 -15t-17.5 -3h-87q-11 0 -16 6t-3 16l69 495q2 8 4.5 10.5t9.5 2.5h101q7 0 11.5 -5.5t3.5 -13.5zM364 730q0 -5 -3 -10q-22 -46 -70.5 -74t-108.5 -28q-65 0 -105 27t-49 80v4q0 13 13 13h55q6 0 9 -3t5.5 -7.5t3.5 -6.5q27 -39 72 -39q29 0 53.5 13
t39.5 34q6 9 18 9h55q12 0 12 -12z" />
    <glyph glyph-name="Iogonek" unicode="&#x12e;" horiz-adv-x="306" 
d="M291 722l-99 -704q-1 -12 -5.5 -15t-17.5 -3h-9q-52 -19 -75 -38t-25 -43q-4 -30 33 -30q18 0 32.5 4.5t31.5 11.5q6 2 7 2q4 0 5.5 -3.5t0.5 -8.5l-5 -38q-2 -14 -10 -15q-43 -13 -92 -13t-75.5 19.5t-26.5 56.5q0 32 19 54.5t72 42.5q-10 4 -7 20l100 707q1 8 3.5 10.5
t9.5 2.5h121q15 0 12 -20z" />
    <glyph glyph-name="iogonek" unicode="&#x12f;" horiz-adv-x="256" 
d="M256.5 736q3.5 -6 2.5 -14l-13 -100q-2 -11 -6.5 -14t-17.5 -3h-91q-21 0 -19 22l14 102q2 8 4.5 10.5t9.5 2.5h106q7 0 10.5 -6zM224.5 524.5q4.5 -5.5 3.5 -13.5l-70 -493q-2 -10 -4.5 -13.5t-9.5 -4.5q-52 -19 -75.5 -38t-25.5 -43q-4 -30 33 -30q18 0 32.5 4.5
t31.5 11.5q6 2 7 2q4 0 5.5 -3.5t0.5 -8.5l-5 -38q-2 -14 -10 -15q-43 -13 -92 -13t-75.5 19.5t-26.5 56.5q0 32 19.5 54.5t73.5 42.5q-10 5 -8 20l69 495q2 8 4.5 10.5t9.5 2.5h101q7 0 11.5 -5.5z" />
    <glyph glyph-name="Idotaccent" unicode="&#x130;" horiz-adv-x="306" 
d="M279 742q15 0 12 -20l-99 -704q-1 -12 -5.5 -15t-17.5 -3h-108q-11 0 -14.5 5.5t-1.5 16.5l100 707q1 8 3.5 10.5t9.5 2.5h121zM303 834q-2 -11 -6.5 -14t-17.5 -3h-91q-21 0 -19 22l14 102q2 8 4.5 10.5t9.5 2.5h106q7 0 10.5 -6t2.5 -14z" />
    <glyph glyph-name="dotlessi" unicode="&#x131;" horiz-adv-x="256" 
d="M158 18q-1 -12 -5.5 -15t-17.5 -3h-87q-11 0 -16 6t-3 16l69 495q2 8 4.5 10.5t9.5 2.5h101q7 0 11.5 -5.5t3.5 -13.5z" />
    <glyph glyph-name="IJ" unicode="&#x132;" horiz-adv-x="743" 
d="M279 742q15 0 12 -20l-99 -704q-1 -12 -5.5 -15t-17.5 -3h-108q-11 0 -14.5 5.5t-1.5 16.5l100 707q1 8 3.5 10.5t9.5 2.5h121zM591.5 34.5q-51.5 -44.5 -147.5 -44.5q-55 0 -117 19q-13 5 -17 8.5t-3 10.5l23 87q2 8 5 10t11 0q14 -4 31.5 -8t35.5 -4q45 0 69.5 26
t32.5 83l71 507q1 8 4 10.5t10 2.5h123q13 0 10 -20l-76 -544q-14 -99 -65.5 -143.5z" />
    <glyph glyph-name="ij" unicode="&#x133;" horiz-adv-x="512" 
d="M246 624q-2 -11 -7 -15t-18 -4h-96q-17 0 -13 24l14 95q2 18 17 18h106q6 0 9 -6t1 -15zM158 18q-1 -12 -5.5 -15t-17.5 -3h-87q-11 0 -16 6t-3 16l69 495q1 8 4 10.5t10 2.5h105q6 0 9 -5.5t2 -13.5zM502 624q-2 -11 -7 -15t-18 -4h-96q-17 0 -13 24l14 95q2 18 17 18
h106q6 0 9 -6t1 -15zM356 -132q-43 -38 -130 -38q-43 0 -57 4.5t-12 17.5l9 66q2 12 13 15l46 4q24 2 38.5 17.5t19.5 49.5l72 513q1 8 4 10.5t10 2.5h101q7 0 11 -6t3 -13l-73 -521q-12 -84 -55 -122z" />
    <glyph glyph-name="Jcircumflex" unicode="&#x134;" horiz-adv-x="437" 
d="M285.5 34.5q-51.5 -44.5 -147.5 -44.5q-55 0 -117 19q-13 5 -17 8.5t-3 10.5l23 87q2 8 5 10t11 0q14 -4 31.5 -8t35.5 -4q45 0 69.5 26t32.5 83l71 507q1 8 4 10.5t10 2.5h123q13 0 10 -20l-76 -544q-14 -99 -65.5 -143.5zM356 891q-8 8 -10 8q-3 0 -7.5 -4t-9.5 -10
l-62 -52q-5 -4 -8.5 -5t-6.5 -0.5t-6 0.5h-72q-4 0 -7 2.5t-3 5.5q0 5 5 10l121 105q7 5 13.5 7t17.5 2h61q10 0 15 -5.5t6 -7.5l91 -107q2 -2 5.5 -6t2.5 -5t-7 -1h-77q-12 0 -21 11z" />
    <glyph glyph-name="jcircumflex" unicode="&#x135;" horiz-adv-x="251" 
d="M91 -130.5q-47 -39.5 -126 -39.5q-40 0 -53 5t-11 17l9 66q2 12 13 15l40 4q24 2 38.5 17.5t19.5 49.5l72 513q1 8 4 10.5t11 2.5h101q7 0 11 -6t3 -13l-74 -521q-11 -81 -58 -120.5zM194 679q-8 8 -10 8q-3 0 -7.5 -4t-9.5 -10l-62 -52q-5 -4 -8.5 -5t-6.5 -0.5t-6 0.5
h-72q-4 0 -7 2.5t-3 5.5q0 5 5 10l121 105q7 5 13.5 7t17.5 2h61q10 0 15 -5.5t6 -7.5l91 -107q2 -2 5.5 -6t2.5 -5t-7 -1h-77q-12 0 -21 11z" />
    <glyph glyph-name="Kcommaaccent" unicode="&#x136;" horiz-adv-x="729" 
d="M657 9q0 -9 -13 -9h-126q-17 0 -20 17l-136 333q-1 3 -3 3q-3 0 -7.5 -5t-6.5 -7l-114 -115q-10 -9 -13 -21l-26 -189q-1 -9 -5.5 -12.5t-16.5 -3.5h-111q-17 0 -14 22l100 707q1 8 3.5 10.5t9.5 2.5h120q7 0 11 -5.5t2 -13.5l-45 -322l-1 -5q0 -1 1 -1l10 10l317 326
q6 7 12 9t19 2h113q13 0 13 -7q0 -5 -5 -10l-245 -243q-6 -7 -7.5 -10.5t-0.5 -10.5l182 -442q3 -6 3 -10zM240.5 -238q-0.5 4 3.5 8l40 53q5 6 5 12q0 7 -7 7h-20q-7 0 -8.5 3t-0.5 12l9 65q3 15 14 15h74q12 0 11 -11l-11 -79q-1 -7 -8 -16l-51 -59l-6 -6t-8 -6t-10 -2
h-21q-5 0 -5.5 4z" />
    <glyph glyph-name="kcommaaccent" unicode="&#x137;" horiz-adv-x="590" 
d="M532 9q0 -9 -13 -9h-109q-9 0 -13.5 5.5t-8.5 15.5l-89 222q-3 7 -6 7t-10 -5l-94 -85q-12 -10 -14 -24l-16 -118q-2 -12 -6 -15t-17 -3h-87q-22 0 -20 22l100 707q1 8 3.5 10.5t9.5 2.5h106q13 0 9 -20l-59 -429l-1 -4q0 -2 9 7l241 223q12 11 25 11h91q8 0 13 -4t5 -9
q0 -7 -7 -13l-168 -148q-7 -6 -9.5 -11.5t0.5 -13.5l133 -313q2 -6 2 -9zM170.5 -238q-0.5 4 3.5 8l40 53q5 6 5 12q0 7 -7 7h-20q-7 0 -8.5 3t-0.5 12l9 65q3 15 14 15h74q12 0 11 -11l-11 -79q-1 -7 -8 -16l-51 -59l-6 -6t-8 -6t-10 -2h-21q-5 0 -5.5 4z" />
    <glyph glyph-name="kgreenlandic" unicode="&#x138;" horiz-adv-x="590" 
d="M532 9q0 -9 -13 -9h-109q-9 0 -14.5 6t-7.5 15l-89 224q-2 5 -5 5q-2 0 -10 -8l-95 -82q-12 -10 -14 -24l-16 -118q-2 -12 -6 -15t-17 -3h-87q-22 0 -20 22l70 495q1 8 3.5 10.5t9.5 2.5h102q7 0 11 -5.5t3 -14.5l-30 -217l-1 -4q0 -2 9 7l241 223q12 11 25 11h91
q8 0 13 -4t5 -9q0 -7 -7 -13l-168 -148q-7 -6 -9.5 -11.5t0.5 -13.5l133 -313q2 -6 2 -9z" />
    <glyph glyph-name="Lacute" unicode="&#x139;" horiz-adv-x="619" 
d="M148.5 739q3.5 3 10.5 3h122q13 0 10 -20l-84 -599l-1 -5q0 -8 10 -8h330q14 0 12 -18l-11 -80q-1 -7 -4.5 -9.5t-11.5 -2.5h-469q-20 0 -17 22l99 705q1 9 4.5 12zM486 892q1 -3 1 -8t-3 -7.5t-11 -4.5l-239 -66q-2 -1 -6 -1q-12 0 -15 15l-7 30q-1 3 -1 8q0 7 5 8
l248 98l3 1q4 0 7.5 -4t4.5 -9z" />
    <glyph glyph-name="lacute" unicode="&#x13a;" horiz-adv-x="257" 
d="M159 18q-2 -12 -6 -15t-18 -3h-87q-11 0 -16.5 6t-3.5 16l103 707q1 8 3.5 10.5t9.5 2.5h104q13 0 10 -17zM356 892q1 -3 1 -8t-3 -7.5t-11 -4.5l-239 -66q-2 -1 -6 -1q-12 0 -15 15l-7 30q-1 3 -1 8q0 7 5 8l248 98l3 1q4 0 7.5 -4t4.5 -9z" />
    <glyph glyph-name="Lcommaaccent" unicode="&#x13b;" horiz-adv-x="619" 
d="M148.5 739q3.5 3 10.5 3h122q13 0 10 -20l-84 -599l-1 -5q0 -8 10 -8h330q14 0 12 -18l-11 -80q-1 -7 -4.5 -9.5t-11.5 -2.5h-469q-20 0 -17 22l99 705q1 9 4.5 12zM168.5 -238q-0.5 4 3.5 8l40 53q5 6 5 12q0 7 -7 7h-20q-7 0 -8.5 3t-0.5 12l9 65q3 15 14 15h74
q12 0 11 -11l-11 -79q-1 -7 -8 -16l-51 -59l-6 -6t-8 -6t-10 -2h-21q-5 0 -5.5 4z" />
    <glyph glyph-name="lcommaaccent" unicode="&#x13c;" horiz-adv-x="257" 
d="M159 18q-2 -12 -6 -15t-18 -3h-87q-11 0 -16.5 6t-3.5 16l103 707q1 8 3.5 10.5t9.5 2.5h104q13 0 10 -17zM12.5 -238q-0.5 4 3.5 8l40 53q5 6 5 12q0 7 -7 7h-20q-7 0 -8.5 3t-0.5 12l9 65q3 15 14 15h74q12 0 11 -11l-11 -79q-1 -7 -8 -16l-51 -59l-6 -6t-8 -6t-10 -2
h-21q-5 0 -5.5 4z" />
    <glyph glyph-name="Lcaron" unicode="&#x13d;" horiz-adv-x="619" 
d="M148.5 739q3.5 3 10.5 3h122q13 0 10 -20l-84 -599l-1 -5q0 -8 10 -8h330q14 0 12 -18l-11 -80q-1 -7 -4.5 -9.5t-11.5 -2.5h-469q-20 0 -17 22l99 705q1 9 4.5 12zM431.5 532.5q-3.5 5.5 -1.5 9.5l42 74q1 3 3 6.5t1 4.5t-4 2l-8 1q-17 2 -15 17l13 87q1 6 2 7t6 1h74
q5 0 8 -4.5t2 -9.5l-14 -102l-3 -7l-47 -84q-3 -6 -6.5 -7t-15.5 -1h-28q-5 0 -8.5 5.5z" />
    <glyph glyph-name="lcaron" unicode="&#x13e;" horiz-adv-x="376" 
d="M159 18q-2 -12 -6 -15t-18 -3h-87q-11 0 -16.5 6t-3.5 16l103 707q1 8 3.5 10.5t9.5 2.5h104q13 0 10 -17zM294.5 532.5q-3.5 5.5 -1.5 9.5l42 74q1 3 3 6.5t1 4.5t-4 2l-8 1q-17 2 -15 17l13 87q1 6 2 7t6 1h74q5 0 8 -4.5t2 -9.5l-14 -102l-3 -7l-47 -84q-3 -6 -6.5 -7
t-15.5 -1h-28q-5 0 -8.5 5.5z" />
    <glyph glyph-name="Ldot" unicode="&#x13f;" horiz-adv-x="616" 
d="M111.5 739q3.5 3 10.5 3h122q13 0 10 -20l-84 -599l-1 -5q0 -8 10 -8h330q14 0 12 -18l-11 -80q-1 -7 -4.5 -9.5t-11.5 -2.5h-469q-20 0 -17 22l99 705q1 9 4.5 12zM515 356q-1 -11 -5 -13.5t-16 -2.5h-101q-10 0 -15 5.5t-3 14.5l15 104q1 8 3 9.5t8 1.5h116q6 0 9.5 -5
t2.5 -12z" />
    <glyph glyph-name="ldot" unicode="&#x140;" horiz-adv-x="394" 
d="M159 18q-2 -12 -6 -15t-18 -3h-87q-11 0 -16.5 6t-3.5 16l103 707q1 8 3.5 10.5t9.5 2.5h104q13 0 10 -17zM363 241q-1 -11 -5 -13.5t-16 -2.5h-101q-10 0 -15 5.5t-3 14.5l15 104q1 8 3 9.5t8 1.5h116q6 0 9.5 -5t2.5 -12z" />
    <glyph glyph-name="Lslash" unicode="&#x141;" horiz-adv-x="582" 
d="M521 92l-11 -80q-1 -7 -4.5 -9.5t-11.5 -2.5h-469q-20 0 -17 22l40 287l-30 -8q-2 -1 -6 -1q-6 0 -9.5 5.5t-2.5 12.5l11 78q1 8 3.5 10t8.5 4l41 10l43 307q1 9 4.5 12t10.5 3h122q13 0 10 -20l-37 -262l170 43l4 1q7 0 11 -5.5t2 -12.5l-10 -74q-2 -7 -4 -10t-10 -5
l-178 -47l-32 -227l-1 -5q0 -8 10 -8h330q14 0 12 -18z" />
    <glyph glyph-name="lslash" unicode="&#x142;" horiz-adv-x="311" 
d="M318 477q10 0 8 -15l-11 -77q-2 -12 -14 -22l-80 -55l-41 -290q-2 -12 -6 -15t-18 -3h-87q-11 0 -16.5 6t-3.5 16l27 186l-57 -39q-5 -4 -10 -4t-7.5 4.5t-1.5 11.5l12 80q1 14 14 22l68 46l58 400q1 8 3.5 10.5t9.5 2.5h104q13 0 10 -17l-42 -300l72 49q5 3 9 3z" />
    <glyph glyph-name="Nacute" unicode="&#x143;" horiz-adv-x="758" 
d="M734 742q12 0 10 -14l-101 -717q-1 -7 -4 -9t-11 -2h-84q-13 0 -21 14l-275 486q-3 6 -7 6t-6 -11l-68 -481q-2 -8 -5 -11t-13 -3h-92q-15 0 -13 19l101 710q1 8 3.5 10.5t11.5 2.5h99q9 0 14 -3.5t10 -12.5l257 -463q4 -7 10 -7q7 0 8 12l65 462q2 8 4.5 10t10.5 2h96z
M612 892q1 -3 1 -8t-3 -7.5t-11 -4.5l-239 -66q-2 -1 -6 -1q-12 0 -15 15l-7 30q-1 3 -1 8q0 7 5 8l248 98l3 1q4 0 7.5 -4t4.5 -9z" />
    <glyph glyph-name="nacute" unicode="&#x144;" horiz-adv-x="592" 
d="M29 22l69 495q2 8 4 10.5t9 2.5h106q6 0 8 -2.5t1 -9.5l-8 -53v-3q0 -4 2 -4q1 0 8 5q93 77 181 77q68 0 106 -36t38 -96q0 -9 -2 -27l-51 -364q-1 -10 -5.5 -13.5t-15.5 -3.5h-96q-16 0 -13 22l49 341l2 21q0 60 -69 60q-36 0 -67.5 -17t-75.5 -55l-51 -356
q-1 -10 -6 -13t-17 -3h-93q-16 0 -13 22zM499 680q1 -3 1 -8t-3 -7.5t-11 -4.5l-239 -66q-2 -1 -6 -1q-12 0 -15 15l-7 30q-1 3 -1 8q0 7 5 8l248 98l3 1q4 0 7.5 -4t4.5 -9z" />
    <glyph glyph-name="Ncommaaccent" unicode="&#x145;" horiz-adv-x="758" 
d="M734 742q12 0 10 -14l-101 -717q-1 -7 -4 -9t-11 -2h-84q-13 0 -21 14l-275 486q-3 6 -7 6t-6 -11l-68 -481q-2 -8 -5 -11t-13 -3h-92q-15 0 -13 19l101 710q1 8 3.5 10.5t11.5 2.5h99q9 0 14 -3.5t10 -12.5l257 -463q4 -7 10 -7q7 0 8 12l65 462q2 8 4.5 10t10.5 2h96z
M252.5 -238q-0.5 4 3.5 8l40 53q5 6 5 12q0 7 -7 7h-20q-7 0 -8.5 3t-0.5 12l9 65q3 15 14 15h74q12 0 11 -11l-11 -79q-1 -7 -8 -16l-51 -59l-6 -6t-8 -6t-10 -2h-21q-5 0 -5.5 4z" />
    <glyph glyph-name="ncommaaccent" unicode="&#x146;" horiz-adv-x="592" 
d="M29 22l69 495q2 8 4 10.5t9 2.5h106q6 0 8 -2.5t1 -9.5l-8 -53v-3q0 -4 2 -4q1 0 8 5q93 77 181 77q68 0 106 -36t38 -96q0 -9 -2 -27l-51 -364q-1 -10 -5.5 -13.5t-15.5 -3.5h-96q-16 0 -13 22l49 341l2 21q0 60 -69 60q-36 0 -67.5 -17t-75.5 -55l-51 -356
q-1 -10 -6 -13t-17 -3h-93q-16 0 -13 22zM180.5 -238q-0.5 4 3.5 8l40 53q5 6 5 12q0 7 -7 7h-20q-7 0 -8.5 3t-0.5 12l9 65q3 15 14 15h74q12 0 11 -11l-11 -79q-1 -7 -8 -16l-51 -59l-6 -6t-8 -6t-10 -2h-21q-5 0 -5.5 4z" />
    <glyph glyph-name="Ncaron" unicode="&#x147;" horiz-adv-x="758" 
d="M734 742q12 0 10 -14l-101 -717q-1 -7 -4 -9t-11 -2h-84q-13 0 -21 14l-275 486q-3 6 -7 6t-6 -11l-68 -481q-2 -8 -5 -11t-13 -3h-92q-15 0 -13 19l101 710q1 8 3.5 10.5t11.5 2.5h99q9 0 14 -3.5t10 -12.5l257 -463q4 -7 10 -7q7 0 8 12l65 462q2 8 4.5 10t10.5 2h96z
M552 954.5q4 0.5 7.5 0.5h5.5h77q10 0 10 -7q0 -5 -6 -11l-121 -106q-10 -8 -23 -8h-61q-18 0 -27 15l-93 105q-6 7 -6.5 9.5t6.5 2.5h71q8 0 12 -2.5t8 -8.5l47 -52q8 -8 11 -8t8 5l9 9l56 52q5 4 9 4.5z" />
    <glyph glyph-name="ncaron" unicode="&#x148;" horiz-adv-x="592" 
d="M29 22l69 495q2 8 4 10.5t9 2.5h106q6 0 8 -2.5t1 -9.5l-8 -53v-3q0 -4 2 -4q1 0 8 5q93 77 181 77q68 0 106 -36t38 -96q0 -9 -2 -27l-51 -364q-1 -10 -5.5 -13.5t-15.5 -3.5h-96q-16 0 -13 22l49 341l2 21q0 60 -69 60q-36 0 -67.5 -17t-75.5 -55l-51 -356
q-1 -10 -6 -13t-17 -3h-93q-16 0 -13 22zM439 742.5q4 0.5 7.5 0.5h5.5h77q10 0 10 -7q0 -5 -6 -11l-121 -106q-10 -8 -23 -8h-61q-18 0 -27 15l-93 105q-6 7 -6.5 9.5t6.5 2.5h71q8 0 12 -2.5t8 -8.5l47 -52q8 -8 11 -8t8 5l9 9l56 52q5 4 9 4.5z" />
    <glyph glyph-name="napostrophe" unicode="&#x149;" horiz-adv-x="678" 
d="M65 468l48 113q2 6 2 7q0 9 -10 11l-8 2q-2 0 -5.5 0.5t-4.5 2.5t0 6l17 116q1 6 5.5 11t9.5 5h75q4 0 5 -1t0 -5l-18 -131q0 -2 -2 -4t-2 -4l-54 -123q-5 -15 -26 -15h-29q-8 0 -3 9zM115 22l69 495q2 8 4 10.5t9 2.5h106q6 0 8 -2.5t1 -9.5l-8 -53v-3q0 -4 2 -4
q1 0 8 5q93 77 181 77q68 0 106 -36t38 -96q0 -9 -2 -27l-51 -364q-1 -10 -5.5 -13.5t-15.5 -3.5h-96q-16 0 -13 22l49 341l2 21q0 60 -69 60q-36 0 -67.5 -17t-75.5 -55l-51 -356q-1 -10 -6 -13t-17 -3h-93q-16 0 -13 22z" />
    <glyph glyph-name="Eng" unicode="&#x14a;" horiz-adv-x="758" 
d="M741.5 737q3.5 -5 2.5 -13l-101 -721q-13 -93 -63 -135.5t-144 -42.5q-51 0 -107 15q-11 2 -16.5 9.5t-3.5 20.5l17 75q2 8 4.5 10t8.5 0q6 -1 26 -4.5t38 -3.5q84 0 98 88l5 25l-259 441q-1 3 -5 3q-5 0 -7 -11l-68 -480q-1 -9 -4 -11t-13 -2h-87q-9 0 -14.5 5.5
t-4.5 13.5l101 710q1 9 3.5 11t11.5 2h101q9 0 13.5 -3.5t9.5 -12.5l260 -441q3 -5 7 -5t7 4.5t5 10.5l61 435q1 8 3.5 10t10.5 2h93q7 0 10.5 -5z" />
    <glyph glyph-name="eng" unicode="&#x14b;" horiz-adv-x="596" 
d="M515.5 504q38.5 -36 38.5 -96q0 -9 -2 -27l-55 -386q-12 -81 -61 -123t-124 -42q-37 0 -50 5t-11 17l10 65q1 7 3.5 10.5t9.5 4.5l37 4q24 2 38.5 18t19.5 50l50 360q1 7 1 19q0 62 -70 62q-64 0 -139 -73l-52 -356q-1 -10 -5.5 -13t-16.5 -3h-90q-10 0 -15 6t-3 16
l72 495q1 8 3.5 10.5t9.5 2.5h98q7 0 11 -5.5t3 -13.5l-8 -52v-2q0 -2 1 -2t8 10q53 40 96 57.5t87 17.5q67 0 105.5 -36z" />
    <glyph glyph-name="Omacron" unicode="&#x14c;" horiz-adv-x="770" 
d="M137.5 69.5q-76.5 79.5 -76.5 222.5q0 40 6 83q16 117 68 202t132.5 130t181.5 45q136 0 212.5 -81t76.5 -226q0 -48 -6 -83q-16 -116 -67.5 -199.5t-131.5 -128t-181 -44.5q-138 0 -214.5 79.5zM505.5 163.5q54.5 67.5 74.5 210.5q7 53 7 99q0 89 -35 131.5t-106 42.5
q-93 0 -149 -70.5t-77 -216.5q-8 -56 -8 -94q0 -88 36 -129t109 -41q94 0 148.5 67.5zM642 873q-1 -9 -5 -11.5t-15 -2.5h-305q-9 0 -13 6t-2 14l7 56q1 7 3 8.5t7 1.5h319q5 0 9 -5.5t3 -10.5z" />
    <glyph glyph-name="omacron" unicode="&#x14d;" horiz-adv-x="599" 
d="M142.5 19q-52.5 29 -81 81t-28.5 121q0 91 41 164t110 114t150 41q70 0 122.5 -29.5t80.5 -83t28 -122.5q0 -89 -39.5 -161t-108 -113t-152.5 -41q-70 0 -122.5 29zM354 108.5q38 29.5 60 86.5t22 134q0 60 -27 92.5t-77 32.5q-47 0 -85.5 -30.5t-61 -87.5t-22.5 -134
q0 -59 27.5 -91t78.5 -32q47 0 85 29.5zM526 661q-1 -9 -5 -11.5t-15 -2.5h-305q-9 0 -13 6t-2 14l7 56q1 7 3 8.5t7 1.5h319q5 0 9 -5.5t3 -10.5z" />
    <glyph glyph-name="Obreve" unicode="&#x14e;" horiz-adv-x="770" 
d="M137.5 69.5q-76.5 79.5 -76.5 222.5q0 40 6 83q16 117 68 202t132.5 130t181.5 45q136 0 212.5 -81t76.5 -226q0 -48 -6 -83q-16 -116 -67.5 -199.5t-131.5 -128t-181 -44.5q-138 0 -214.5 79.5zM505.5 163.5q54.5 67.5 74.5 210.5q7 53 7 99q0 89 -35 131.5t-106 42.5
q-93 0 -149 -70.5t-77 -216.5q-8 -56 -8 -94q0 -88 36 -129t109 -41q94 0 148.5 67.5zM652 942q0 -5 -3 -10q-22 -46 -70.5 -74t-108.5 -28q-65 0 -105 27t-49 80v4q0 13 13 13h55q6 0 9 -3t5.5 -7.5t3.5 -6.5q27 -39 72 -39q29 0 53.5 13t39.5 34q6 9 18 9h55q12 0 12 -12z
" />
    <glyph glyph-name="obreve" unicode="&#x14f;" horiz-adv-x="599" 
d="M142.5 19q-52.5 29 -81 81t-28.5 121q0 91 41 164t110 114t150 41q70 0 122.5 -29.5t80.5 -83t28 -122.5q0 -89 -39.5 -161t-108 -113t-152.5 -41q-70 0 -122.5 29zM354 108.5q38 29.5 60 86.5t22 134q0 60 -27 92.5t-77 32.5q-47 0 -85.5 -30.5t-61 -87.5t-22.5 -134
q0 -59 27.5 -91t78.5 -32q47 0 85 29.5zM536 730q0 -5 -3 -10q-22 -46 -70.5 -74t-108.5 -28q-65 0 -105 27t-49 80v4q0 13 13 13h55q6 0 9 -3t5.5 -7.5t3.5 -6.5q27 -39 72 -39q29 0 53.5 13t39.5 34q6 9 18 9h55q12 0 12 -12z" />
    <glyph glyph-name="Ohungarumlaut" unicode="&#x150;" horiz-adv-x="770" 
d="M137.5 69.5q-76.5 79.5 -76.5 222.5q0 40 6 83q16 117 68 202t132.5 130t181.5 45q136 0 212.5 -81t76.5 -226q0 -48 -6 -83q-16 -116 -67.5 -199.5t-131.5 -128t-181 -44.5q-138 0 -214.5 79.5zM505.5 163.5q54.5 67.5 74.5 210.5q7 53 7 99q0 89 -35 131.5t-106 42.5
q-93 0 -149 -70.5t-77 -216.5q-8 -56 -8 -94q0 -88 36 -129t109 -41q94 0 148.5 67.5zM495 910q6 -10 6 -14q0 -7 -9 -12l-149 -98q-6 -3 -11 -3q-7 0 -11 9l-19 25q-12 12 -5 18l149 128l5 2q5 0 12 -9zM680 910q6 -10 6 -14q0 -7 -9 -12l-149 -98q-6 -3 -11 -3q-7 0 -11 9
l-19 25q-12 12 -5 18l149 128q4 2 5 2q3 0 6 -3t5 -6z" />
    <glyph glyph-name="ohungarumlaut" unicode="&#x151;" horiz-adv-x="599" 
d="M142.5 19q-52.5 29 -81 81t-28.5 121q0 91 41 164t110 114t150 41q70 0 122.5 -29.5t80.5 -83t28 -122.5q0 -89 -39.5 -161t-108 -113t-152.5 -41q-70 0 -122.5 29zM354 108.5q38 29.5 60 86.5t22 134q0 60 -27 92.5t-77 32.5q-47 0 -85.5 -30.5t-61 -87.5t-22.5 -134
q0 -59 27.5 -91t78.5 -32q47 0 85 29.5zM379 698q6 -10 6 -14q0 -7 -9 -12l-149 -98q-6 -3 -11 -3q-7 0 -11 9l-19 25q-12 12 -5 18l149 128l5 2q5 0 12 -9zM564 698q6 -10 6 -14q0 -7 -9 -12l-149 -98q-6 -3 -11 -3q-7 0 -11 9l-19 25q-12 12 -5 18l149 128q4 2 5 2
q3 0 6 -3t5 -6z" />
    <glyph glyph-name="OE" unicode="&#x152;" horiz-adv-x="1127" 
d="M1057.5 105q4.5 -5 3.5 -13l-11 -80q-2 -7 -4.5 -9.5t-11.5 -2.5h-441q-11 0 -16 5l-20 55q-74 -70 -198 -70q-143 0 -220.5 79t-77.5 223q0 40 6 83q16 118 69 202.5t136 129.5t190 45q125 0 177 -73l32 59q4 4 16 4h438q7 0 10.5 -5.5t2.5 -13.5l-11 -76q-2 -9 -5 -12
t-13 -3h-325q-9 0 -15.5 -5t-7.5 -13l-24 -175v-4q0 -5 2 -6t8 -1h222q7 0 12 -5.5t4 -12.5l-12 -82q-1 -5 -3 -6.5t-9 -1.5h-225q-6 0 -11.5 -5t-6.5 -11l-26 -186l-1 -6q0 -2 3 -2h5h346q8 0 12.5 -5zM504 163q54 67 74 211q8 58 8 98q0 90 -34.5 132.5t-105.5 42.5
q-93 0 -149 -70.5t-77 -216.5q-7 -48 -7 -93q0 -89 35 -130t109 -41q93 0 147 67z" />
    <glyph glyph-name="oe" unicode="&#x153;" horiz-adv-x="975" 
d="M142.5 19q-52.5 29 -80.5 81t-28 120q0 24 3 49q11 80 53 141.5t105.5 95.5t138.5 34q60 0 106 -24.5t70 -68.5q4 -2 6 -2q6 0 15 12q39 39 88.5 61t102.5 22q104 0 163.5 -60.5t59.5 -167.5q0 -31 -4 -58q-2 -8 -4.5 -10.5t-12.5 -3.5h-349q-8 0 -14 -6.5t-7 -18.5
q-1 -7 -1 -20q0 -51 34.5 -82.5t88.5 -31.5q42 0 78.5 18.5t71.5 58.5q2 1 5 1q2 0 12 -5l57 -28q8 -3 8 -12q0 -4 -3 -10q-54 -63 -111.5 -88.5t-135.5 -25.5q-60 0 -106 23.5t-71 66.5q-4 2 -5 2q-6 0 -15 -14q-40 -37 -90 -57.5t-106 -20.5q-70 0 -122.5 29zM623.5 416.5
q-44.5 -40.5 -52.5 -105.5l232 3q19 0 22 21q1 6 1 19q0 43 -26 73t-74 30q-58 0 -102.5 -40.5zM376.5 129.5q42.5 50.5 55.5 142.5q4 25 4 52q0 63 -27 96t-77 33q-65 0 -108 -51t-56 -144q-4 -25 -4 -52q0 -62 27 -94.5t78 -32.5q65 0 107.5 50.5z" />
    <glyph glyph-name="Racute" unicode="&#x154;" horiz-adv-x="713" 
d="M624 11q0 -11 -16 -11h-121q-16 0 -19 19l-75 292q-2 6 -4.5 8t-11.5 2h-130q-7 0 -10 -2.5t-4 -9.5l-41 -292q-1 -11 -6.5 -14t-18.5 -3h-105q-21 0 -17 22l100 707q1 8 3.5 10.5t9.5 2.5h301q118 0 182.5 -45.5t64.5 -128.5q0 -78 -44.5 -139t-119.5 -85q-9 -4 -12 -7
t-1 -8l93 -308q2 -8 2 -10zM509.5 458q42.5 35 42.5 100q0 42 -28.5 62.5t-82.5 20.5h-149q-7 0 -9.5 -3.5t-4.5 -11.5l-28 -191v-3q0 -9 9 -9h134q74 0 116.5 35zM573 892q1 -3 1 -8t-3 -7.5t-11 -4.5l-239 -66q-2 -1 -6 -1q-12 0 -15 15l-7 30q-1 3 -1 8q0 7 5 8l248 98
l3 1q4 0 7.5 -4t4.5 -9z" />
    <glyph glyph-name="racute" unicode="&#x155;" horiz-adv-x="411" 
d="M32 6.5q-5 6.5 -3 15.5l69 495q2 8 4 10.5t9 2.5h99q16 0 13 -19l-8 -49v-4q0 -6 3 -6q4 0 9 6q38 39 80 60.5t78 21.5q21 0 30.5 -3t8.5 -11l-13 -94q-1 -9 -3 -11.5t-7 -1.5q-44 4 -60 4q-28 0 -59.5 -15t-54.5 -38.5t-26 -47.5l-43 -306q-1 -10 -5.5 -13t-16.5 -3h-89
q-10 0 -15 6.5zM414 680q1 -3 1 -8t-3 -7.5t-11 -4.5l-239 -66q-2 -1 -6 -1q-12 0 -15 15l-7 30q-1 3 -1 8q0 7 5 8l248 98l3 1q4 0 7.5 -4t4.5 -9z" />
    <glyph glyph-name="Rcommaaccent" unicode="&#x156;" horiz-adv-x="713" 
d="M624 11q0 -11 -16 -11h-121q-16 0 -19 19l-75 292q-2 6 -4.5 8t-11.5 2h-130q-7 0 -10 -2.5t-4 -9.5l-41 -292q-1 -11 -6.5 -14t-18.5 -3h-105q-21 0 -17 22l100 707q1 8 3.5 10.5t9.5 2.5h301q118 0 182.5 -45.5t64.5 -128.5q0 -78 -44.5 -139t-119.5 -85q-9 -4 -12 -7
t-1 -8l93 -308q2 -8 2 -10zM509.5 458q42.5 35 42.5 100q0 42 -28.5 62.5t-82.5 20.5h-149q-7 0 -9.5 -3.5t-4.5 -11.5l-28 -191v-3q0 -9 9 -9h134q74 0 116.5 35zM237.5 -238q-0.5 4 3.5 8l40 53q5 6 5 12q0 7 -7 7h-20q-7 0 -8.5 3t-0.5 12l9 65q3 15 14 15h74
q12 0 11 -11l-11 -79q-1 -7 -8 -16l-51 -59l-6 -6t-8 -6t-10 -2h-21q-5 0 -5.5 4z" />
    <glyph glyph-name="rcommaaccent" unicode="&#x157;" horiz-adv-x="411" 
d="M32 6.5q-5 6.5 -3 15.5l69 495q2 8 4 10.5t9 2.5h99q16 0 13 -19l-8 -49v-4q0 -6 3 -6q4 0 9 6q38 39 80 60.5t78 21.5q21 0 30.5 -3t8.5 -11l-13 -94q-1 -9 -3 -11.5t-7 -1.5q-44 4 -60 4q-28 0 -59.5 -15t-54.5 -38.5t-26 -47.5l-43 -306q-1 -10 -5.5 -13t-16.5 -3h-89
q-10 0 -15 6.5zM15.5 -238q-0.5 4 3.5 8l40 53q5 6 5 12q0 7 -7 7h-20q-7 0 -8.5 3t-0.5 12l9 65q3 15 14 15h74q12 0 11 -11l-11 -79q-1 -7 -8 -16l-51 -59l-6 -6t-8 -6t-10 -2h-21q-5 0 -5.5 4z" />
    <glyph glyph-name="Rcaron" unicode="&#x158;" horiz-adv-x="713" 
d="M624 11q0 -11 -16 -11h-121q-16 0 -19 19l-75 292q-2 6 -4.5 8t-11.5 2h-130q-7 0 -10 -2.5t-4 -9.5l-41 -292q-1 -11 -6.5 -14t-18.5 -3h-105q-21 0 -17 22l100 707q1 8 3.5 10.5t9.5 2.5h301q118 0 182.5 -45.5t64.5 -128.5q0 -78 -44.5 -139t-119.5 -85q-9 -4 -12 -7
t-1 -8l93 -308q2 -8 2 -10zM509.5 458q42.5 35 42.5 100q0 42 -28.5 62.5t-82.5 20.5h-149q-7 0 -9.5 -3.5t-4.5 -11.5l-28 -191v-3q0 -9 9 -9h134q74 0 116.5 35zM513 954.5q4 0.5 7.5 0.5h5.5h77q10 0 10 -7q0 -5 -6 -11l-121 -106q-10 -8 -23 -8h-61q-18 0 -27 15
l-93 105q-6 7 -6.5 9.5t6.5 2.5h71q8 0 12 -2.5t8 -8.5l47 -52q8 -8 11 -8t8 5l9 9l56 52q5 4 9 4.5z" />
    <glyph glyph-name="rcaron" unicode="&#x159;" horiz-adv-x="411" 
d="M32 6.5q-5 6.5 -3 15.5l69 495q2 8 4 10.5t9 2.5h99q16 0 13 -19l-8 -49v-4q0 -6 3 -6q4 0 9 6q38 39 80 60.5t78 21.5q21 0 30.5 -3t8.5 -11l-13 -94q-1 -9 -3 -11.5t-7 -1.5q-44 4 -60 4q-28 0 -59.5 -15t-54.5 -38.5t-26 -47.5l-43 -306q-1 -10 -5.5 -13t-16.5 -3h-89
q-10 0 -15 6.5zM354 742.5q4 0.5 7.5 0.5h5.5h77q10 0 10 -7q0 -5 -6 -11l-121 -106q-10 -8 -23 -8h-61q-18 0 -27 15l-93 105q-6 7 -6.5 9.5t6.5 2.5h71q8 0 12 -2.5t8 -8.5l47 -52q8 -8 11 -8t8 5l9 9l56 52q5 4 9 4.5z" />
    <glyph glyph-name="Sacute" unicode="&#x15a;" horiz-adv-x="665" 
d="M483 630q-38 17 -91 17q-67 0 -109.5 -30.5t-42.5 -80.5q0 -52 79 -81l147 -51q77 -27 113 -67.5t36 -98.5q0 -78 -41 -134t-112.5 -85t-161.5 -29q-101 0 -170 34.5t-105 99.5q-4 7 -4 12q0 8 8 12l65 40q8 5 14 5q9 0 19 -12q26 -34 48 -52.5t54 -28t83 -9.5
q71 0 114.5 28t43.5 85q0 27 -19.5 46.5t-64.5 35.5l-145 51q-69 23 -105 68.5t-36 102.5q0 72 40.5 127.5t109 86t149.5 30.5t143.5 -29.5t99.5 -76.5q7 -10 7 -14q0 -5 -6 -8l-76 -51q-1 -1 -4 -1q-4 0 -10 6l-8 8q-24 27 -62 44zM564 892q1 -3 1 -8t-3 -7.5t-11 -4.5
l-239 -66q-2 -1 -6 -1q-12 0 -15 15l-7 30q-1 3 -1 8q0 7 5 8l248 98l3 1q4 0 7.5 -4t4.5 -9z" />
    <glyph glyph-name="sacute" unicode="&#x15b;" horiz-adv-x="524" 
d="M84 22q-58 32 -80 83q-3 6 -3 10q0 7 8 10l57 28q6 3 11 3q8 0 15 -10q37 -71 136 -71q44 0 86 17t42 57q0 37 -71 56l-99 26q-66 17 -97 48t-31 78q0 57 33 98.5t87 63t118 21.5q71 0 121.5 -27.5t76.5 -72.5q2 -4 2 -8q0 -7 -7 -11l-56 -26q-6 -2 -7 -2q-7 0 -17 12
q-16 24 -45.5 38.5t-70.5 14.5q-44 0 -79.5 -18t-35.5 -52q0 -17 11.5 -29t43.5 -21l114 -30q64 -17 95.5 -52.5t31.5 -84.5q0 -59 -35 -100t-91 -61t-117 -20q-89 0 -147 32zM449 680q1 -3 1 -8t-3 -7.5t-11 -4.5l-239 -66q-2 -1 -6 -1q-12 0 -15 15l-7 30q-1 3 -1 8
q0 7 5 8l248 98l3 1q4 0 7.5 -4t4.5 -9z" />
    <glyph glyph-name="Scircumflex" unicode="&#x15c;" horiz-adv-x="665" 
d="M483 630q-38 17 -91 17q-67 0 -109.5 -30.5t-42.5 -80.5q0 -52 79 -81l147 -51q77 -27 113 -67.5t36 -98.5q0 -78 -41 -134t-112.5 -85t-161.5 -29q-101 0 -170 34.5t-105 99.5q-4 7 -4 12q0 8 8 12l65 40q8 5 14 5q9 0 19 -12q26 -34 48 -52.5t54 -28t83 -9.5
q71 0 114.5 28t43.5 85q0 27 -19.5 46.5t-64.5 35.5l-145 51q-69 23 -105 68.5t-36 102.5q0 72 40.5 127.5t109 86t149.5 30.5t143.5 -29.5t99.5 -76.5q7 -10 7 -14q0 -5 -6 -8l-76 -51q-1 -1 -4 -1q-4 0 -10 6l-8 8q-24 27 -62 44zM442 891q-8 8 -10 8q-3 0 -7.5 -4
t-9.5 -10l-62 -52q-5 -4 -8.5 -5t-6.5 -0.5t-6 0.5h-72q-4 0 -7 2.5t-3 5.5q0 5 5 10l121 105q7 5 13.5 7t17.5 2h61q10 0 15 -5.5t6 -7.5l91 -107q2 -2 5.5 -6t2.5 -5t-7 -1h-77q-12 0 -21 11z" />
    <glyph glyph-name="scircumflex" unicode="&#x15d;" horiz-adv-x="524" 
d="M84 22q-58 32 -80 83q-3 6 -3 10q0 7 8 10l57 28q6 3 11 3q8 0 15 -10q37 -71 136 -71q44 0 86 17t42 57q0 37 -71 56l-99 26q-66 17 -97 48t-31 78q0 57 33 98.5t87 63t118 21.5q71 0 121.5 -27.5t76.5 -72.5q2 -4 2 -8q0 -7 -7 -11l-56 -26q-6 -2 -7 -2q-7 0 -17 12
q-16 24 -45.5 38.5t-70.5 14.5q-44 0 -79.5 -18t-35.5 -52q0 -17 11.5 -29t43.5 -21l114 -30q64 -17 95.5 -52.5t31.5 -84.5q0 -59 -35 -100t-91 -61t-117 -20q-89 0 -147 32zM327 679q-8 8 -10 8q-3 0 -7.5 -4t-9.5 -10l-62 -52q-5 -4 -8.5 -5t-6.5 -0.5t-6 0.5h-72
q-4 0 -7 2.5t-3 5.5q0 5 5 10l121 105q7 5 13.5 7t17.5 2h61q10 0 15 -5.5t6 -7.5l91 -107q2 -2 5.5 -6t2.5 -5t-7 -1h-77q-12 0 -21 11z" />
    <glyph glyph-name="Scedilla" unicode="&#x15e;" horiz-adv-x="665" 
d="M649 632q0 -5 -6 -8l-76 -51q-1 -1 -4 -1q-4 0 -10 6l-8 8q-24 27 -62 44t-91 17q-67 0 -109.5 -30.5t-42.5 -80.5q0 -52 79 -81l147 -51q77 -27 113 -67.5t36 -98.5q0 -74 -37 -128t-101.5 -84t-146.5 -35l-21 -43q-1 -3 -3 -3h1q45 -2 66 -23t21 -50q0 -42 -36 -65
t-89 -23q-62 0 -100 27q-5 1 -7.5 4t-1.5 7l19 32q2 4 4 0t2 -5q32 -16 65 -16q27 0 44 11t20 30q2 19 -14.5 27t-60.5 9q-8 0 -11.5 3.5t-1.5 8.5l42 69q-88 5 -149 39.5t-94 93.5q-4 7 -4 12q0 8 8 12l65 40q8 5 14 5q9 0 19 -12q26 -34 48 -52.5t54 -28t83 -9.5
q71 0 114.5 28t43.5 85q0 27 -19.5 46.5t-64.5 35.5l-145 51q-69 23 -105 68.5t-36 102.5q0 72 40.5 127.5t109 86t149.5 30.5t143.5 -29.5t99.5 -76.5q7 -10 7 -14z" />
    <glyph glyph-name="scedilla" unicode="&#x15f;" horiz-adv-x="524" 
d="M496 432q0 -7 -7 -11l-56 -26q-6 -2 -7 -2q-7 0 -17 12q-16 24 -45.5 38.5t-70.5 14.5q-44 0 -79.5 -18t-35.5 -52q0 -17 11.5 -29t43.5 -21l114 -30q64 -17 95.5 -52.5t31.5 -84.5q0 -57 -32.5 -96.5t-84.5 -60.5t-111 -24l-21 -42q-1 -3 -3 -3h1q45 -2 66 -23t21 -50
q0 -42 -36 -65t-89 -23q-63 0 -100 27q-5 1 -7.5 4t-1.5 7l19 32q2 4 4 0t2 -5q32 -16 65 -16q27 0 44 11t20 30q2 19 -14.5 27t-60.5 9q-8 0 -11.5 3.5t-1.5 8.5l43 71q-70 8 -116.5 38t-64.5 74q-3 6 -3 10q0 7 8 10l57 28q6 3 11 3q8 0 15 -10q37 -71 136 -71q44 0 86 17
t42 57q0 37 -71 56l-99 26q-66 17 -97 48t-31 78q0 57 33 98.5t87 63t118 21.5q71 0 121.5 -27.5t76.5 -72.5q2 -4 2 -8z" />
    <glyph glyph-name="Scaron" unicode="&#x160;" horiz-adv-x="665" 
d="M483 630q-38 17 -91 17q-67 0 -109.5 -30.5t-42.5 -80.5q0 -52 79 -81l147 -51q77 -27 113 -67.5t36 -98.5q0 -78 -41 -134t-112.5 -85t-161.5 -29q-101 0 -170 34.5t-105 99.5q-4 7 -4 12q0 8 8 12l65 40q8 5 14 5q9 0 19 -12q26 -34 48 -52.5t54 -28t83 -9.5
q71 0 114.5 28t43.5 85q0 27 -19.5 46.5t-64.5 35.5l-145 51q-69 23 -105 68.5t-36 102.5q0 72 40.5 127.5t109 86t149.5 30.5t143.5 -29.5t99.5 -76.5q7 -10 7 -14q0 -5 -6 -8l-76 -51q-1 -1 -4 -1q-4 0 -10 6l-8 8q-24 27 -62 44zM504 954.5q4 0.5 7.5 0.5h5.5h77
q10 0 10 -7q0 -5 -6 -11l-121 -106q-10 -8 -23 -8h-61q-18 0 -27 15l-93 105q-6 7 -6.5 9.5t6.5 2.5h71q8 0 12 -2.5t8 -8.5l47 -52q8 -8 11 -8t8 5l9 9l56 52q5 4 9 4.5z" />
    <glyph glyph-name="scaron" unicode="&#x161;" horiz-adv-x="524" 
d="M84 22q-58 32 -80 83q-3 6 -3 10q0 7 8 10l57 28q6 3 11 3q8 0 15 -10q37 -71 136 -71q44 0 86 17t42 57q0 37 -71 56l-99 26q-66 17 -97 48t-31 78q0 57 33 98.5t87 63t118 21.5q71 0 121.5 -27.5t76.5 -72.5q2 -4 2 -8q0 -7 -7 -11l-56 -26q-6 -2 -7 -2q-7 0 -17 12
q-16 24 -45.5 38.5t-70.5 14.5q-44 0 -79.5 -18t-35.5 -52q0 -17 11.5 -29t43.5 -21l114 -30q64 -17 95.5 -52.5t31.5 -84.5q0 -59 -35 -100t-91 -61t-117 -20q-89 0 -147 32zM389 742.5q4 0.5 7.5 0.5h5.5h77q10 0 10 -7q0 -5 -6 -11l-121 -106q-10 -8 -23 -8h-61
q-18 0 -27 15l-93 105q-6 7 -6.5 9.5t6.5 2.5h71q8 0 12 -2.5t8 -8.5l47 -52q8 -8 11 -8t8 5l9 9l56 52q5 4 9 4.5z" />
    <glyph glyph-name="uni0162" unicode="&#x162;" horiz-adv-x="669" 
d="M697 739q2 -3 0 -10l-12 -84q-1 -7 -4 -9t-11 -2h-192q-9 0 -11.5 -2.5t-4.5 -10.5l-85 -606q-1 -9 -4 -12t-11 -3h-29l-26 -52q-1 -3 -3 -3h1q45 -2 66 -23t21 -50q0 -42 -36 -65t-89 -23q-62 0 -100 27q-5 1 -7.5 4t-1.5 7l19 32q2 4 4 0t2 -5q32 -16 65 -16
q27 0 44 11t20 30q2 19 -14.5 27t-60.5 9q-8 0 -11.5 3.5t-1.5 8.5l47 78h-27q-10 0 -13 4t-1 15l85 603v3q0 9 -10 9h-202q-8 0 -11 2.5t-2 9.5l12 84q1 7 4 9.5t12 2.5h568q9 0 11 -3z" />
    <glyph glyph-name="uni0163" unicode="&#x163;" horiz-adv-x="417" 
d="M422 518l-9 -68q-1 -7 -4 -9t-12 -2h-113q-12 0 -15 -14l-37 -268q-2 -8 -2 -21q0 -25 13 -34.5t44 -9.5h58q7 0 11 -5.5t3 -12.5l-8 -52q-3 -15 -16 -18q-48 -4 -90 -4l-26 -52q-1 -3 -3 -3h1q45 -2 66 -23t21 -50q0 -42 -36 -65t-89 -23q-62 0 -100 27q-5 1 -7.5 4
t-1.5 7l19 32q2 4 4 0t2 -5q32 -16 65 -16q27 0 44 11t20 30q2 19 -14.5 27t-60.5 9q-8 0 -11.5 3.5t-1.5 8.5l49 81q-43 8 -66 33.5t-23 66.5q0 8 2 28l42 297v2q0 9 -13 9h-69q-11 0 -10 19l9 63q1 6 3.5 7.5t10.5 1.5h74q5 0 9 4.5t5 9.5l35 154q3 12 17 12h89
q7 0 9 -4.5t1 -16.5l-22 -148v-2q0 -8 9 -8h110q18 0 15 -13z" />
    <glyph glyph-name="Tcaron" unicode="&#x164;" horiz-adv-x="669" 
d="M102 730q1 7 4 9.5t12 2.5h568q9 0 11 -3t0 -10l-12 -84q-1 -7 -4 -9t-11 -2h-192q-9 0 -11.5 -2.5t-4.5 -10.5l-85 -606q-1 -9 -4 -12t-11 -3h-118q-10 0 -13 4t-1 15l85 603v3q0 9 -10 9h-202q-8 0 -11 2.5t-2 9.5zM504 954.5q4 0.5 7.5 0.5h5.5h77q10 0 10 -7
q0 -5 -6 -11l-121 -106q-10 -8 -23 -8h-61q-18 0 -27 15l-93 105q-6 7 -6.5 9.5t6.5 2.5h71q8 0 12 -2.5t8 -8.5l47 -52q8 -8 11 -8t8 5l9 9l56 52q5 4 9 4.5z" />
    <glyph glyph-name="tcaron" unicode="&#x165;" horiz-adv-x="417" 
d="M129.5 26.5q-33.5 26.5 -33.5 76.5q0 8 2 28l42 297v2q0 9 -13 9h-69q-11 0 -10 19l9 63q1 6 3.5 7.5t10.5 1.5h74q5 0 9 4.5t5 9.5l35 154q3 12 17 12h89q7 0 9 -4.5t1 -16.5l-22 -148v-2q0 -8 9 -8h110q18 0 15 -13l-9 -68q-1 -7 -4 -9t-12 -2h-113q-12 0 -15 -14
l-37 -268q-2 -8 -2 -21q0 -25 13 -34.5t44 -9.5h58q7 0 11 -5.5t3 -12.5l-8 -52q-3 -15 -16 -18q-40 -4 -110 -4q-62 0 -95.5 26.5zM354.5 579.5q-3.5 5.5 -1.5 9.5l42 74q1 3 3 6.5t1 4.5t-4 2l-8 1q-17 2 -15 17l13 87q1 6 2 7t6 1h74q5 0 8 -4.5t2 -9.5l-14 -102l-3 -7
l-47 -84q-3 -6 -6.5 -7t-15.5 -1h-28q-5 0 -8.5 5.5z" />
    <glyph glyph-name="Tbar" unicode="&#x166;" horiz-adv-x="669" 
d="M697 739q2 -3 0 -10l-12 -84q-1 -7 -4 -9t-11 -2h-192q-9 0 -11.5 -2.5t-4.5 -10.5l-29 -208h116q6 0 10 -5.5t3 -12.5l-9 -63q-1 -10 -6 -13t-18 -3h-110l-42 -301q-1 -9 -4 -12t-11 -3h-118q-10 0 -13 4t-1 15l42 297h-106q-21 0 -18 22l9 62q1 8 3 10.5t9 2.5h117
l29 209v3q0 9 -10 9h-202q-8 0 -11 2.5t-2 9.5l12 84q1 7 4 9.5t12 2.5h568q9 0 11 -3z" />
    <glyph glyph-name="tbar" unicode="&#x167;" horiz-adv-x="417" 
d="M422 518l-9 -68q-1 -7 -4 -9t-12 -2h-113q-12 0 -15 -14l-13 -97h94q5 0 9 -5.5t3 -11.5l-6 -45q-1 -9 -5 -11.5t-15 -2.5h-91l-13 -95q-2 -8 -2 -21q0 -25 13 -34.5t44 -9.5h58q7 0 11 -5.5t3 -12.5l-8 -52q-3 -15 -16 -18q-40 -4 -110 -4q-62 0 -95.5 26.5t-33.5 76.5
q0 8 2 28l17 121h-52q-9 0 -13 5.5t-3 14.5l7 45q1 7 3 9t7 2h62l14 100v2q0 9 -13 9h-69q-11 0 -10 19l9 63q1 6 3.5 7.5t10.5 1.5h74q5 0 9 4.5t5 9.5l35 154q3 12 17 12h89q7 0 9 -4.5t1 -16.5l-22 -148v-2q0 -8 9 -8h110q18 0 15 -13z" />
    <glyph glyph-name="Utilde" unicode="&#x168;" horiz-adv-x="717" 
d="M545 53.5q-81 -63.5 -220 -63.5q-134 0 -196 55.5t-62 166.5q0 21 6 75l63 441q1 9 3.5 11.5t9.5 2.5h119q7 0 11.5 -6t2.5 -14l-65 -464q-3 -24 -3 -44q0 -60 31.5 -88t94.5 -28q76 0 124 41.5t60 128.5l65 461q2 8 4 10.5t9 2.5h95q7 0 11 -6t3 -14l-65 -460
q-20 -145 -101 -208.5zM529 849q-20 0 -36.5 4t-38.5 11q-37 13 -61 13q-22 0 -36 -6.5t-34 -20.5q-2 -1 -6 -1q-9 0 -12 15l-8 37q-2 8 -2 10q0 7 6 14q24 14 43 21t44 7q20 0 36.5 -4t44.5 -13q37 -13 60 -13q35 0 70 27q2 1 7 1q12 0 14 -15l5 -44q1 -2 1 -7q0 -7 -9 -16
q-47 -20 -88 -20z" />
    <glyph glyph-name="utilde" unicode="&#x169;" horiz-adv-x="588" 
d="M77.5 26.5q-38.5 36.5 -38.5 97.5q0 10 2 28l50 361q2 11 6 14t15 3h92q9 0 13.5 -6t3.5 -16l-48 -340q-2 -14 -2 -19q0 -64 66 -64q64 0 141 72l52 357q2 10 6 13t16 3h90q10 0 15 -6.5t3 -15.5l-72 -495q-1 -8 -3 -10.5t-10 -2.5h-98q-16 0 -13 13l8 51v2q0 5 -3 5
t-10 -5q-50 -41 -92.5 -58.5t-87.5 -17.5q-63 0 -101.5 36.5zM414 637q-20 0 -36.5 4t-38.5 11q-37 13 -61 13q-22 0 -36 -6.5t-34 -20.5q-2 -1 -6 -1q-9 0 -12 15l-8 37q-2 8 -2 10q0 7 6 14q24 14 43 21t44 7q20 0 36.5 -4t44.5 -13q37 -13 60 -13q35 0 70 27q2 1 7 1
q12 0 14 -15l5 -44q1 -2 1 -7q0 -7 -9 -16q-47 -20 -88 -20z" />
    <glyph glyph-name="Umacron" unicode="&#x16a;" horiz-adv-x="717" 
d="M545 53.5q-81 -63.5 -220 -63.5q-134 0 -196 55.5t-62 166.5q0 21 6 75l63 441q1 9 3.5 11.5t9.5 2.5h119q7 0 11.5 -6t2.5 -14l-65 -464q-3 -24 -3 -44q0 -60 31.5 -88t94.5 -28q76 0 124 41.5t60 128.5l65 461q2 8 4 10.5t9 2.5h95q7 0 11 -6t3 -14l-65 -460
q-20 -145 -101 -208.5zM626 873q-1 -9 -5 -11.5t-15 -2.5h-305q-9 0 -13 6t-2 14l7 56q1 7 3 8.5t7 1.5h319q5 0 9 -5.5t3 -10.5z" />
    <glyph glyph-name="umacron" unicode="&#x16b;" horiz-adv-x="588" 
d="M77.5 26.5q-38.5 36.5 -38.5 97.5q0 10 2 28l50 361q2 11 6 14t15 3h92q9 0 13.5 -6t3.5 -16l-48 -340q-2 -14 -2 -19q0 -64 66 -64q64 0 141 72l52 357q2 10 6 13t16 3h90q10 0 15 -6.5t3 -15.5l-72 -495q-1 -8 -3 -10.5t-10 -2.5h-98q-16 0 -13 13l8 51v2q0 5 -3 5
t-10 -5q-50 -41 -92.5 -58.5t-87.5 -17.5q-63 0 -101.5 36.5zM511 661q-1 -9 -5 -11.5t-15 -2.5h-305q-9 0 -13 6t-2 14l7 56q1 7 3 8.5t7 1.5h319q5 0 9 -5.5t3 -10.5z" />
    <glyph glyph-name="Ubreve" unicode="&#x16c;" horiz-adv-x="717" 
d="M545 53.5q-81 -63.5 -220 -63.5q-134 0 -196 55.5t-62 166.5q0 21 6 75l63 441q1 9 3.5 11.5t9.5 2.5h119q7 0 11.5 -6t2.5 -14l-65 -464q-3 -24 -3 -44q0 -60 31.5 -88t94.5 -28q76 0 124 41.5t60 128.5l65 461q2 8 4 10.5t9 2.5h95q7 0 11 -6t3 -14l-65 -460
q-20 -145 -101 -208.5zM636 942q0 -5 -3 -10q-22 -46 -70.5 -74t-108.5 -28q-65 0 -105 27t-49 80v4q0 13 13 13h55q6 0 9 -3t5.5 -7.5t3.5 -6.5q27 -39 72 -39q29 0 53.5 13t39.5 34q6 9 18 9h55q12 0 12 -12z" />
    <glyph glyph-name="ubreve" unicode="&#x16d;" horiz-adv-x="588" 
d="M77.5 26.5q-38.5 36.5 -38.5 97.5q0 10 2 28l50 361q2 11 6 14t15 3h92q9 0 13.5 -6t3.5 -16l-48 -340q-2 -14 -2 -19q0 -64 66 -64q64 0 141 72l52 357q2 10 6 13t16 3h90q10 0 15 -6.5t3 -15.5l-72 -495q-1 -8 -3 -10.5t-10 -2.5h-98q-16 0 -13 13l8 51v2q0 5 -3 5
t-10 -5q-50 -41 -92.5 -58.5t-87.5 -17.5q-63 0 -101.5 36.5zM521 730q0 -5 -3 -10q-22 -46 -70.5 -74t-108.5 -28q-65 0 -105 27t-49 80v4q0 13 13 13h55q6 0 9 -3t5.5 -7.5t3.5 -6.5q27 -39 72 -39q29 0 53.5 13t39.5 34q6 9 18 9h55q12 0 12 -12z" />
    <glyph glyph-name="Uring" unicode="&#x16e;" horiz-adv-x="717" 
d="M545 53.5q-81 -63.5 -220 -63.5q-134 0 -196 55.5t-62 166.5q0 21 6 75l63 441q1 9 3.5 11.5t9.5 2.5h119q7 0 11.5 -6t2.5 -14l-65 -464q-3 -24 -3 -44q0 -60 31.5 -88t94.5 -28q76 0 124 41.5t60 128.5l65 461q2 8 4 10.5t9 2.5h95q7 0 11 -6t3 -14l-65 -460
q-20 -145 -101 -208.5zM541.5 799q-16.5 -27 -44 -43t-59.5 -16q-43 0 -71 29t-28 73q0 11 1 17q5 41 39.5 69.5t78.5 28.5q43 0 71.5 -28.5t28.5 -70.5q0 -32 -16.5 -59zM489.5 890.5q-11.5 10.5 -29.5 10.5q-24 0 -44 -17.5t-24 -41.5q-2 -19 10.5 -33t31.5 -14
q25 0 46 21.5t21 47.5q0 16 -11.5 26.5z" />
    <glyph glyph-name="uring" unicode="&#x16f;" horiz-adv-x="588" 
d="M77.5 26.5q-38.5 36.5 -38.5 97.5q0 10 2 28l50 361q2 11 6 14t15 3h92q9 0 13.5 -6t3.5 -16l-48 -340q-2 -14 -2 -19q0 -64 66 -64q64 0 141 72l52 357q2 10 6 13t16 3h90q10 0 15 -6.5t3 -15.5l-72 -495q-1 -8 -3 -10.5t-10 -2.5h-98q-16 0 -13 13l8 51v2q0 5 -3 5
t-10 -5q-50 -41 -92.5 -58.5t-87.5 -17.5q-63 0 -101.5 36.5zM438.5 644q-16.5 -27 -44 -43t-59.5 -16q-43 0 -71 29t-28 73q0 11 1 17q5 41 39.5 69.5t78.5 28.5q43 0 71.5 -28.5t28.5 -70.5q0 -32 -16.5 -59zM386.5 735.5q-11.5 10.5 -29.5 10.5q-24 0 -44 -17.5
t-24 -41.5q-2 -19 10.5 -33t31.5 -14q25 0 46 21.5t21 47.5q0 16 -11.5 26.5z" />
    <glyph glyph-name="Uhungarumlaut" unicode="&#x170;" horiz-adv-x="717" 
d="M545 53.5q-81 -63.5 -220 -63.5q-134 0 -196 55.5t-62 166.5q0 21 6 75l63 441q1 9 3.5 11.5t9.5 2.5h119q7 0 11.5 -6t2.5 -14l-65 -464q-3 -24 -3 -44q0 -60 31.5 -88t94.5 -28q76 0 124 41.5t60 128.5l65 461q2 8 4 10.5t9 2.5h95q7 0 11 -6t3 -14l-65 -460
q-20 -145 -101 -208.5zM479 910q6 -10 6 -14q0 -7 -9 -12l-149 -98q-6 -3 -11 -3q-7 0 -11 9l-19 25q-12 12 -5 18l149 128l5 2q5 0 12 -9zM664 910q6 -10 6 -14q0 -7 -9 -12l-149 -98q-6 -3 -11 -3q-7 0 -11 9l-19 25q-12 12 -5 18l149 128q4 2 5 2q3 0 6 -3t5 -6z" />
    <glyph glyph-name="uhungarumlaut" unicode="&#x171;" horiz-adv-x="588" 
d="M77.5 26.5q-38.5 36.5 -38.5 97.5q0 10 2 28l50 361q2 11 6 14t15 3h92q9 0 13.5 -6t3.5 -16l-48 -340q-2 -14 -2 -19q0 -64 66 -64q64 0 141 72l52 357q2 10 6 13t16 3h90q10 0 15 -6.5t3 -15.5l-72 -495q-1 -8 -3 -10.5t-10 -2.5h-98q-16 0 -13 13l8 51v2q0 5 -3 5
t-10 -5q-50 -41 -92.5 -58.5t-87.5 -17.5q-63 0 -101.5 36.5zM364 698q6 -10 6 -14q0 -7 -9 -12l-149 -98q-6 -3 -11 -3q-7 0 -11 9l-19 25q-12 12 -5 18l149 128l5 2q5 0 12 -9zM549 698q6 -10 6 -14q0 -7 -9 -12l-149 -98q-6 -3 -11 -3q-7 0 -11 9l-19 25q-12 12 -5 18
l149 128q4 2 5 2q3 0 6 -3t5 -6z" />
    <glyph glyph-name="Uogonek" unicode="&#x172;" horiz-adv-x="717" 
d="M708 736q4 -6 3 -14l-65 -460q-16 -117 -72 -180.5t-150 -82.5q-52 -19 -75 -38t-25 -43q-4 -30 33 -30q18 0 32.5 4.5t31.5 11.5q6 2 7 2q4 0 5.5 -3.5t0.5 -8.5l-5 -38q-2 -14 -10 -15q-43 -13 -92 -13t-75.5 19.5t-26.5 56.5q0 28 14 48.5t53 38.5q-116 7 -170.5 62
t-54.5 159q0 21 6 75l63 441q1 9 3.5 11.5t9.5 2.5h119q7 0 11.5 -6t2.5 -14l-65 -464q-3 -24 -3 -44q0 -60 31.5 -88t94.5 -28q76 0 124 41.5t60 128.5l65 461q2 8 4 10.5t9 2.5h95q7 0 11 -6z" />
    <glyph glyph-name="uogonek" unicode="&#x173;" horiz-adv-x="588" 
d="M488 13q0 -7 -3 -10h1h-1q-1 -3 -7 -3q-52 -19 -75 -38t-25 -43q-4 -30 33 -30q18 0 32.5 4.5t31.5 11.5q6 2 7 2q4 0 5.5 -3.5t0.5 -8.5l-5 -38q-2 -14 -10 -15q-43 -13 -92 -13t-75.5 19.5t-26.5 56.5q0 31 18.5 53.5t71.5 42.5q-6 3 -5 12l8 51v2q0 5 -3 5t-10 -5
q-50 -41 -92.5 -58.5t-87.5 -17.5q-63 0 -101.5 36.5t-38.5 97.5q0 10 2 28l50 361q2 11 6 14t15 3h92q9 0 13.5 -6t3.5 -16l-48 -340q-2 -14 -2 -19q0 -64 66 -64q64 0 141 72l52 357q2 10 6 13t16 3h90q10 0 15 -6.5t3 -15.5z" />
    <glyph glyph-name="Wcircumflex" unicode="&#x174;" horiz-adv-x="1071" 
d="M1101 731q0 -6 -5 -19l-303 -696q-5 -10 -10.5 -13t-17.5 -3h-91q-12 0 -18.5 4t-7.5 13l-72 483q0 6 -3 6t-6 -6l-209 -484q-5 -10 -10 -13t-17 -3h-96q-12 0 -18 4t-7 14l-106 700q-1 3 -1 8q0 16 20 16h105q11 0 15.5 -4.5t6.5 -14.5l71 -495q1 -10 4 -10q4 0 7 9
l214 503q3 8 7.5 10t16.5 2h92q10 0 13.5 -4t5.5 -15l73 -501q0 -6 4 -6t7 9l212 505q3 7 7.5 9.5t15.5 2.5h86q15 0 15 -11zM640 891q-8 8 -10 8q-3 0 -7.5 -4t-9.5 -10l-62 -52q-5 -4 -8.5 -5t-6.5 -0.5t-6 0.5h-72q-4 0 -7 2.5t-3 5.5q0 5 5 10l121 105q7 5 13.5 7
t17.5 2h61q10 0 15 -5.5t6 -7.5l91 -107q2 -2 5.5 -6t2.5 -5t-7 -1h-77q-12 0 -21 11z" />
    <glyph glyph-name="wcircumflex" unicode="&#x175;" horiz-adv-x="811" 
d="M819.5 522.5q4.5 -7.5 0.5 -15.5l-230 -495q-4 -8 -7.5 -10t-12.5 -2h-70q-10 0 -16 5.5t-7 14.5l-55 309q-1 7 -4 7q-4 0 -9 -14l-141 -310q-3 -8 -6.5 -10t-13.5 -2h-73q-10 0 -15.5 5.5t-6.5 14.5l-92 493l-1 5q0 12 14 12h98q7 0 12.5 -5.5t5.5 -12.5l56 -319
q1 -7 4 -7q5 0 10 14l144 319q4 11 18 11h71q7 0 12.5 -5.5t5.5 -12.5l56 -319q0 -7 3 -7q5 0 10 14l142 319q7 11 20 11h64q9 0 13.5 -7.5zM480 679q-8 8 -10 8q-3 0 -7.5 -4t-9.5 -10l-62 -52q-5 -4 -8.5 -5t-6.5 -0.5t-6 0.5h-72q-4 0 -7 2.5t-3 5.5q0 5 5 10l121 105
q7 5 13.5 7t17.5 2h61q10 0 15 -5.5t6 -7.5l91 -107q2 -2 5.5 -6t2.5 -5t-7 -1h-77q-12 0 -21 11z" />
    <glyph glyph-name="Ycircumflex" unicode="&#x176;" horiz-adv-x="715" 
d="M748 732q0 -4 -3 -9l-293 -392q-7 -8 -10 -17t-5 -29l-38 -267q-1 -12 -6 -15t-19 -3h-108q-10 0 -13 4.5t-2 14.5l39 276q2 12 2 14q0 7 -5 19l-183 396q-3 6 -3 11q0 7 14 7h124q10 0 14.5 -4t9.5 -15l122 -281q3 -8 7 -8t9 8l204 288q6 8 10.5 10t15.5 2h105
q12 0 12 -10zM467 891q-8 8 -10 8q-3 0 -7.5 -4t-9.5 -10l-62 -52q-5 -4 -8.5 -5t-6.5 -0.5t-6 0.5h-72q-4 0 -7 2.5t-3 5.5q0 5 5 10l121 105q7 5 13.5 7t17.5 2h61q10 0 15 -5.5t6 -7.5l91 -107q2 -2 5.5 -6t2.5 -5t-7 -1h-77q-12 0 -21 11z" />
    <glyph glyph-name="ycircumflex" unicode="&#x177;" horiz-adv-x="554" 
d="M-3.5 -161.5q-11.5 3.5 -9.5 14.5l8 64q2 14 35 14h64q23 0 43.5 13.5t32.5 34t12 39.5q0 8 -1 12l-126 475q-1 4 -1 11q0 14 14 14h114q13 0 16 -11l78 -330q3 -11 8 -11q6 0 12 13l166 321q8 18 23 18h73q10 0 10 -6q0 -3 -4 -11l-285 -526q-33 -61 -66.5 -94
t-73.5 -45.5t-100 -12.5q-31 0 -42.5 3.5zM368 679q-8 8 -10 8q-3 0 -7.5 -4t-9.5 -10l-62 -52q-5 -4 -8.5 -5t-6.5 -0.5t-6 0.5h-72q-4 0 -7 2.5t-3 5.5q0 5 5 10l121 105q7 5 13.5 7t17.5 2h61q10 0 15 -5.5t6 -7.5l91 -107q2 -2 5.5 -6t2.5 -5t-7 -1h-77q-12 0 -21 11z
" />
    <glyph glyph-name="Ydieresis" unicode="&#x178;" horiz-adv-x="715" 
d="M748 732q0 -4 -3 -9l-293 -392q-7 -8 -10 -17t-5 -29l-38 -267q-1 -12 -6 -15t-19 -3h-108q-10 0 -13 4.5t-2 14.5l39 276q2 12 2 14q0 7 -5 19l-183 396q-3 6 -3 11q0 7 14 7h124q10 0 14.5 -4t9.5 -15l122 -281q3 -8 7 -8t9 8l204 288q6 8 10.5 10t15.5 2h105
q12 0 12 -10zM413 846q-1 -10 -5 -12.5t-16 -2.5h-79q-20 0 -17 20l12 91q1 8 3.5 10t8.5 2h92q7 0 11 -5.5t3 -12.5zM596 846q-1 -10 -5 -12.5t-16 -2.5h-79q-19 0 -17 20l13 91q1 8 3 10t9 2h92q7 0 11 -5.5t2 -12.5z" />
    <glyph glyph-name="Zacute" unicode="&#x179;" horiz-adv-x="664" 
d="M7.5 4q-4.5 4 -3.5 14l5 35q1 10 4 17t13 18l433 535q5 6 5 7.5t-7 1.5h-326q-17 0 -15 20l11 79q2 7 4 9t8 2h538q6 0 9 -4t1 -11l-5 -39q-3 -13 -13 -28l-443 -541q-4 -4 -3 -6t4 -2h357q8 0 10.5 -2.5t1.5 -9.5l-13 -87q-1 -7 -3.5 -9.5t-11.5 -2.5h-545
q-11 0 -15.5 4zM567 892q1 -3 1 -8t-3 -7.5t-11 -4.5l-239 -66q-2 -1 -6 -1q-12 0 -15 15l-7 30q-1 3 -1 8q0 7 5 8l248 98l3 1q4 0 7.5 -4t4.5 -9z" />
    <glyph glyph-name="zacute" unicode="&#x17a;" horiz-adv-x="506" 
d="M-7 3.5q-3 3.5 -1 13.5l4 32q1 11 5.5 17.5t16.5 20.5l310 343q4 4 4 9q0 7 -13 7h-233q-8 0 -10 4t-1 14l8 53q3 13 18 13h398q12 0 10 -12l-6 -38q-1 -8 -5.5 -15t-13.5 -17l-312 -346q-4 -6 -4 -9q0 -8 11 -8h259q14 0 11 -14l-7 -56q-2 -8 -5.5 -11.5t-11.5 -3.5
h-419q-10 0 -13 3.5zM458 680q1 -3 1 -8t-3 -7.5t-11 -4.5l-239 -66q-2 -1 -6 -1q-12 0 -15 15l-7 30q-1 3 -1 8q0 7 5 8l248 98l3 1q4 0 7.5 -4t4.5 -9z" />
    <glyph glyph-name="Zdotaccent" unicode="&#x17b;" horiz-adv-x="664" 
d="M7.5 4q-4.5 4 -3.5 14l5 35q1 10 4 17t13 18l433 535q5 6 5 7.5t-7 1.5h-326q-17 0 -15 20l11 79q2 7 4 9t8 2h538q6 0 9 -4t1 -11l-5 -39q-3 -13 -13 -28l-443 -541q-4 -4 -3 -6t4 -2h357q8 0 10.5 -2.5t1.5 -9.5l-13 -87q-1 -7 -3.5 -9.5t-11.5 -2.5h-545
q-11 0 -15.5 4zM490 834q-2 -11 -6.5 -14t-17.5 -3h-91q-21 0 -19 22l14 102q2 8 4.5 10.5t9.5 2.5h106q7 0 10.5 -6t2.5 -14z" />
    <glyph glyph-name="zdotaccent" unicode="&#x17c;" horiz-adv-x="506" 
d="M-7 3.5q-3 3.5 -1 13.5l4 32q1 11 5.5 17.5t16.5 20.5l310 343q4 4 4 9q0 7 -13 7h-233q-8 0 -10 4t-1 14l8 53q3 13 18 13h398q12 0 10 -12l-6 -38q-1 -8 -5.5 -15t-13.5 -17l-312 -346q-4 -6 -4 -9q0 -8 11 -8h259q14 0 11 -14l-7 -56q-2 -8 -5.5 -11.5t-11.5 -3.5
h-419q-10 0 -13 3.5zM381 622q-2 -11 -6.5 -14t-17.5 -3h-91q-21 0 -19 22l14 102q2 8 4.5 10.5t9.5 2.5h106q7 0 10.5 -6t2.5 -14z" />
    <glyph glyph-name="Zcaron" unicode="&#x17d;" horiz-adv-x="664" 
d="M7.5 4q-4.5 4 -3.5 14l5 35q1 10 4 17t13 18l433 535q5 6 5 7.5t-7 1.5h-326q-17 0 -15 20l11 79q2 7 4 9t8 2h538q6 0 9 -4t1 -11l-5 -39q-3 -13 -13 -28l-443 -541q-4 -4 -3 -6t4 -2h357q8 0 10.5 -2.5t1.5 -9.5l-13 -87q-1 -7 -3.5 -9.5t-11.5 -2.5h-545
q-11 0 -15.5 4zM507 954.5q4 0.5 7.5 0.5h5.5h77q10 0 10 -7q0 -5 -6 -11l-121 -106q-10 -8 -23 -8h-61q-18 0 -27 15l-93 105q-6 7 -6.5 9.5t6.5 2.5h71q8 0 12 -2.5t8 -8.5l47 -52q8 -8 11 -8t8 5l9 9l56 52q5 4 9 4.5z" />
    <glyph glyph-name="zcaron" unicode="&#x17e;" horiz-adv-x="506" 
d="M-7 3.5q-3 3.5 -1 13.5l4 32q1 11 5.5 17.5t16.5 20.5l310 343q4 4 4 9q0 7 -13 7h-233q-8 0 -10 4t-1 14l8 53q3 13 18 13h398q12 0 10 -12l-6 -38q-1 -8 -5.5 -15t-13.5 -17l-312 -346q-4 -6 -4 -9q0 -8 11 -8h259q14 0 11 -14l-7 -56q-2 -8 -5.5 -11.5t-11.5 -3.5
h-419q-10 0 -13 3.5zM398 742.5q4 0.5 7.5 0.5h5.5h77q10 0 10 -7q0 -5 -6 -11l-121 -106q-10 -8 -23 -8h-61q-18 0 -27 15l-93 105q-6 7 -6.5 9.5t6.5 2.5h71q8 0 12 -2.5t8 -8.5l47 -52q8 -8 11 -8t8 5l9 9l56 52q5 4 9 4.5z" />
    <glyph glyph-name="uni018F" unicode="&#x18f;" horiz-adv-x="769" 
d="M586 482q0 153 -144 153q-52 0 -89.5 -20t-60 -47.5t-47.5 -68.5l-15 -23h-1q-3 0 -7.5 3t-8.5 5l-89 43q-7 3 -7 12q0 6 3 15q55 84 131.5 141t195.5 57q99 0 164 -41t95.5 -111t30.5 -158q0 -33 -5 -75q-15 -103 -67 -189t-134 -137t-182 -51q-146 0 -216.5 80
t-70.5 221q0 50 7 98q0 2 1 7.5t4 7t11 1.5h477q8 0 13.5 6t6.5 16q4 34 4 55zM236 308q-10 0 -15 -4.5t-7 -15.5q-3 -21 -3 -40q0 -66 33.5 -108.5t107.5 -42.5q93 0 142.5 58t69.5 156z" />
    <glyph glyph-name="florin" unicode="&#x192;" horiz-adv-x="491" 
d="M465 524q4 -6 2 -13l-19 -63q-3 -6 -6 -7.5t-11 -1.5h-94q-4 0 -8.5 -4.5t-6.5 -9.5l-146 -464q-20 -64 -66 -98t-113 -34h-88q-9 0 -14 6.5t-3 15.5l17 55q3 11 15 11h47q32 1 51 18t32 60l138 439q1 3 1.5 4t-2.5 1h-64q-7 0 -11 4.5t-2 12.5l20 63q3 11 18 11h59
q6 0 11 5t7 12l20 65q20 63 66 96.5t112 33.5h95q9 0 13.5 -6t2.5 -15l-17 -56q-2 -7 -5.5 -9t-10.5 -2h-56q-24 0 -47 -20t-32 -49l-15 -48q-2 -4 -1.5 -5.5t2.5 -1.5h3h94q8 0 12 -6z" />
    <glyph glyph-name="uni01C4" unicode="&#x1c4;" horiz-adv-x="1385" 
d="M49.5 7q-5.5 7 -4.5 18l99 703q2 8 5.5 11t13.5 3h190q177 0 267 -78t90 -219q0 -138 -52.5 -238t-153.5 -153.5t-243 -53.5h-196q-10 0 -15.5 7zM275 106q144 0 213 91t69 255q0 96 -50.5 140t-152.5 44h-61q-14 0 -17 -16l-68 -498q0 -1 -0.5 -2.5t0.5 -2.5
q0 -11 12 -11h55zM728.5 4q-4.5 4 -3.5 14l5 35q1 10 4 17t13 18l433 535q5 6 5 7.5t-7 1.5h-326q-17 0 -15 20l11 79q2 7 4 9t8 2h538q6 0 9 -4t1 -11l-5 -39q-3 -13 -13 -28l-443 -541q-4 -4 -3 -6t4 -2h357q8 0 10.5 -2.5t1.5 -9.5l-13 -87q-1 -7 -3.5 -9.5t-11.5 -2.5
h-545q-11 0 -15.5 4zM1228 954.5q4 0.5 7.5 0.5h5.5h77q10 0 10 -7q0 -5 -6 -11l-121 -106q-10 -8 -23 -8h-61q-18 0 -27 15l-93 105q-6 7 -6.5 9.5t6.5 2.5h71q8 0 12 -2.5t8 -8.5l47 -52q8 -8 11 -8t8 5l9 9l56 52q5 4 9 4.5z" />
    <glyph glyph-name="uni01C5" unicode="&#x1c5;" horiz-adv-x="1247" 
d="M49.5 7q-5.5 7 -4.5 18l99 703q2 8 5.5 11t13.5 3h190q177 0 267 -78t90 -219q0 -138 -52.5 -238t-153.5 -153.5t-243 -53.5h-196q-10 0 -15.5 7zM275 106q144 0 213 91t69 255q0 96 -50.5 140t-152.5 44h-61q-14 0 -17 -16l-68 -498q0 -1 -0.5 -2.5t0.5 -2.5
q0 -11 12 -11h55zM734 3.5q-3 3.5 -1 13.5l4 32q1 11 5.5 17.5t16.5 20.5l310 343q4 4 4 9q0 7 -13 7h-233q-8 0 -10 4t-1 14l8 53q3 13 18 13h398q12 0 10 -12l-6 -38q-1 -8 -5.5 -15t-13.5 -17l-312 -346q-4 -6 -4 -9q0 -8 11 -8h259q14 0 11 -14l-7 -56q-2 -8 -5.5 -11.5
t-11.5 -3.5h-419q-10 0 -13 3.5zM1139 742.5q4 0.5 7.5 0.5h5.5h77q10 0 10 -7q0 -5 -6 -11l-121 -106q-10 -8 -23 -8h-61q-18 0 -27 15l-93 105q-6 7 -6.5 9.5t6.5 2.5h71q8 0 12 -2.5t8 -8.5l47 -52q8 -8 11 -8t8 5l9 9l56 52q5 4 9 4.5z" />
    <glyph glyph-name="uni01C6" unicode="&#x1c6;" horiz-adv-x="1112" 
d="M399 0q-21 0 -18 17l6 33v4q0 5 -3 5t-11 -6q-33 -27 -69.5 -45t-85.5 -18q-85 0 -135 54.5t-50 157.5q0 86 32.5 164t92.5 126t139 48q42 0 72 -15t54 -43q7 -7 11 -7q9 0 12 24l33 229q1 14 17 14h101q13 0 10 -21l-100 -704q-1 -10 -5.5 -13.5t-16.5 -3.5h-86z
M434 402q-21 27 -45 39.5t-54 12.5q-57 0 -95.5 -40t-57 -99.5t-18.5 -116.5q0 -63 28 -93.5t76 -30.5q32 0 61 15.5t48 39.5t23 48zM599 3.5q-3 3.5 -1 13.5l4 32q1 11 5.5 17.5t16.5 20.5l310 343q4 4 4 9q0 7 -13 7h-233q-8 0 -10 4t-1 14l8 53q3 13 18 13h398
q12 0 10 -12l-6 -38q-1 -8 -5.5 -15t-13.5 -17l-312 -346q-4 -6 -4 -9q0 -8 11 -8h259q14 0 11 -14l-7 -56q-2 -8 -5.5 -11.5t-11.5 -3.5h-419q-10 0 -13 3.5zM1004 742.5q4 0.5 7.5 0.5h5.5h77q10 0 10 -7q0 -5 -6 -11l-121 -106q-10 -8 -23 -8h-61q-18 0 -27 15l-93 105
q-6 7 -6.5 9.5t6.5 2.5h71q8 0 12 -2.5t8 -8.5l47 -52q8 -8 11 -8t8 5l9 9l56 52q5 4 9 4.5z" />
    <glyph glyph-name="uni01C7" unicode="&#x1c7;" horiz-adv-x="1056" 
d="M148.5 739q3.5 3 10.5 3h122q13 0 10 -20l-84 -599l-1 -5q0 -8 10 -8h330q14 0 12 -18l-11 -80q-1 -7 -4.5 -9.5t-11.5 -2.5h-469q-20 0 -17 22l99 705q1 9 4.5 12zM904.5 34.5q-51.5 -44.5 -147.5 -44.5q-55 0 -117 19q-13 5 -17 8.5t-3 10.5l23 87q2 8 5 10t11 0
q14 -4 31.5 -8t35.5 -4q45 0 69.5 26t32.5 83l71 507q1 8 4 10.5t10 2.5h123q13 0 10 -20l-76 -544q-14 -99 -65.5 -143.5z" />
    <glyph glyph-name="uni01C8" unicode="&#x1c8;" horiz-adv-x="875" 
d="M148.5 739q3.5 3 10.5 3h122q13 0 10 -20l-84 -599l-1 -5q0 -8 10 -8h330q14 0 12 -18l-11 -80q-1 -7 -4.5 -9.5t-11.5 -2.5h-469q-20 0 -17 22l99 705q1 9 4.5 12zM865 624q-2 -11 -7 -15t-18 -4h-96q-17 0 -13 24l14 95q2 18 17 18h106q6 0 9 -6t1 -15zM719 -132
q-43 -38 -130 -38q-43 0 -57 4.5t-12 17.5l9 66q2 12 13 15l46 4q24 2 38.5 17.5t19.5 49.5l72 513q1 8 4 10.5t10 2.5h101q7 0 11 -6t3 -13l-73 -521q-12 -84 -55 -122z" />
    <glyph glyph-name="uni01C9" unicode="&#x1c9;" horiz-adv-x="513" 
d="M159 18q-2 -12 -6 -15t-18 -3h-87q-11 0 -16.5 6t-3.5 16l103 707q1 8 3.5 10.5t9.5 2.5h104q13 0 10 -17zM503 624q-2 -11 -7 -15t-18 -4h-96q-17 0 -13 24l14 95q2 18 17 18h106q6 0 9 -6t1 -15zM357 -132q-43 -38 -130 -38q-43 0 -57 4.5t-12 17.5l9 66q2 12 13 15
l46 4q24 2 38.5 17.5t19.5 49.5l72 513q1 8 4 10.5t10 2.5h101q7 0 11 -6t3 -13l-73 -521q-12 -84 -55 -122z" />
    <glyph glyph-name="uni01CA" unicode="&#x1ca;" horiz-adv-x="1195" 
d="M734 742q12 0 10 -14l-101 -717q-1 -7 -4 -9t-11 -2h-84q-13 0 -21 14l-275 486q-3 6 -7 6t-6 -11l-68 -481q-2 -8 -5 -11t-13 -3h-92q-15 0 -13 19l101 710q1 8 3.5 10.5t11.5 2.5h99q9 0 14 -3.5t10 -12.5l257 -463q4 -7 10 -7q7 0 8 12l65 462q2 8 4.5 10t10.5 2h96z
M1043.5 34.5q-51.5 -44.5 -147.5 -44.5q-55 0 -117 19q-13 5 -17 8.5t-3 10.5l23 87q2 8 5 10t11 0q14 -4 31.5 -8t35.5 -4q45 0 69.5 26t32.5 83l71 507q1 8 4 10.5t10 2.5h123q13 0 10 -20l-76 -544q-14 -99 -65.5 -143.5z" />
    <glyph glyph-name="uni01CB" unicode="&#x1cb;" horiz-adv-x="1014" 
d="M734 742q12 0 10 -14l-101 -717q-1 -7 -4 -9t-11 -2h-84q-13 0 -21 14l-275 486q-3 6 -7 6t-6 -11l-68 -481q-2 -8 -5 -11t-13 -3h-92q-15 0 -13 19l101 710q1 8 3.5 10.5t11.5 2.5h99q9 0 14 -3.5t10 -12.5l257 -463q4 -7 10 -7q7 0 8 12l65 462q2 8 4.5 10t10.5 2h96z
M1004 624q-2 -11 -7 -15t-18 -4h-96q-17 0 -13 24l14 95q2 18 17 18h106q6 0 9 -6t1 -15zM858 -132q-43 -38 -130 -38q-43 0 -57 4.5t-12 17.5l9 66q2 12 13 15l46 4q24 2 38.5 17.5t19.5 49.5l72 513q1 8 4 10.5t10 2.5h101q7 0 11 -6t3 -13l-73 -521q-12 -84 -55 -122z
" />
    <glyph glyph-name="uni01CC" unicode="&#x1cc;" horiz-adv-x="848" 
d="M29 22l69 495q2 8 4 10.5t9 2.5h106q6 0 8 -2.5t1 -9.5l-8 -53v-3q0 -4 2 -4q1 0 8 5q93 77 181 77q68 0 106 -36t38 -96q0 -9 -2 -27l-51 -364q-1 -10 -5.5 -13.5t-15.5 -3.5h-96q-16 0 -13 22l49 341l2 21q0 60 -69 60q-36 0 -67.5 -17t-75.5 -55l-51 -356
q-1 -10 -6 -13t-17 -3h-93q-16 0 -13 22zM838 624q-2 -11 -7 -15t-18 -4h-96q-17 0 -13 24l14 95q2 18 17 18h106q6 0 9 -6t1 -15zM692 -132q-43 -38 -130 -38q-43 0 -57 4.5t-12 17.5l9 66q2 12 13 15l46 4q24 2 38.5 17.5t19.5 49.5l72 513q1 8 4 10.5t10 2.5h101
q7 0 11 -6t3 -13l-73 -521q-12 -84 -55 -122z" />
    <glyph glyph-name="uni01EA" unicode="&#x1ea;" horiz-adv-x="770" 
d="M661.5 671q76.5 -81 76.5 -226q0 -48 -6 -83q-21 -147 -97 -241t-193 -121q-52 -19 -76 -38.5t-26 -43.5q-4 -30 33 -30q18 0 32.5 4.5t31.5 11.5q6 2 7 2q4 0 5.5 -3.5t0.5 -8.5l-5 -38q-2 -14 -10 -15q-43 -13 -92 -13t-75.5 19.5t-26.5 56.5q0 28 15 49t55 39
q-119 12 -184.5 90.5t-65.5 209.5q0 40 6 83q16 117 68 202t132.5 130t181.5 45q136 0 212.5 -81zM587 473q0 89 -35 131.5t-106 42.5q-93 0 -149 -70.5t-77 -216.5q-8 -56 -8 -94q0 -88 36 -129t109 -41q94 0 148.5 67.5t74.5 210.5q7 53 7 99z" />
    <glyph glyph-name="uni01EB" unicode="&#x1eb;" horiz-adv-x="599" 
d="M268.5 -37.5q-24.5 -19.5 -26.5 -44.5q-4 -30 33 -30q18 0 32.5 4.5t31.5 11.5q6 2 7 2q4 0 5.5 -3.5t0.5 -8.5l-5 -38q-2 -14 -10 -15q-43 -13 -92 -13t-75.5 19.5t-26.5 56.5q0 29 15.5 50.5t58.5 39.5q-86 14 -135 75t-49 152t41 164t110 114t150 41q70 0 122.5 -29.5
t80.5 -83t28 -122.5q0 -74 -27.5 -136.5t-77 -106t-112.5 -61.5q-55 -19 -79.5 -38.5zM190.5 111q27.5 -32 78.5 -32q47 0 85 29.5t60 86.5t22 134q0 60 -27 92.5t-77 32.5q-47 0 -85.5 -30.5t-61 -87.5t-22.5 -134q0 -59 27.5 -91z" />
    <glyph glyph-name="uni01F1" unicode="&#x1f1;" horiz-adv-x="1344" 
d="M49.5 7q-5.5 7 -4.5 18l99 703q2 8 5.5 11t13.5 3h190q177 0 267 -78t90 -219q0 -138 -52.5 -238t-153.5 -153.5t-243 -53.5h-196q-10 0 -15.5 7zM275 106q144 0 213 91t69 255q0 96 -50.5 140t-152.5 44h-61q-14 0 -17 -16l-68 -498q0 -1 -0.5 -2.5t0.5 -2.5
q0 -11 12 -11h55zM686.5 4q-4.5 4 -3.5 14l5 35q1 10 4 17t13 18l433 535q5 6 5 7.5t-7 1.5h-326q-17 0 -15 20l11 79q2 7 4 9t8 2h538q6 0 9 -4t1 -11l-5 -39q-3 -13 -13 -28l-443 -541q-4 -4 -3 -6t4 -2h357q8 0 10.5 -2.5t1.5 -9.5l-13 -87q-1 -7 -3.5 -9.5t-11.5 -2.5
h-545q-11 0 -15.5 4z" />
    <glyph glyph-name="uni01F2" unicode="&#x1f2;" horiz-adv-x="1175" 
d="M49.5 7q-5.5 7 -4.5 18l99 703q2 8 5.5 11t13.5 3h190q177 0 267 -78t90 -219q0 -138 -52.5 -238t-153.5 -153.5t-243 -53.5h-196q-10 0 -15.5 7zM275 106q144 0 213 91t69 255q0 96 -50.5 140t-152.5 44h-61q-14 0 -17 -16l-68 -498q0 -1 -0.5 -2.5t0.5 -2.5
q0 -11 12 -11h55zM662 3.5q-3 3.5 -1 13.5l4 32q1 11 5.5 17.5t16.5 20.5l310 343q4 4 4 9q0 7 -13 7h-233q-8 0 -10 4t-1 14l8 53q3 13 18 13h398q12 0 10 -12l-6 -38q-1 -8 -5.5 -15t-13.5 -17l-312 -346q-4 -6 -4 -9q0 -8 11 -8h259q14 0 11 -14l-7 -56q-2 -8 -5.5 -11.5
t-11.5 -3.5h-419q-10 0 -13 3.5z" />
    <glyph glyph-name="uni01F3" unicode="&#x1f3;" horiz-adv-x="1112" 
d="M399 0q-21 0 -18 17l6 33v4q0 5 -3 5t-11 -6q-33 -27 -69.5 -45t-85.5 -18q-85 0 -135 54.5t-50 157.5q0 86 32.5 164t92.5 126t139 48q42 0 72 -15t54 -43q7 -7 11 -7q9 0 12 24l33 229q1 14 17 14h101q13 0 10 -21l-100 -704q-1 -10 -5.5 -13.5t-16.5 -3.5h-86z
M434 402q-21 27 -45 39.5t-54 12.5q-57 0 -95.5 -40t-57 -99.5t-18.5 -116.5q0 -63 28 -93.5t76 -30.5q32 0 61 15.5t48 39.5t23 48zM599 3.5q-3 3.5 -1 13.5l4 32q1 11 5.5 17.5t16.5 20.5l310 343q4 4 4 9q0 7 -13 7h-233q-8 0 -10 4t-1 14l8 53q3 13 18 13h398
q12 0 10 -12l-6 -38q-1 -8 -5.5 -15t-13.5 -17l-312 -346q-4 -6 -4 -9q0 -8 11 -8h259q14 0 11 -14l-7 -56q-2 -8 -5.5 -11.5t-11.5 -3.5h-419q-10 0 -13 3.5z" />
    <glyph glyph-name="uni01F4" unicode="&#x1f4;" horiz-adv-x="747" 
d="M191.5 27q-63.5 37 -97 105.5t-33.5 161.5q0 125 47.5 229.5t135 166.5t203.5 62q76 0 136 -30t93.5 -79.5t34.5 -105.5q0 -9 -1.5 -12.5t-5.5 -4.5l-116 -17h-1q-4 0 -6 4.5t-4 17.5q-6 53 -41 87t-95 34q-77 0 -128 -54t-75.5 -139t-24.5 -179q0 -92 36.5 -135
t107.5 -43t119.5 41.5t66.5 98.5l7 38q2 6 2 7q0 5 -11 5h-137q-5 0 -7 2.5t-1 9.5l8 70q2 9 9 9l275 -1q10 0 13 -3.5t1 -11.5l-49 -349q-1 -12 -15 -12h-27q-8 0 -12.5 3t-6.5 11l-11 80q-1 5 -5 5q-6 0 -12 -7q-34 -44 -88.5 -73t-132.5 -29q-88 0 -151.5 37zM604 892
q1 -3 1 -8t-3 -7.5t-11 -4.5l-239 -66q-2 -1 -6 -1q-12 0 -15 15l-7 30q-1 3 -1 8q0 7 5 8l248 98l3 1q4 0 7.5 -4t4.5 -9z" />
    <glyph glyph-name="uni01F5" unicode="&#x1f5;" horiz-adv-x="622" 
d="M34.5 -142q-66.5 32 -66.5 89q0 38 28.5 66t76.5 46q12 5 12 9t-7 7q-21 10 -31.5 24t-10.5 36q0 32 29 55t70 37q12 5 12 10q0 3 -6 6q-36 16 -55 44t-19 66q0 61 34.5 102.5t90 62t120.5 20.5q115 0 168 -49q3 -3 7 -3q8 0 22 14q20 20 51 34t54 14q12 0 17 -4t4 -14
l-8 -56q-1 -13 -5 -17t-14 -4q-35 0 -55 -5q-16 -4 -22.5 -10t-2.5 -15q7 -21 7 -39q0 -59 -37 -98.5t-94.5 -58t-119.5 -18.5q-38 0 -82.5 -9t-44.5 -33q0 -11 14.5 -16t50.5 -7l137 -8q172 -9 172 -133q0 -95 -92 -136t-220 -41q-118 0 -184.5 32zM380.5 307
q37.5 30 37.5 86q0 36 -27 56t-77 20q-55 0 -93 -32.5t-38 -86.5q0 -34 27.5 -53.5t76.5 -19.5q56 0 93.5 30zM361 -85.5q51 22.5 51 69.5q0 24 -17.5 36t-58.5 14l-156 9q-41 -8 -71 -28.5t-30 -53.5q0 -69 146 -69q85 0 136 22.5zM491 680q1 -3 1 -8t-3 -7.5t-11 -4.5
l-239 -66q-2 -1 -6 -1q-12 0 -15 15l-7 30q-1 3 -1 8q0 7 5 8l248 98l3 1q4 0 7.5 -4t4.5 -9z" />
    <glyph glyph-name="Aringacute" unicode="&#x1fa;" horiz-adv-x="678" 
d="M634 13q0 -13 -12 -13h-122q-6 0 -11 4.5t-5 11.5l-32 163q-1 4 -2.5 5t-7.5 1h-243q-5 0 -9 -4t-6 -9l-79 -164q-3 -5 -6.5 -6.5t-10.5 -1.5h-96q-6 0 -10 5t-4 12t2 11l340 700q3 7 7 10q-15 25 -15 54q0 10 1 16q4 34 30.5 58.5t61.5 30.5l18 47q4 13 10 16.5t19 3.5
h35q7 0 11.5 -5t4.5 -12q0 -4 -2 -10l-29 -48q24 -11 37.5 -33t13.5 -49q0 -23 -9 -43t-24 -35q2 -4 4 -10l139 -699q1 -2 1 -7zM371.5 758q12.5 -14 31.5 -14q24 0 43.5 18t23.5 43q2 20 -9.5 32.5t-31.5 12.5q-24 0 -44 -17.5t-23 -41.5q-3 -19 9.5 -33zM429.5 303.5
q4.5 5.5 3.5 13.5l-52 267q-2 5 -3 5q-4 0 -10 -13l-128 -266q-5 -8 -4.5 -10t6.5 -2h176q7 0 11.5 5.5z" />
    <glyph glyph-name="aringacute" unicode="&#x1fb;" horiz-adv-x="558" 
d="M162 -10q-70 0 -110 35.5t-40 93.5q0 69 45.5 114t114.5 65.5t145 23.5l50 3q19 2 22 19l3 23q2 12 2 18q0 34 -21.5 52.5t-61.5 18.5q-83 0 -130 -68q-4 -6 -11 -6q-5 0 -8 1l-81 21q-9 2 -9 11q0 8 4 17q34 54 96 81t147 27q102 0 151 -38t49 -105q0 -9 -2 -29
l-50 -352q-2 -11 -4.5 -13.5t-12.5 -2.5h-85q-15 0 -15 22l2 34q0 7 -4 7q-5 0 -14 -10q-67 -63 -172 -63zM375 246v7q0 4 -2 5.5t-8 0.5l-47 -4q-67 -5 -122 -31.5t-55 -84.5q0 -28 20.5 -44.5t56.5 -16.5q28 0 54.5 9t45.5 24q43 31 47 64zM473 886q1 -3 1 -8t-3 -7.5
t-11 -4.5l-239 -66q-2 -1 -6 -1q-12 0 -15 15l-7 30q-1 3 -1 8q0 7 5 8l248 98l3 1q4 0 7.5 -4t4.5 -9zM412.5 629q-16.5 -27 -44 -43t-59.5 -16q-43 0 -71 29t-28 73q0 11 1 17q5 41 39.5 69.5t78.5 28.5q43 0 71.5 -28.5t28.5 -70.5q0 -32 -16.5 -59zM360.5 720.5
q-11.5 10.5 -29.5 10.5q-24 0 -44 -17.5t-24 -41.5q-2 -19 10.5 -33t31.5 -14q25 0 46 21.5t21 47.5q0 16 -11.5 26.5z" />
    <glyph glyph-name="AEacute" unicode="&#x1fc;" horiz-adv-x="1053" 
d="M984.5 105q4.5 -5 3.5 -13l-11 -80q-2 -7 -4.5 -9.5t-11.5 -2.5h-476q-10 0 -15 6t-4 16l23 157q0 5 -1 5.5t-6 0.5h-224q-5 0 -10 -3.5t-7 -8.5l-113 -165q-4 -5 -8 -6.5t-12 -1.5h-96q-5 0 -9 4t-4 10t5 14l479 700q6 9 11 11.5t15 2.5h543q7 0 10.5 -5.5t2.5 -13.5
l-11 -76q-2 -9 -5 -12t-13 -3h-317q-8 0 -14.5 -5t-7.5 -13l-24 -175l-1 -5q0 -4 3 -5t7 -1h219q7 0 12 -5.5t4 -12.5l-12 -82q-1 -5 -3 -6.5t-9 -1.5h-221q-7 0 -12 -5t-6 -11l-26 -186q-1 -7 -0.5 -7.5t6.5 -0.5h338q8 0 12.5 -5zM501 304q6 6 7 13l40 284q2 15 -5 15
q-10 0 -23 -21l-198 -285q-7 -8 -7 -10t6 -2h167q7 0 13 6zM927 892q1 -3 1 -8t-3 -7.5t-11 -4.5l-239 -66q-2 -1 -6 -1q-12 0 -15 15l-7 30q-1 3 -1 8q0 7 5 8l248 98l3 1q4 0 7.5 -4t4.5 -9z" />
    <glyph glyph-name="aeacute" unicode="&#x1fd;" horiz-adv-x="921" 
d="M500 212q-1 -6 -1 -19q0 -48 34.5 -80t87.5 -32q47 0 80.5 19.5t70.5 57.5q2 1 5 1q2 0 12 -5l57 -28q8 -3 8 -11q0 -5 -3 -11q-50 -60 -110 -87t-138 -27q-71 0 -118.5 29t-75.5 74q-4 0 -7 -3.5t-5 -8.5q-49 -43 -103 -67t-128 -24t-114.5 35t-40.5 96q0 8 2 26
q11 76 83.5 121t205.5 53l62 4q8 1 15.5 6t8.5 13l3 23q1 7 1 19q0 70 -84 70q-36 0 -69.5 -18t-59.5 -55q-3 -3 -7 -3q-3 0 -12 3l-80 21q-7 1 -7 16q0 8 2 12q39 55 96 81.5t145 26.5q138 -1 171 -75q74 75 182 75q102 0 162 -60.5t60 -167.5q0 -29 -4 -56
q-2 -10 -4.5 -12.5t-13.5 -3.5h-346q-20 0 -23 -28zM569.5 417.5q-44.5 -40.5 -53.5 -106.5l232 3q11 0 16 5t6 17q1 6 1 18q0 43 -26.5 73.5t-73.5 30.5q-57 0 -101.5 -40.5zM374 248q0 4 -2.5 5t-10.5 1l-50 -4q-74 -6 -122.5 -37t-48.5 -83q0 -27 19 -42t56 -15
q35 0 68 13.5t55 36t26 48.5l9 70zM649 680q1 -3 1 -8t-3 -7.5t-11 -4.5l-239 -66q-2 -1 -6 -1q-12 0 -15 15l-7 30q-1 3 -1 8q0 7 5 8l248 98l3 1q4 0 7.5 -4t4.5 -9z" />
    <glyph glyph-name="Oslashacute" unicode="&#x1fe;" horiz-adv-x="752" 
d="M801 689q0 -4 -4 -8l-96 -85q28 -65 28 -151q0 -38 -6 -83q-16 -116 -67.5 -199.5t-131.5 -128t-181 -44.5q-140 0 -215 83l-75 -73q-7 -7 -14 -7q-8 0 -17 11l-26 30q-10 12 -10 17t5 10l90 80q-29 64 -29 151q0 40 6 83q16 117 68 202t132.5 130t181.5 45
q69 0 123.5 -22.5t91.5 -64.5l82 79q5 5 10 5q7 0 12 -7l36 -41q6 -8 6 -12zM208 302q0 -30 4 -50l345 328q-31 67 -121 67q-93 0 -148 -70t-76 -217q-4 -27 -4 -58zM573 432q0 32 -5 52l-343 -326q18 -32 48 -46.5t75 -14.5q93 0 147 67t74 210q4 28 4 58zM601 892
q1 -3 1 -8t-3 -7.5t-11 -4.5l-239 -66q-2 -1 -6 -1q-12 0 -15 15l-7 30q-1 3 -1 8q0 7 5 8l248 98l3 1q4 0 7.5 -4t4.5 -9z" />
    <glyph glyph-name="oslashacute" unicode="&#x1ff;" horiz-adv-x="591" 
d="M603 484q0 -4 -5 -9l-66 -56q24 -49 24 -114q0 -89 -39.5 -161t-108 -113t-152.5 -41q-102 0 -164 59l-51 -43q-7 -6 -14 -6q-8 0 -16 11l-14 17q-9 11 -9 17t7 12l56 47q-27 50 -27 117q0 91 41 164t110 114t150 41q104 0 168 -64l58 48q6 5 12 5q7 0 12 -7l22 -26
q6 -8 6 -12zM154 191l257 215q-26 48 -88 48q-47 0 -85.5 -30.5t-61 -87.5t-22.5 -134v-11zM427 331l-252 -212q28 -40 85 -40q47 0 85 29.5t60 86.5t22 134v2zM491 680q1 -3 1 -8t-3 -7.5t-11 -4.5l-239 -66q-2 -1 -6 -1q-12 0 -15 15l-7 30q-1 3 -1 8q0 7 5 8l248 98l3 1
q4 0 7.5 -4t4.5 -9z" />
    <glyph glyph-name="uni0200" unicode="&#x200;" horiz-adv-x="756" 
d="M-2 9q0 7 6 19l352 700q4 9 10.5 11.5t17.5 2.5h126q17 0 21 -23l152 -699l1 -6q0 -14 -13 -14h-121q-13 0 -16 16l-35 161q-1 5 -3 6.5t-8 1.5h-259q-6 0 -9 -2.5t-6 -8.5l-84 -166q-2 -5 -6 -6.5t-11 -1.5h-105q-10 0 -10 9zM468 298q14 0 11 16l-60 265q-1 9 -6 9
t-9 -10l-133 -265q-3 -7 -3 -10q0 -5 8 -5h192zM296 965q3 0 10 -7l112 -128q5 -3 5 -10q0 -4 -4 -8l-26 -26q-4 -4 -8 -4t-9 4t-6 5l-121 97q-10 7 -10 15q0 6 5 13l46 46q3 3 6 3zM480 965q3 0 10 -7l113 -128q5 -5 5 -10t-4 -8l-27 -26q-4 -4 -8 -4q-3 0 -14 9l-122 97
q-10 6 -10 15q0 7 6 13l45 46q3 3 6 3z" />
    <glyph glyph-name="uni0201" unicode="&#x201;" horiz-adv-x="558" 
d="M162 -10q-70 0 -110 35.5t-40 93.5q0 69 45.5 114t114.5 65.5t145 23.5l50 3q19 2 22 19l3 23q2 12 2 18q0 34 -21.5 52.5t-61.5 18.5q-83 0 -130 -68q-4 -6 -11 -6q-5 0 -8 1l-81 21q-9 2 -9 11q0 8 4 17q34 54 96 81t147 27q102 0 151 -38t49 -105q0 -9 -2 -29
l-50 -352q-2 -11 -4.5 -13.5t-12.5 -2.5h-85q-15 0 -15 22l2 34q0 7 -4 7q-5 0 -14 -10q-67 -63 -172 -63zM375 246v7q0 4 -2 5.5t-8 0.5l-47 -4q-67 -5 -122 -31.5t-55 -84.5q0 -28 20.5 -44.5t56.5 -16.5q28 0 54.5 9t45.5 24q43 31 47 64zM174 753q3 0 10 -7l112 -128
q5 -3 5 -10q0 -4 -4 -8l-26 -26q-4 -4 -8 -4t-9 4t-6 5l-121 97q-10 7 -10 15q0 6 5 13l46 46q3 3 6 3zM358 753q3 0 10 -7l113 -128q5 -5 5 -10t-4 -8l-27 -26q-4 -4 -8 -4q-3 0 -14 9l-122 97q-10 6 -10 15q0 7 6 13l45 46q3 3 6 3z" />
    <glyph glyph-name="uni0202" unicode="&#x202;" horiz-adv-x="756" 
d="M-2 9q0 7 6 19l352 700q4 9 10.5 11.5t17.5 2.5h126q17 0 21 -23l152 -699l1 -6q0 -14 -13 -14h-121q-13 0 -16 16l-35 161q-1 5 -3 6.5t-8 1.5h-259q-6 0 -9 -2.5t-6 -8.5l-84 -166q-2 -5 -6 -6.5t-11 -1.5h-105q-10 0 -10 9zM468 298q14 0 11 16l-60 265q-1 9 -6 9
t-9 -10l-133 -265q-3 -7 -3 -10q0 -5 8 -5h192zM295 833.5q-3 3.5 -3 9.5q0 3 2 9q23 46 69 74t106 28q65 0 108 -28t50 -79l1 -6q0 -11 -13 -11h-56q-5 0 -8.5 3.5t-5 7t-3.5 6.5q-29 39 -72 39q-29 0 -53.5 -13t-39.5 -34q-7 -9 -18 -9h-55q-6 0 -9 3.5z" />
    <glyph glyph-name="uni0203" unicode="&#x203;" horiz-adv-x="558" 
d="M162 -10q-70 0 -110 35.5t-40 93.5q0 69 45.5 114t114.5 65.5t145 23.5l50 3q19 2 22 19l3 23q2 12 2 18q0 34 -21.5 52.5t-61.5 18.5q-83 0 -130 -68q-4 -6 -11 -6q-5 0 -8 1l-81 21q-9 2 -9 11q0 8 4 17q34 54 96 81t147 27q102 0 151 -38t49 -105q0 -9 -2 -29
l-50 -352q-2 -11 -4.5 -13.5t-12.5 -2.5h-85q-15 0 -15 22l2 34q0 7 -4 7q-5 0 -14 -10q-67 -63 -172 -63zM375 246v7q0 4 -2 5.5t-8 0.5l-47 -4q-67 -5 -122 -31.5t-55 -84.5q0 -28 20.5 -44.5t56.5 -16.5q28 0 54.5 9t45.5 24q43 31 47 64zM173 621.5q-3 3.5 -3 9.5
q0 3 2 9q23 46 69 74t106 28q65 0 108 -28t50 -79l1 -6q0 -11 -13 -11h-56q-5 0 -8.5 3.5t-5 7t-3.5 6.5q-29 39 -72 39q-29 0 -53.5 -13t-39.5 -34q-7 -9 -18 -9h-55q-6 0 -9 3.5z" />
    <glyph glyph-name="uni0204" unicode="&#x204;" horiz-adv-x="645" 
d="M148.5 739.5q2.5 2.5 9.5 2.5h489q13 0 10 -19l-11 -75q-2 -9 -5.5 -12.5t-13.5 -3.5h-335q-8 0 -11 -2.5t-4 -10.5l-25 -180l-1 -6q0 -5 9 -5h234q8 0 10 -3t1 -10l-12 -85q-1 -6 -3.5 -8t-9.5 -2h-235q-6 0 -8.5 -3t-4.5 -11l-25 -185v-4q0 -7 6 -7h355q7 0 10 -3
t1 -11l-11 -84q-1 -7 -3.5 -9.5t-11.5 -2.5h-491q-11 0 -15 5t-2 17l100 707q1 8 3.5 10.5zM261 965q3 0 10 -7l112 -128q5 -3 5 -10q0 -4 -4 -8l-26 -26q-4 -4 -8 -4t-9 4t-6 5l-121 97q-10 7 -10 15q0 6 5 13l46 46q3 3 6 3zM445 965q3 0 10 -7l113 -128q5 -5 5 -10t-4 -8
l-27 -26q-4 -4 -8 -4q-3 0 -14 9l-122 97q-10 6 -10 15q0 7 6 13l45 46q3 3 6 3z" />
    <glyph glyph-name="uni0205" unicode="&#x205;" horiz-adv-x="584" 
d="M145 18.5q-53 28.5 -82.5 80.5t-29.5 120q0 83 38 156.5t107 119t155 45.5q102 0 162 -60.5t60 -167.5q0 -29 -4 -56q-2 -9 -6.5 -12.5t-15.5 -3.5h-351q-9 0 -12.5 -11t-3.5 -33q0 -54 34 -84.5t89 -30.5q43 0 79 17.5t68 54.5q5 5 10 5q3 0 11 -4l57 -28q10 -3 10 -11
q0 -4 -5 -11q-54 -63 -111.5 -88.5t-135.5 -25.5q-70 0 -123 28.5zM412 311q24 0 24 41q0 45 -27.5 75.5t-75.5 30.5q-39 0 -72.5 -20t-55 -54t-26.5 -73h233zM190 753q3 0 10 -7l112 -128q5 -3 5 -10q0 -4 -4 -8l-26 -26q-4 -4 -8 -4t-9 4t-6 5l-121 97q-10 7 -10 15
q0 6 5 13l46 46q3 3 6 3zM374 753q3 0 10 -7l113 -128q5 -5 5 -10t-4 -8l-27 -26q-4 -4 -8 -4q-3 0 -14 9l-122 97q-10 6 -10 15q0 7 6 13l45 46q3 3 6 3z" />
    <glyph glyph-name="uni0206" unicode="&#x206;" horiz-adv-x="645" 
d="M148.5 739.5q2.5 2.5 9.5 2.5h489q13 0 10 -19l-11 -75q-2 -9 -5.5 -12.5t-13.5 -3.5h-335q-8 0 -11 -2.5t-4 -10.5l-25 -180l-1 -6q0 -5 9 -5h234q8 0 10 -3t1 -10l-12 -85q-1 -6 -3.5 -8t-9.5 -2h-235q-6 0 -8.5 -3t-4.5 -11l-25 -185v-4q0 -7 6 -7h355q7 0 10 -3
t1 -11l-11 -84q-1 -7 -3.5 -9.5t-11.5 -2.5h-491q-11 0 -15 5t-2 17l100 707q1 8 3.5 10.5zM260 833.5q-3 3.5 -3 9.5q0 3 2 9q23 46 69 74t106 28q65 0 108 -28t50 -79l1 -6q0 -11 -13 -11h-56q-5 0 -8.5 3.5t-5 7t-3.5 6.5q-29 39 -72 39q-29 0 -53.5 -13t-39.5 -34
q-7 -9 -18 -9h-55q-6 0 -9 3.5z" />
    <glyph glyph-name="uni0207" unicode="&#x207;" horiz-adv-x="584" 
d="M145 18.5q-53 28.5 -82.5 80.5t-29.5 120q0 83 38 156.5t107 119t155 45.5q102 0 162 -60.5t60 -167.5q0 -29 -4 -56q-2 -9 -6.5 -12.5t-15.5 -3.5h-351q-9 0 -12.5 -11t-3.5 -33q0 -54 34 -84.5t89 -30.5q43 0 79 17.5t68 54.5q5 5 10 5q3 0 11 -4l57 -28q10 -3 10 -11
q0 -4 -5 -11q-54 -63 -111.5 -88.5t-135.5 -25.5q-70 0 -123 28.5zM412 311q24 0 24 41q0 45 -27.5 75.5t-75.5 30.5q-39 0 -72.5 -20t-55 -54t-26.5 -73h233zM189 621.5q-3 3.5 -3 9.5q0 3 2 9q23 46 69 74t106 28q65 0 108 -28t50 -79l1 -6q0 -11 -13 -11h-56
q-5 0 -8.5 3.5t-5 7t-3.5 6.5q-29 39 -72 39q-29 0 -53.5 -13t-39.5 -34q-7 -9 -18 -9h-55q-6 0 -9 3.5z" />
    <glyph glyph-name="uni0208" unicode="&#x208;" horiz-adv-x="306" 
d="M279 742q15 0 12 -20l-99 -704q-1 -12 -5.5 -15t-17.5 -3h-108q-11 0 -14.5 5.5t-1.5 16.5l100 707q1 8 3.5 10.5t9.5 2.5h121zM76 965q3 0 10 -7l112 -128q5 -3 5 -10q0 -4 -4 -8l-26 -26q-4 -4 -8 -4t-9 4t-6 5l-121 97q-10 7 -10 15q0 6 5 13l46 46q3 3 6 3zM260 965
q3 0 10 -7l113 -128q5 -5 5 -10t-4 -8l-27 -26q-4 -4 -8 -4q-3 0 -14 9l-122 97q-10 6 -10 15q0 7 6 13l45 46q3 3 6 3z" />
    <glyph glyph-name="uni0209" unicode="&#x209;" horiz-adv-x="256" 
d="M158 18q-1 -12 -5.5 -15t-17.5 -3h-87q-11 0 -16 6t-3 16l69 495q2 8 4.5 10.5t9.5 2.5h101q7 0 11.5 -5.5t3.5 -13.5zM19 753q3 0 10 -7l112 -128q5 -3 5 -10q0 -4 -4 -8l-26 -26q-4 -4 -8 -4t-9 4t-6 5l-121 97q-10 7 -10 15q0 6 5 13l46 46q3 3 6 3zM203 753
q3 0 10 -7l113 -128q5 -5 5 -10t-4 -8l-27 -26q-4 -4 -8 -4q-3 0 -14 9l-122 97q-10 6 -10 15q0 7 6 13l45 46q3 3 6 3z" />
    <glyph glyph-name="uni020A" unicode="&#x20a;" horiz-adv-x="306" 
d="M279 742q15 0 12 -20l-99 -704q-1 -12 -5.5 -15t-17.5 -3h-108q-11 0 -14.5 5.5t-1.5 16.5l100 707q1 8 3.5 10.5t9.5 2.5h121zM75 833.5q-3 3.5 -3 9.5q0 3 2 9q23 46 69 74t106 28q65 0 108 -28t50 -79l1 -6q0 -11 -13 -11h-56q-5 0 -8.5 3.5t-5 7t-3.5 6.5
q-29 39 -72 39q-29 0 -53.5 -13t-39.5 -34q-7 -9 -18 -9h-55q-6 0 -9 3.5z" />
    <glyph glyph-name="uni020B" unicode="&#x20b;" horiz-adv-x="256" 
d="M158 18q-1 -12 -5.5 -15t-17.5 -3h-87q-11 0 -16 6t-3 16l69 495q2 8 4.5 10.5t9.5 2.5h101q7 0 11.5 -5.5t3.5 -13.5zM18 621.5q-3 3.5 -3 9.5q0 3 2 9q23 46 69 74t106 28q65 0 108 -28t50 -79l1 -6q0 -11 -13 -11h-56q-5 0 -8.5 3.5t-5 7t-3.5 6.5q-29 39 -72 39
q-29 0 -53.5 -13t-39.5 -34q-7 -9 -18 -9h-55q-6 0 -9 3.5z" />
    <glyph glyph-name="uni020C" unicode="&#x20c;" horiz-adv-x="770" 
d="M137.5 69.5q-76.5 79.5 -76.5 222.5q0 40 6 83q16 117 68 202t132.5 130t181.5 45q136 0 212.5 -81t76.5 -226q0 -48 -6 -83q-16 -116 -67.5 -199.5t-131.5 -128t-181 -44.5q-138 0 -214.5 79.5zM505.5 163.5q54.5 67.5 74.5 210.5q7 53 7 99q0 89 -35 131.5t-106 42.5
q-93 0 -149 -70.5t-77 -216.5q-8 -56 -8 -94q0 -88 36 -129t109 -41q94 0 148.5 67.5zM307 965q3 0 10 -7l112 -128q5 -3 5 -10q0 -4 -4 -8l-26 -26q-4 -4 -8 -4t-9 4t-6 5l-121 97q-10 7 -10 15q0 6 5 13l46 46q3 3 6 3zM491 965q3 0 10 -7l113 -128q5 -5 5 -10t-4 -8
l-27 -26q-4 -4 -8 -4q-3 0 -14 9l-122 97q-10 6 -10 15q0 7 6 13l45 46q3 3 6 3z" />
    <glyph glyph-name="uni020D" unicode="&#x20d;" horiz-adv-x="599" 
d="M142.5 19q-52.5 29 -81 81t-28.5 121q0 91 41 164t110 114t150 41q70 0 122.5 -29.5t80.5 -83t28 -122.5q0 -89 -39.5 -161t-108 -113t-152.5 -41q-70 0 -122.5 29zM354 108.5q38 29.5 60 86.5t22 134q0 60 -27 92.5t-77 32.5q-47 0 -85.5 -30.5t-61 -87.5t-22.5 -134
q0 -59 27.5 -91t78.5 -32q47 0 85 29.5zM191 753q3 0 10 -7l112 -128q5 -3 5 -10q0 -4 -4 -8l-26 -26q-4 -4 -8 -4t-9 4t-6 5l-121 97q-10 7 -10 15q0 6 5 13l46 46q3 3 6 3zM375 753q3 0 10 -7l113 -128q5 -5 5 -10t-4 -8l-27 -26q-4 -4 -8 -4q-3 0 -14 9l-122 97
q-10 6 -10 15q0 7 6 13l45 46q3 3 6 3z" />
    <glyph glyph-name="uni020E" unicode="&#x20e;" horiz-adv-x="770" 
d="M137.5 69.5q-76.5 79.5 -76.5 222.5q0 40 6 83q16 117 68 202t132.5 130t181.5 45q136 0 212.5 -81t76.5 -226q0 -48 -6 -83q-16 -116 -67.5 -199.5t-131.5 -128t-181 -44.5q-138 0 -214.5 79.5zM505.5 163.5q54.5 67.5 74.5 210.5q7 53 7 99q0 89 -35 131.5t-106 42.5
q-93 0 -149 -70.5t-77 -216.5q-8 -56 -8 -94q0 -88 36 -129t109 -41q94 0 148.5 67.5zM306 833.5q-3 3.5 -3 9.5q0 3 2 9q23 46 69 74t106 28q65 0 108 -28t50 -79l1 -6q0 -11 -13 -11h-56q-5 0 -8.5 3.5t-5 7t-3.5 6.5q-29 39 -72 39q-29 0 -53.5 -13t-39.5 -34
q-7 -9 -18 -9h-55q-6 0 -9 3.5z" />
    <glyph glyph-name="uni020F" unicode="&#x20f;" horiz-adv-x="599" 
d="M142.5 19q-52.5 29 -81 81t-28.5 121q0 91 41 164t110 114t150 41q70 0 122.5 -29.5t80.5 -83t28 -122.5q0 -89 -39.5 -161t-108 -113t-152.5 -41q-70 0 -122.5 29zM354 108.5q38 29.5 60 86.5t22 134q0 60 -27 92.5t-77 32.5q-47 0 -85.5 -30.5t-61 -87.5t-22.5 -134
q0 -59 27.5 -91t78.5 -32q47 0 85 29.5zM190 621.5q-3 3.5 -3 9.5q0 3 2 9q23 46 69 74t106 28q65 0 108 -28t50 -79l1 -6q0 -11 -13 -11h-56q-5 0 -8.5 3.5t-5 7t-3.5 6.5q-29 39 -72 39q-29 0 -53.5 -13t-39.5 -34q-7 -9 -18 -9h-55q-6 0 -9 3.5z" />
    <glyph glyph-name="uni0210" unicode="&#x210;" horiz-adv-x="713" 
d="M624 11q0 -11 -16 -11h-121q-16 0 -19 19l-75 292q-2 6 -4.5 8t-11.5 2h-130q-7 0 -10 -2.5t-4 -9.5l-41 -292q-1 -11 -6.5 -14t-18.5 -3h-105q-21 0 -17 22l100 707q1 8 3.5 10.5t9.5 2.5h301q118 0 182.5 -45.5t64.5 -128.5q0 -78 -44.5 -139t-119.5 -85q-9 -4 -12 -7
t-1 -8l93 -308q2 -8 2 -10zM509.5 458q42.5 35 42.5 100q0 42 -28.5 62.5t-82.5 20.5h-149q-7 0 -9.5 -3.5t-4.5 -11.5l-28 -191v-3q0 -9 9 -9h134q74 0 116.5 35zM269 965q3 0 10 -7l112 -128q5 -3 5 -10q0 -4 -4 -8l-26 -26q-4 -4 -8 -4t-9 4t-6 5l-121 97q-10 7 -10 15
q0 6 5 13l46 46q3 3 6 3zM453 965q3 0 10 -7l113 -128q5 -5 5 -10t-4 -8l-27 -26q-4 -4 -8 -4q-3 0 -14 9l-122 97q-10 6 -10 15q0 7 6 13l45 46q3 3 6 3z" />
    <glyph glyph-name="uni0211" unicode="&#x211;" horiz-adv-x="411" 
d="M32 6.5q-5 6.5 -3 15.5l69 495q2 8 4 10.5t9 2.5h99q16 0 13 -19l-8 -49v-4q0 -6 3 -6q4 0 9 6q38 39 80 60.5t78 21.5q21 0 30.5 -3t8.5 -11l-13 -94q-1 -9 -3 -11.5t-7 -1.5q-44 4 -60 4q-28 0 -59.5 -15t-54.5 -38.5t-26 -47.5l-43 -306q-1 -10 -5.5 -13t-16.5 -3h-89
q-10 0 -15 6.5zM110 753q3 0 10 -7l112 -128q5 -3 5 -10q0 -4 -4 -8l-26 -26q-4 -4 -8 -4t-9 4t-6 5l-121 97q-10 7 -10 15q0 6 5 13l46 46q3 3 6 3zM294 753q3 0 10 -7l113 -128q5 -5 5 -10t-4 -8l-27 -26q-4 -4 -8 -4q-3 0 -14 9l-122 97q-10 6 -10 15q0 7 6 13l45 46
q3 3 6 3z" />
    <glyph glyph-name="uni0212" unicode="&#x212;" horiz-adv-x="713" 
d="M624 11q0 -11 -16 -11h-121q-16 0 -19 19l-75 292q-2 6 -4.5 8t-11.5 2h-130q-7 0 -10 -2.5t-4 -9.5l-41 -292q-1 -11 -6.5 -14t-18.5 -3h-105q-21 0 -17 22l100 707q1 8 3.5 10.5t9.5 2.5h301q118 0 182.5 -45.5t64.5 -128.5q0 -78 -44.5 -139t-119.5 -85q-9 -4 -12 -7
t-1 -8l93 -308q2 -8 2 -10zM509.5 458q42.5 35 42.5 100q0 42 -28.5 62.5t-82.5 20.5h-149q-7 0 -9.5 -3.5t-4.5 -11.5l-28 -191v-3q0 -9 9 -9h134q74 0 116.5 35zM268 833.5q-3 3.5 -3 9.5q0 3 2 9q23 46 69 74t106 28q65 0 108 -28t50 -79l1 -6q0 -11 -13 -11h-56
q-5 0 -8.5 3.5t-5 7t-3.5 6.5q-29 39 -72 39q-29 0 -53.5 -13t-39.5 -34q-7 -9 -18 -9h-55q-6 0 -9 3.5z" />
    <glyph glyph-name="uni0213" unicode="&#x213;" horiz-adv-x="411" 
d="M32 6.5q-5 6.5 -3 15.5l69 495q2 8 4 10.5t9 2.5h99q16 0 13 -19l-8 -49v-4q0 -6 3 -6q4 0 9 6q38 39 80 60.5t78 21.5q21 0 30.5 -3t8.5 -11l-13 -94q-1 -9 -3 -11.5t-7 -1.5q-44 4 -60 4q-28 0 -59.5 -15t-54.5 -38.5t-26 -47.5l-43 -306q-1 -10 -5.5 -13t-16.5 -3h-89
q-10 0 -15 6.5zM109 621.5q-3 3.5 -3 9.5q0 3 2 9q23 46 69 74t106 28q65 0 108 -28t50 -79l1 -6q0 -11 -13 -11h-56q-5 0 -8.5 3.5t-5 7t-3.5 6.5q-29 39 -72 39q-29 0 -53.5 -13t-39.5 -34q-7 -9 -18 -9h-55q-6 0 -9 3.5z" />
    <glyph glyph-name="uni0214" unicode="&#x214;" horiz-adv-x="717" 
d="M545 53.5q-81 -63.5 -220 -63.5q-134 0 -196 55.5t-62 166.5q0 21 6 75l63 441q1 9 3.5 11.5t9.5 2.5h119q7 0 11.5 -6t2.5 -14l-65 -464q-3 -24 -3 -44q0 -60 31.5 -88t94.5 -28q76 0 124 41.5t60 128.5l65 461q2 8 4 10.5t9 2.5h95q7 0 11 -6t3 -14l-65 -460
q-20 -145 -101 -208.5zM291 965q3 0 10 -7l112 -128q5 -3 5 -10q0 -4 -4 -8l-26 -26q-4 -4 -8 -4t-9 4t-6 5l-121 97q-10 7 -10 15q0 6 5 13l46 46q3 3 6 3zM475 965q3 0 10 -7l113 -128q5 -5 5 -10t-4 -8l-27 -26q-4 -4 -8 -4q-3 0 -14 9l-122 97q-10 6 -10 15q0 7 6 13
l45 46q3 3 6 3z" />
    <glyph glyph-name="uni0215" unicode="&#x215;" horiz-adv-x="588" 
d="M77.5 26.5q-38.5 36.5 -38.5 97.5q0 10 2 28l50 361q2 11 6 14t15 3h92q9 0 13.5 -6t3.5 -16l-48 -340q-2 -14 -2 -19q0 -64 66 -64q64 0 141 72l52 357q2 10 6 13t16 3h90q10 0 15 -6.5t3 -15.5l-72 -495q-1 -8 -3 -10.5t-10 -2.5h-98q-16 0 -13 13l8 51v2q0 5 -3 5
t-10 -5q-50 -41 -92.5 -58.5t-87.5 -17.5q-63 0 -101.5 36.5zM176 753q3 0 10 -7l112 -128q5 -3 5 -10q0 -4 -4 -8l-26 -26q-4 -4 -8 -4t-9 4t-6 5l-121 97q-10 7 -10 15q0 6 5 13l46 46q3 3 6 3zM360 753q3 0 10 -7l113 -128q5 -5 5 -10t-4 -8l-27 -26q-4 -4 -8 -4
q-3 0 -14 9l-122 97q-10 6 -10 15q0 7 6 13l45 46q3 3 6 3z" />
    <glyph glyph-name="uni0216" unicode="&#x216;" horiz-adv-x="717" 
d="M545 53.5q-81 -63.5 -220 -63.5q-134 0 -196 55.5t-62 166.5q0 21 6 75l63 441q1 9 3.5 11.5t9.5 2.5h119q7 0 11.5 -6t2.5 -14l-65 -464q-3 -24 -3 -44q0 -60 31.5 -88t94.5 -28q76 0 124 41.5t60 128.5l65 461q2 8 4 10.5t9 2.5h95q7 0 11 -6t3 -14l-65 -460
q-20 -145 -101 -208.5zM290 833.5q-3 3.5 -3 9.5q0 3 2 9q23 46 69 74t106 28q65 0 108 -28t50 -79l1 -6q0 -11 -13 -11h-56q-5 0 -8.5 3.5t-5 7t-3.5 6.5q-29 39 -72 39q-29 0 -53.5 -13t-39.5 -34q-7 -9 -18 -9h-55q-6 0 -9 3.5z" />
    <glyph glyph-name="uni0217" unicode="&#x217;" horiz-adv-x="588" 
d="M77.5 26.5q-38.5 36.5 -38.5 97.5q0 10 2 28l50 361q2 11 6 14t15 3h92q9 0 13.5 -6t3.5 -16l-48 -340q-2 -14 -2 -19q0 -64 66 -64q64 0 141 72l52 357q2 10 6 13t16 3h90q10 0 15 -6.5t3 -15.5l-72 -495q-1 -8 -3 -10.5t-10 -2.5h-98q-16 0 -13 13l8 51v2q0 5 -3 5
t-10 -5q-50 -41 -92.5 -58.5t-87.5 -17.5q-63 0 -101.5 36.5zM175 621.5q-3 3.5 -3 9.5q0 3 2 9q23 46 69 74t106 28q65 0 108 -28t50 -79l1 -6q0 -11 -13 -11h-56q-5 0 -8.5 3.5t-5 7t-3.5 6.5q-29 39 -72 39q-29 0 -53.5 -13t-39.5 -34q-7 -9 -18 -9h-55q-6 0 -9 3.5z" />
    <glyph glyph-name="Scommaaccent" unicode="&#x218;" horiz-adv-x="665" 
d="M483 630q-38 17 -91 17q-67 0 -109.5 -30.5t-42.5 -80.5q0 -52 79 -81l147 -51q77 -27 113 -67.5t36 -98.5q0 -78 -41 -134t-112.5 -85t-161.5 -29q-101 0 -170 34.5t-105 99.5q-4 7 -4 12q0 8 8 12l65 40q8 5 14 5q9 0 19 -12q26 -34 48 -52.5t54 -28t83 -9.5
q71 0 114.5 28t43.5 85q0 27 -19.5 46.5t-64.5 35.5l-145 51q-69 23 -105 68.5t-36 102.5q0 72 40.5 127.5t109 86t149.5 30.5t143.5 -29.5t99.5 -76.5q7 -10 7 -14q0 -5 -6 -8l-76 -51q-1 -1 -4 -1q-4 0 -10 6l-8 8q-24 27 -62 44zM222.5 -238q-0.5 4 3.5 8l40 53q5 6 5 12
q0 7 -7 7h-20q-7 0 -8.5 3t-0.5 12l9 65q3 15 14 15h74q12 0 11 -11l-11 -79q-1 -7 -8 -16l-51 -59l-6 -6t-8 -6t-10 -2h-21q-5 0 -5.5 4z" />
    <glyph glyph-name="scommaaccent" unicode="&#x219;" horiz-adv-x="524" 
d="M84 22q-58 32 -80 83q-3 6 -3 10q0 7 8 10l57 28q6 3 11 3q8 0 15 -10q37 -71 136 -71q44 0 86 17t42 57q0 37 -71 56l-99 26q-66 17 -97 48t-31 78q0 57 33 98.5t87 63t118 21.5q71 0 121.5 -27.5t76.5 -72.5q2 -4 2 -8q0 -7 -7 -11l-56 -26q-6 -2 -7 -2q-7 0 -17 12
q-16 24 -45.5 38.5t-70.5 14.5q-44 0 -79.5 -18t-35.5 -52q0 -17 11.5 -29t43.5 -21l114 -30q64 -17 95.5 -52.5t31.5 -84.5q0 -59 -35 -100t-91 -61t-117 -20q-89 0 -147 32zM138.5 -238q-0.5 4 3.5 8l40 53q5 6 5 12q0 7 -7 7h-20q-7 0 -8.5 3t-0.5 12l9 65q3 15 14 15h74
q12 0 11 -11l-11 -79q-1 -7 -8 -16l-51 -59l-6 -6t-8 -6t-10 -2h-21q-5 0 -5.5 4z" />
    <glyph glyph-name="uni021A" unicode="&#x21a;" horiz-adv-x="669" 
d="M102 730q1 7 4 9.5t12 2.5h568q9 0 11 -3t0 -10l-12 -84q-1 -7 -4 -9t-11 -2h-192q-9 0 -11.5 -2.5t-4.5 -10.5l-85 -606q-1 -9 -4 -12t-11 -3h-118q-10 0 -13 4t-1 15l85 603v3q0 9 -10 9h-202q-8 0 -11 2.5t-2 9.5zM220.5 -238q-0.5 4 3.5 8l40 53q5 6 5 12q0 7 -7 7
h-20q-7 0 -8.5 3t-0.5 12l9 65q3 15 14 15h74q12 0 11 -11l-11 -79q-1 -7 -8 -16l-51 -59l-6 -6t-8 -6t-10 -2h-21q-5 0 -5.5 4z" />
    <glyph glyph-name="uni021B" unicode="&#x21b;" horiz-adv-x="417" 
d="M129.5 26.5q-33.5 26.5 -33.5 76.5q0 8 2 28l42 297v2q0 9 -13 9h-69q-11 0 -10 19l9 63q1 6 3.5 7.5t10.5 1.5h74q5 0 9 4.5t5 9.5l35 154q3 12 17 12h89q7 0 9 -4.5t1 -16.5l-22 -148v-2q0 -8 9 -8h110q18 0 15 -13l-9 -68q-1 -7 -4 -9t-12 -2h-113q-12 0 -15 -14
l-37 -268q-2 -8 -2 -21q0 -25 13 -34.5t44 -9.5h58q7 0 11 -5.5t3 -12.5l-8 -52q-3 -15 -16 -18q-40 -4 -110 -4q-62 0 -95.5 26.5zM132.5 -238q-0.5 4 3.5 8l40 53q5 6 5 12q0 7 -7 7h-20q-7 0 -8.5 3t-0.5 12l9 65q3 15 14 15h74q12 0 11 -11l-11 -79q-1 -7 -8 -16
l-51 -59l-6 -6t-8 -6t-10 -2h-21q-5 0 -5.5 4z" />
    <glyph glyph-name="uni0237" unicode="&#x237;" horiz-adv-x="251" 
d="M91 -130.5q-47 -39.5 -126 -39.5q-40 0 -53 5t-11 17l9 66q2 12 13 15l40 4q24 2 38.5 17.5t19.5 49.5l72 513q1 8 4 10.5t11 2.5h101q7 0 11 -6t3 -13l-74 -521q-11 -81 -58 -120.5z" />
    <glyph glyph-name="uni0259" unicode="&#x259;" horiz-adv-x="584" 
d="M439 511.5q53 -28.5 82.5 -80.5t29.5 -120q0 -83 -38 -156.5t-107 -119t-155 -45.5q-102 0 -162 60.5t-60 167.5q0 29 4 56q2 9 6.5 12.5t15.5 3.5h351q9 0 12.5 11t3.5 33q0 54 -34 84.5t-89 30.5q-43 0 -79 -17.5t-68 -54.5q-5 -5 -10 -5q-3 0 -11 4l-57 28
q-10 3 -10 11q0 4 5 11q54 63 111.5 88.5t135.5 25.5q70 0 123 -28.5zM172 219q-24 0 -24 -41q0 -45 27.5 -75.5t75.5 -30.5q39 0 72.5 20t55 54t26.5 73h-233z" />
    <glyph glyph-name="uni02BC" unicode="&#x2bc;" horiz-adv-x="166" 
d="M65 468l48 113q2 6 2 7q0 9 -10 11l-8 2q-2 0 -5.5 0.5t-4.5 2.5t0 6l17 116q1 6 5.5 11t9.5 5h75q4 0 5 -1t0 -5l-18 -131q0 -2 -2 -4t-2 -4l-54 -123q-5 -15 -26 -15h-29q-8 0 -3 9z" />
    <glyph glyph-name="circumflex" unicode="&#x2c6;" horiz-adv-x="359" 
d="M252 679q-8 8 -10 8q-3 0 -7.5 -4t-9.5 -10l-62 -52q-5 -4 -8.5 -5t-6.5 -0.5t-6 0.5h-72q-4 0 -7 2.5t-3 5.5q0 5 5 10l121 105q7 5 13.5 7t17.5 2h61q10 0 15 -5.5t6 -7.5l91 -107q2 -2 5.5 -6t2.5 -5t-7 -1h-77q-12 0 -21 11z" />
    <glyph glyph-name="ring" unicode="&#x2da;" horiz-adv-x="239" 
d="M272.5 638q-16.5 -27 -44 -43t-59.5 -16q-43 0 -71 29t-28 73q0 11 1 17q5 41 39.5 69.5t78.5 28.5q43 0 71.5 -28.5t28.5 -70.5q0 -32 -16.5 -59zM220.5 729.5q-11.5 10.5 -29.5 10.5q-24 0 -44 -17.5t-24 -41.5q-2 -19 10.5 -33t31.5 -14q25 0 46 21.5t21 47.5
q0 16 -11.5 26.5z" />
    <glyph glyph-name="tilde" unicode="&#x2dc;" horiz-adv-x="382" 
d="M320 637q-20 0 -36.5 4t-38.5 11q-37 13 -61 13q-22 0 -36 -6.5t-34 -20.5q-2 -1 -6 -1q-9 0 -12 15l-8 37q-2 8 -2 10q0 7 6 14q24 14 43 21t44 7q20 0 36.5 -4t44.5 -13q37 -13 60 -13q35 0 70 27q2 1 7 1q12 0 14 -15l5 -44q1 -2 1 -7q0 -7 -9 -16q-47 -20 -88 -20z
" />
    <glyph glyph-name="uni1E0C" unicode="&#x1e0c;" horiz-adv-x="741" 
d="M49.5 7q-5.5 7 -4.5 18l99 703q2 8 5.5 11t13.5 3h190q177 0 267 -78t90 -219q0 -138 -52.5 -238t-153.5 -153.5t-243 -53.5h-196q-10 0 -15.5 7zM275 106q144 0 213 91t69 255q0 96 -50.5 140t-152.5 44h-61q-14 0 -17 -16l-68 -498q0 -1 -0.5 -2.5t0.5 -2.5
q0 -11 12 -11h55zM306 -151q-1 -10 -4 -12t-14 -2h-72q-9 0 -13 5.5t-3 13.5l13 86q1 8 2 9.5t7 1.5h84q6 0 9.5 -5t1.5 -12z" />
    <glyph glyph-name="uni1E0D" unicode="&#x1e0d;" horiz-adv-x="606" 
d="M399 0q-21 0 -18 17l6 33v4q0 5 -3 5t-11 -6q-33 -27 -69.5 -45t-85.5 -18q-85 0 -135 54.5t-50 157.5q0 86 32.5 164t92.5 126t139 48q42 0 72 -15t54 -43q7 -7 11 -7q9 0 12 24l33 229q1 14 17 14h101q13 0 10 -21l-100 -704q-1 -10 -5.5 -13.5t-16.5 -3.5h-86z
M434 402q-21 27 -45 39.5t-54 12.5q-57 0 -95.5 -40t-57 -99.5t-18.5 -116.5q0 -63 28 -93.5t76 -30.5q32 0 61 15.5t48 39.5t23 48zM300 -151q-1 -10 -4 -12t-14 -2h-72q-9 0 -13 5.5t-3 13.5l13 86q1 8 2 9.5t7 1.5h84q6 0 9.5 -5t1.5 -12z" />
    <glyph glyph-name="uni1E24" unicode="&#x1e24;" horiz-adv-x="746" 
d="M247 327q-12 0 -13 -15l-42 -296q-1 -10 -5.5 -13t-16.5 -3h-111q-10 0 -13 3.5t-2 13.5l101 712q1 8 3.5 10.5t9.5 2.5h124q7 0 9 -3t0 -11l-37 -273l-1 -6q0 -8 10 -8h269q12 0 14 19l38 270q1 7 4 9.5t10 2.5h123q7 0 9 -4.5t1 -16.5l-100 -706q-1 -10 -4 -12.5
t-14 -2.5h-110q-12 0 -16 4.5t-2 15.5l41 300v2q0 5 -10 5h-269zM366 -151q-1 -10 -4 -12t-14 -2h-72q-9 0 -13 5.5t-3 13.5l13 86q1 8 2 9.5t7 1.5h84q6 0 9.5 -5t1.5 -12z" />
    <glyph glyph-name="uni1E25" unicode="&#x1e25;" horiz-adv-x="592" 
d="M48 0q-10 0 -15 6t-4 16l100 707q1 7 4.5 10t11.5 3h99q14 0 11 -16l-35 -249v-5q0 -4 1.5 -4.5t5.5 1.5q57 39 98 55t85 16q69 0 106.5 -35t37.5 -95q0 -14 -3 -31l-51 -362q-1 -10 -5 -13.5t-15 -3.5h-93q-9 0 -13.5 6t-3.5 16l49 344q2 14 2 19q0 59 -69 59
q-36 0 -67.5 -17t-74.5 -55l-51 -356q-2 -10 -6 -13t-16 -3h-89zM300 -151q-1 -10 -4 -12t-14 -2h-72q-9 0 -13 5.5t-3 13.5l13 86q1 8 2 9.5t7 1.5h84q6 0 9.5 -5t1.5 -12z" />
    <glyph glyph-name="uni1E44" unicode="&#x1e44;" horiz-adv-x="758" 
d="M734 742q12 0 10 -14l-101 -717q-1 -7 -4 -9t-11 -2h-84q-13 0 -21 14l-275 486q-3 6 -7 6t-6 -11l-68 -481q-2 -8 -5 -11t-13 -3h-92q-15 0 -13 19l101 710q1 8 3.5 10.5t11.5 2.5h99q9 0 14 -3.5t10 -12.5l257 -463q4 -7 10 -7q7 0 8 12l65 462q2 8 4.5 10t10.5 2h96z
M535 834q-2 -11 -6.5 -14t-17.5 -3h-91q-21 0 -19 22l14 102q2 8 4.5 10.5t9.5 2.5h106q7 0 10.5 -6t2.5 -14z" />
    <glyph glyph-name="uni1E45" unicode="&#x1e45;" horiz-adv-x="592" 
d="M29 22l69 495q2 8 4 10.5t9 2.5h106q6 0 8 -2.5t1 -9.5l-8 -53v-3q0 -4 2 -4q1 0 8 5q93 77 181 77q68 0 106 -36t38 -96q0 -9 -2 -27l-51 -364q-1 -10 -5.5 -13.5t-15.5 -3.5h-96q-16 0 -13 22l49 341l2 21q0 60 -69 60q-36 0 -67.5 -17t-75.5 -55l-51 -356
q-1 -10 -6 -13t-17 -3h-93q-16 0 -13 22zM422 622q-2 -11 -6.5 -14t-17.5 -3h-91q-21 0 -19 22l14 102q2 8 4.5 10.5t9.5 2.5h106q7 0 10.5 -6t2.5 -14z" />
    <glyph glyph-name="uni1E5A" unicode="&#x1e5a;" horiz-adv-x="713" 
d="M624 11q0 -11 -16 -11h-121q-16 0 -19 19l-75 292q-2 6 -4.5 8t-11.5 2h-130q-7 0 -10 -2.5t-4 -9.5l-41 -292q-1 -11 -6.5 -14t-18.5 -3h-105q-21 0 -17 22l100 707q1 8 3.5 10.5t9.5 2.5h301q118 0 182.5 -45.5t64.5 -128.5q0 -78 -44.5 -139t-119.5 -85q-9 -4 -12 -7
t-1 -8l93 -308q2 -8 2 -10zM509.5 458q42.5 35 42.5 100q0 42 -28.5 62.5t-82.5 20.5h-149q-7 0 -9.5 -3.5t-4.5 -11.5l-28 -191v-3q0 -9 9 -9h134q74 0 116.5 35zM351 -151q-1 -10 -4 -12t-14 -2h-72q-9 0 -13 5.5t-3 13.5l13 86q1 8 2 9.5t7 1.5h84q6 0 9.5 -5t1.5 -12z
" />
    <glyph glyph-name="uni1E5B" unicode="&#x1e5b;" horiz-adv-x="411" 
d="M32 6.5q-5 6.5 -3 15.5l69 495q2 8 4 10.5t9 2.5h99q16 0 13 -19l-8 -49v-4q0 -6 3 -6q4 0 9 6q38 39 80 60.5t78 21.5q21 0 30.5 -3t8.5 -11l-13 -94q-1 -9 -3 -11.5t-7 -1.5q-44 4 -60 4q-28 0 -59.5 -15t-54.5 -38.5t-26 -47.5l-43 -306q-1 -10 -5.5 -13t-16.5 -3h-89
q-10 0 -15 6.5zM127 -151q-1 -10 -4 -12t-14 -2h-72q-9 0 -13 5.5t-3 13.5l13 86q1 8 2 9.5t7 1.5h84q6 0 9.5 -5t1.5 -12z" />
    <glyph glyph-name="uni1E62" unicode="&#x1e62;" horiz-adv-x="665" 
d="M483 630q-38 17 -91 17q-67 0 -109.5 -30.5t-42.5 -80.5q0 -52 79 -81l147 -51q77 -27 113 -67.5t36 -98.5q0 -78 -41 -134t-112.5 -85t-161.5 -29q-101 0 -170 34.5t-105 99.5q-4 7 -4 12q0 8 8 12l65 40q8 5 14 5q9 0 19 -12q26 -34 48 -52.5t54 -28t83 -9.5
q71 0 114.5 28t43.5 85q0 27 -19.5 46.5t-64.5 35.5l-145 51q-69 23 -105 68.5t-36 102.5q0 72 40.5 127.5t109 86t149.5 30.5t143.5 -29.5t99.5 -76.5q7 -10 7 -14q0 -5 -6 -8l-76 -51q-1 -1 -4 -1q-4 0 -10 6l-8 8q-24 27 -62 44zM336 -151q-1 -10 -4 -12t-14 -2h-72
q-9 0 -13 5.5t-3 13.5l13 86q1 8 2 9.5t7 1.5h84q6 0 9.5 -5t1.5 -12z" />
    <glyph glyph-name="uni1E63" unicode="&#x1e63;" horiz-adv-x="524" 
d="M84 22q-58 32 -80 83q-3 6 -3 10q0 7 8 10l57 28q6 3 11 3q8 0 15 -10q37 -71 136 -71q44 0 86 17t42 57q0 37 -71 56l-99 26q-66 17 -97 48t-31 78q0 57 33 98.5t87 63t118 21.5q71 0 121.5 -27.5t76.5 -72.5q2 -4 2 -8q0 -7 -7 -11l-56 -26q-6 -2 -7 -2q-7 0 -17 12
q-16 24 -45.5 38.5t-70.5 14.5q-44 0 -79.5 -18t-35.5 -52q0 -17 11.5 -29t43.5 -21l114 -30q64 -17 95.5 -52.5t31.5 -84.5q0 -59 -35 -100t-91 -61t-117 -20q-89 0 -147 32zM252 -151q-1 -10 -4 -12t-14 -2h-72q-9 0 -13 5.5t-3 13.5l13 86q1 8 2 9.5t7 1.5h84q6 0 9.5 -5
t1.5 -12z" />
    <glyph glyph-name="uni1E6C" unicode="&#x1e6c;" horiz-adv-x="669" 
d="M102 730q1 7 4 9.5t12 2.5h568q9 0 11 -3t0 -10l-12 -84q-1 -7 -4 -9t-11 -2h-192q-9 0 -11.5 -2.5t-4.5 -10.5l-85 -606q-1 -9 -4 -12t-11 -3h-118q-10 0 -13 4t-1 15l85 603v3q0 9 -10 9h-202q-8 0 -11 2.5t-2 9.5zM334 -151q-1 -10 -4 -12t-14 -2h-72q-9 0 -13 5.5
t-3 13.5l13 86q1 8 2 9.5t7 1.5h84q6 0 9.5 -5t1.5 -12z" />
    <glyph glyph-name="uni1E6D" unicode="&#x1e6d;" horiz-adv-x="417" 
d="M129.5 26.5q-33.5 26.5 -33.5 76.5q0 8 2 28l42 297v2q0 9 -13 9h-69q-11 0 -10 19l9 63q1 6 3.5 7.5t10.5 1.5h74q5 0 9 4.5t5 9.5l35 154q3 12 17 12h89q7 0 9 -4.5t1 -16.5l-22 -148v-2q0 -8 9 -8h110q18 0 15 -13l-9 -68q-1 -7 -4 -9t-12 -2h-113q-12 0 -15 -14
l-37 -268q-2 -8 -2 -21q0 -25 13 -34.5t44 -9.5h58q7 0 11 -5.5t3 -12.5l-8 -52q-3 -15 -16 -18q-40 -4 -110 -4q-62 0 -95.5 26.5zM195 -151q-1 -10 -4 -12t-14 -2h-72q-9 0 -13 5.5t-3 13.5l13 86q1 8 2 9.5t7 1.5h84q6 0 9.5 -5t1.5 -12z" />
    <glyph glyph-name="Wgrave" unicode="&#x1e80;" horiz-adv-x="1071" 
d="M1101 731q0 -6 -5 -19l-303 -696q-5 -10 -10.5 -13t-17.5 -3h-91q-12 0 -18.5 4t-7.5 13l-72 483q0 6 -3 6t-6 -6l-209 -484q-5 -10 -10 -13t-17 -3h-96q-12 0 -18 4t-7 14l-106 700q-1 3 -1 8q0 16 20 16h105q11 0 15.5 -4.5t6.5 -14.5l71 -495q1 -10 4 -10q4 0 7 9
l214 503q3 8 7.5 10t16.5 2h92q10 0 13.5 -4t5.5 -15l73 -501q0 -6 4 -6t7 9l212 505q3 7 7.5 9.5t15.5 2.5h86q15 0 15 -11zM523 962l220 -98q5 -3 8 -8.5t0 -11.5l-16 -31q-4 -8 -9 -8q-4 0 -11 3l-221 65q-16 5 -16 18l2 8l29 59q5 10 14 4z" />
    </font>
</defs>
</svg>
